<svg xmlns="http://www.w3.org/2000/svg" xmlns:xlink="http://www.w3.org/1999/xlink" width="100" zoomAndPan="magnify" viewBox="0 0 75 44.249999" height="59" preserveAspectRatio="xMidYMid meet" version="1.0"><defs><clipPath id="97d1afe75f"><path d="M 17 28 L 74 28 L 74 42.773438 L 17 42.773438 Z M 17 28 " clip-rule="nonzero"/></clipPath><clipPath id="eb8c93311a"><path d="M 16 31 L 74.375 31 L 74.375 42.773438 L 16 42.773438 Z M 16 31 " clip-rule="nonzero"/></clipPath><clipPath id="a18ec67418"><path d="M 1 4 L 35 4 L 35 42.773438 L 1 42.773438 Z M 1 4 " clip-rule="nonzero"/></clipPath></defs><path fill="#dda783" d="M 57.230469 4.15625 C 57.734375 3.535156 58.511719 3.140625 59.3125 3.078125 C 60.113281 3.011719 60.929688 3.273438 61.5625 3.769531 C 62.222656 4.289062 62.675781 5.082031 62.707031 5.917969 C 62.738281 6.757812 62.308594 7.617188 61.574219 8.023438 C 60.246094 6.59375 58.757812 5.308594 57.230469 4.15625 Z M 57.230469 4.15625 " fill-opacity="1" fill-rule="nonzero"/><path fill="#703627" d="M 61.265625 8.820312 C 61.117188 8.820312 60.972656 8.746094 60.882812 8.617188 C 60.746094 8.40625 60.804688 8.125 61.011719 7.984375 C 61.929688 7.382812 62.261719 6.5625 62.003906 5.558594 C 61.738281 4.523438 60.769531 3.707031 59.703125 3.617188 C 58.757812 3.539062 57.929688 3.96875 57.246094 4.890625 C 57.09375 5.09375 56.8125 5.136719 56.609375 4.984375 C 56.40625 4.835938 56.363281 4.550781 56.511719 4.351562 C 57.386719 3.171875 58.515625 2.609375 59.78125 2.710938 C 61.222656 2.832031 62.527344 3.933594 62.886719 5.332031 C 63.242188 6.714844 62.753906 7.925781 61.515625 8.742188 C 61.4375 8.792969 61.351562 8.820312 61.265625 8.820312 Z M 61.265625 8.820312 " fill-opacity="1" fill-rule="nonzero"/><path fill="#dda783" d="M 37.316406 26.242188 C 35.472656 25.113281 33.914062 23.421875 33.449219 21.394531 C 32.914062 19.027344 34.511719 16.972656 35.332031 14.683594 C 36.828125 10.511719 37.667969 8.441406 40.121094 6.175781 C 45.046875 1.625 54.066406 0.609375 60.058594 6.410156 C 62.457031 8.730469 63.246094 10.820312 64.644531 15.023438 C 65.414062 17.328125 66.960938 19.425781 66.371094 21.773438 C 65.859375 23.792969 64.261719 25.445312 63.257812 26.273438 C 55.523438 29.488281 45.730469 31.40625 37.316406 26.242188 Z M 37.316406 26.242188 " fill-opacity="1" fill-rule="nonzero"/><path fill="#bfcef5" d="M 71.160156 22.039062 C 69.601562 17.40625 66.714844 13.226562 62.929688 10.125 C 63.957031 13.230469 65.007812 16.367188 65.972656 19.734375 C 66.273438 19.695312 66.582031 19.652344 66.878906 19.722656 C 67.171875 19.792969 67.457031 20 67.527344 20.296875 C 67.597656 20.585938 67.449219 20.878906 67.308594 21.144531 C 66.585938 22.5 65.859375 23.859375 65.136719 25.214844 C 66.132812 25.277344 67.011719 26.011719 67.421875 26.921875 C 67.832031 27.828125 67.832031 28.882812 67.609375 29.851562 C 67.386719 30.824219 66.957031 31.738281 66.53125 32.636719 C 68.613281 32.546875 70.925781 32.535156 72.492188 33.90625 C 72.542969 30.320312 72.695312 26.601562 71.160156 22.039062 Z M 71.160156 22.039062 " fill-opacity="1" fill-rule="nonzero"/><g clip-path="url(#97d1afe75f)"><path fill="#8093c2" d="M 17.160156 41.183594 C 33.148438 42.492188 48.082031 42.175781 65.332031 42.304688 C 67.183594 42.316406 69.109375 42.351562 70.800781 41.453125 C 72.492188 40.558594 73.882812 38.429688 73.527344 36.269531 C 73.105469 33.671875 70.515625 32.417969 68.285156 32.464844 C 66.058594 32.511719 63.851562 33.390625 61.636719 33.070312 C 60.378906 32.890625 59.175781 32.324219 57.914062 32.171875 C 54.738281 31.78125 53.109375 33.550781 49.773438 33.625 C 48.359375 34.019531 46.851562 33.398438 45.65625 32.550781 C 44.460938 31.699219 43.4375 30.613281 42.167969 29.875 C 39.089844 28.089844 35.234375 28.679688 31.734375 29.347656 C 28.621094 29.941406 25.4375 30.582031 22.707031 32.199219 C 19.980469 33.816406 17.75 36.628906 17.160156 41.183594 Z M 17.160156 41.183594 " fill-opacity="1" fill-rule="nonzero"/></g><path fill="#dda783" d="M 36.523438 16.320312 C 34.496094 17.714844 33.1875 19.910156 32.003906 22.0625 C 30.105469 25.527344 28.363281 29.078125 26.792969 32.703125 C 30.164062 33.894531 33.917969 33.980469 37.339844 32.945312 C 37.976562 32.75 38.605469 32.519531 39.265625 32.441406 C 39.925781 32.363281 40.636719 32.457031 41.164062 32.859375 C 41.433594 33.0625 41.800781 33.085938 42.0625 33.300781 C 42.320312 33.519531 42.816406 33.820312 43.144531 33.734375 C 43.402344 33.664062 43.289062 33.566406 43.453125 33.355469 C 44.78125 31.628906 46.4375 29.160156 44.910156 27.605469 C 44.261719 26.945312 41.609375 26.269531 40.898438 25.675781 C 39.46875 24.476562 38.59375 22.722656 38.136719 20.914062 C 37.679688 19.105469 37.601562 17.226562 36.523438 16.320312 Z M 36.523438 16.320312 " fill-opacity="1" fill-rule="nonzero"/><path fill="#bfcef5" d="M 20.421875 39.738281 C 18.488281 41.242188 15.972656 41.980469 13.527344 41.765625 C 12.222656 41.648438 10.957031 41.277344 9.703125 40.902344 C 8.265625 40.476562 6.820312 40.050781 5.480469 39.382812 C 4.140625 38.714844 2.894531 37.792969 2.0625 36.550781 C 1.082031 34.195312 1.683594 31.511719 3.0625 29.554688 C 4.441406 27.597656 6.476562 26.214844 8.480469 24.902344 C 10.1875 23.789062 11.910156 22.6875 13.460938 21.363281 C 15.011719 20.039062 16.390625 18.472656 17.25 16.625 C 19.101562 13.675781 20.855469 10.753906 23.328125 8.488281 C 25.796875 6.21875 29.117188 4.660156 32.453125 5.03125 C 36.3125 1.976562 41.785156 1.152344 46.605469 2.808594 C 43.488281 3.394531 40.613281 5.179688 38.710938 7.710938 C 37.300781 9.589844 36.4375 11.8125 35.527344 13.976562 C 33.0625 19.847656 30.152344 25.515625 27.253906 31.246094 C 25.792969 34.523438 23.417969 37.410156 20.421875 39.738281 Z M 20.421875 39.738281 " fill-opacity="1" fill-rule="nonzero"/><path fill="#b27966" d="M 56.03125 19.382812 C 55 19.355469 53.957031 19.398438 52.96875 19.683594 C 51.980469 19.96875 51.042969 20.511719 50.429688 21.335938 C 49.71875 22.292969 49.507812 23.523438 49.414062 24.710938 C 49.3125 25.988281 49.324219 27.28125 49.539062 28.542969 C 49.660156 29.277344 49.863281 30.023438 50.34375 30.589844 C 51.144531 31.53125 52.484375 31.75 53.710938 31.90625 C 54.882812 32.054688 56.066406 32.203125 57.238281 32.054688 C 58.410156 31.902344 59.582031 31.417969 60.324219 30.5 C 60.832031 29.867188 61.105469 29.070312 61.261719 28.273438 C 61.597656 26.578125 61.449219 24.816406 61.109375 23.121094 C 60.941406 22.269531 60.703125 21.386719 60.113281 20.742188 C 59.25 19.796875 57.871094 19.4375 56.03125 19.382812 Z M 56.03125 19.382812 " fill-opacity="1" fill-rule="nonzero"/><path fill="#703627" d="M 57.660156 22.117188 C 57.457031 22.378906 57.339844 22.710938 57.339844 23.042969 C 57.339844 23.179688 57.375 23.339844 57.5 23.394531 C 57.625 23.445312 57.757812 23.367188 57.871094 23.296875 C 58.105469 23.136719 58.347656 22.972656 58.527344 22.753906 C 58.699219 22.550781 58.8125 22.257812 58.6875 22.023438 C 58.59375 21.84375 58.378906 21.75 58.175781 21.769531 C 57.976562 21.792969 57.808594 21.929688 57.660156 22.117188 Z M 57.660156 22.117188 " fill-opacity="1" fill-rule="nonzero"/><path fill="#703627" d="M 53.546875 22.140625 C 53.753906 22.398438 53.871094 22.730469 53.875 23.0625 C 53.878906 23.199219 53.84375 23.359375 53.71875 23.414062 C 53.597656 23.46875 53.460938 23.394531 53.351562 23.320312 C 53.113281 23.164062 52.871094 23.003906 52.683594 22.785156 C 52.511719 22.585938 52.394531 22.292969 52.515625 22.054688 C 52.609375 21.875 52.824219 21.78125 53.027344 21.800781 C 53.226562 21.820312 53.394531 21.953125 53.546875 22.140625 Z M 53.546875 22.140625 " fill-opacity="1" fill-rule="nonzero"/><path fill="#703627" d="M 57.054688 29.617188 C 56.394531 29.617188 55.746094 29.191406 55.371094 28.507812 L 55.328125 28.433594 L 55.324219 27.828125 C 55.3125 26.800781 55.300781 25.78125 55.28125 24.875 C 55.277344 24.6875 55.425781 24.53125 55.617188 24.527344 C 55.796875 24.535156 55.960938 24.675781 55.964844 24.863281 C 55.984375 25.769531 55.996094 26.792969 56.007812 27.820312 L 56.011719 28.25 C 56.28125 28.695312 56.722656 28.96875 57.125 28.929688 C 57.554688 28.894531 57.964844 28.515625 58.148438 27.988281 C 58.210938 27.808594 58.40625 27.714844 58.585938 27.777344 C 58.761719 27.839844 58.855469 28.035156 58.792969 28.210938 C 58.519531 29 57.886719 29.546875 57.1875 29.609375 C 57.140625 29.613281 57.097656 29.617188 57.054688 29.617188 Z M 57.054688 29.617188 " fill-opacity="1" fill-rule="nonzero"/><path fill="#703627" d="M 54.328125 29.511719 C 54.242188 29.511719 54.160156 29.503906 54.074219 29.488281 C 53.386719 29.375 52.757812 28.789062 52.476562 27.992188 C 52.414062 27.816406 52.507812 27.621094 52.6875 27.558594 C 52.863281 27.496094 53.058594 27.589844 53.121094 27.765625 C 53.316406 28.320312 53.746094 28.746094 54.183594 28.816406 C 54.609375 28.886719 55.050781 28.636719 55.308594 28.175781 C 55.398438 28.011719 55.609375 27.953125 55.773438 28.042969 C 55.9375 28.136719 55.996094 28.34375 55.902344 28.507812 C 55.550781 29.136719 54.953125 29.511719 54.328125 29.511719 Z M 54.328125 29.511719 " fill-opacity="1" fill-rule="nonzero"/><path fill="#fcc3b2" d="M 43.953125 23.15625 C 43.953125 23.328125 43.917969 23.496094 43.851562 23.65625 C 43.785156 23.816406 43.691406 23.957031 43.570312 24.078125 C 43.445312 24.203125 43.304688 24.296875 43.144531 24.363281 C 42.984375 24.429688 42.816406 24.460938 42.644531 24.460938 C 42.46875 24.460938 42.300781 24.429688 42.140625 24.363281 C 41.980469 24.296875 41.839844 24.203125 41.71875 24.078125 C 41.59375 23.957031 41.5 23.816406 41.433594 23.65625 C 41.367188 23.496094 41.335938 23.328125 41.335938 23.15625 C 41.335938 22.984375 41.367188 22.816406 41.433594 22.65625 C 41.5 22.496094 41.59375 22.355469 41.71875 22.230469 C 41.839844 22.109375 41.980469 22.015625 42.140625 21.949219 C 42.300781 21.882812 42.46875 21.851562 42.644531 21.851562 C 42.816406 21.851562 42.984375 21.882812 43.144531 21.949219 C 43.304688 22.015625 43.445312 22.109375 43.570312 22.230469 C 43.691406 22.355469 43.785156 22.496094 43.851562 22.65625 C 43.917969 22.816406 43.953125 22.984375 43.953125 23.15625 Z M 43.953125 23.15625 " fill-opacity="1" fill-rule="nonzero"/><path fill="#703627" d="M 45.914062 19.917969 C 45.40625 20.183594 44.871094 20.480469 44.601562 20.984375 C 44.507812 21.164062 44.453125 21.378906 44.535156 21.5625 C 44.617188 21.75 44.835938 21.859375 45.042969 21.871094 C 45.25 21.882812 45.457031 21.820312 45.65625 21.75 C 46.089844 21.605469 46.515625 21.441406 46.921875 21.234375 C 47.160156 21.113281 47.390625 20.972656 47.550781 20.765625 C 47.710938 20.554688 47.789062 20.265625 47.683594 20.023438 C 47.566406 19.757812 47.265625 19.617188 46.976562 19.605469 C 46.6875 19.597656 46.390625 19.667969 45.914062 19.917969 Z M 45.914062 19.917969 " fill-opacity="1" fill-rule="nonzero"/><path fill="#928c88" d="M 51.089844 30.214844 C 53.117188 26.53125 54.53125 24 56.9375 18.828125 C 57.09375 18.496094 57.4375 18.292969 57.800781 18.332031 C 60.902344 18.636719 64.289062 19.136719 66.863281 19.5625 C 67.339844 19.644531 67.617188 20.140625 67.441406 20.589844 C 66.738281 22.351562 66.175781 23.558594 65.273438 25.121094 C 64.3125 24.757812 63.226562 25.476562 62.765625 26.390625 C 62.300781 27.308594 62.273438 28.371094 62.132812 29.386719 C 62.011719 30.25 61.800781 31.101562 61.507812 31.921875 C 61.378906 32.28125 61.207031 32.667969 60.859375 32.820312 C 60.523438 32.964844 60.136719 32.847656 59.785156 32.75 C 56.824219 31.949219 53.699219 32.796875 50.753906 33.640625 C 51.699219 32.75 51.976562 31.230469 51.089844 30.214844 Z M 51.089844 30.214844 " fill-opacity="1" fill-rule="nonzero"/><g clip-path="url(#eb8c93311a)"><path fill="#703627" d="M 66.136719 42.761719 C 65.902344 42.761719 65.671875 42.761719 65.445312 42.757812 L 65.328125 42.757812 C 61.664062 42.730469 58.105469 42.722656 54.621094 42.71875 C 41.820312 42.691406 29.734375 42.667969 17.121094 41.636719 C 16.871094 41.617188 16.683594 41.398438 16.707031 41.148438 C 16.726562 40.898438 16.945312 40.707031 17.195312 40.734375 C 29.773438 41.761719 41.84375 41.785156 54.621094 41.808594 C 58.109375 41.816406 61.671875 41.820312 65.335938 41.847656 L 65.453125 41.851562 C 67.210938 41.863281 69.03125 41.875 70.585938 41.050781 C 72.042969 40.28125 73.410156 38.367188 73.078125 36.339844 C 72.703125 34.035156 70.390625 32.863281 68.296875 32.917969 C 67.417969 32.9375 66.507812 33.097656 65.628906 33.25 C 64.3125 33.480469 62.949219 33.71875 61.574219 33.519531 C 60.933594 33.429688 60.3125 33.242188 59.710938 33.066406 C 59.074219 32.875 58.472656 32.699219 57.859375 32.621094 C 56.179688 32.417969 54.9375 32.859375 53.621094 33.332031 C 52.535156 33.71875 51.410156 34.121094 49.953125 34.222656 C 49.703125 34.242188 49.484375 34.050781 49.46875 33.800781 C 49.449219 33.550781 49.640625 33.335938 49.890625 33.316406 C 51.222656 33.226562 52.285156 32.84375 53.316406 32.476562 C 54.671875 31.992188 56.074219 31.488281 57.972656 31.722656 C 58.660156 31.804688 59.328125 32.003906 59.96875 32.195312 C 60.566406 32.371094 61.128906 32.539062 61.703125 32.621094 C 62.933594 32.796875 64.167969 32.582031 65.472656 32.355469 C 66.382812 32.195312 67.328125 32.03125 68.277344 32.011719 C 70.761719 31.960938 73.519531 33.378906 73.980469 36.195312 C 74.378906 38.640625 72.75 40.9375 71.011719 41.855469 C 69.46875 42.671875 67.789062 42.761719 66.136719 42.761719 Z M 66.136719 42.761719 " fill-opacity="1" fill-rule="nonzero"/></g><path fill="#703627" d="M 31.847656 34.015625 C 29.257812 34.015625 27.121094 33.609375 26.300781 32.847656 C 26.117188 32.679688 26.105469 32.390625 26.277344 32.207031 C 26.449219 32.023438 26.738281 32.011719 26.921875 32.183594 C 27.945312 33.136719 32.742188 33.496094 37.390625 32.53125 C 37.605469 32.484375 37.820312 32.4375 38.035156 32.390625 C 39.023438 32.175781 40.046875 31.945312 40.957031 31.964844 C 41.207031 31.964844 41.410156 32.171875 41.40625 32.421875 C 41.40625 32.671875 41.207031 32.875 40.949219 32.871094 C 40.140625 32.855469 39.167969 33.074219 38.230469 33.28125 C 38.011719 33.328125 37.792969 33.375 37.574219 33.417969 C 35.644531 33.820312 33.636719 34.015625 31.847656 34.015625 Z M 31.847656 34.015625 " fill-opacity="1" fill-rule="nonzero"/><path fill="#703627" d="M 72.242188 34.339844 C 72.226562 34.339844 72.207031 34.339844 72.191406 34.335938 C 71.941406 34.308594 71.761719 34.082031 71.789062 33.835938 C 72.789062 24.929688 69.09375 15.757812 61.898438 9.300781 C 61.710938 9.132812 61.695312 8.84375 61.863281 8.660156 C 62.03125 8.472656 62.320312 8.457031 62.507812 8.625 C 69.921875 15.277344 73.726562 24.738281 72.695312 33.933594 C 72.667969 34.167969 72.472656 34.339844 72.242188 34.339844 Z M 72.242188 34.339844 " fill-opacity="1" fill-rule="nonzero"/><path fill="#703627" d="M 26.203125 17.261719 C 26.164062 17.261719 26.125 17.257812 26.085938 17.246094 C 25.84375 17.183594 25.699219 16.9375 25.761719 16.691406 C 27.113281 11.503906 29.347656 7.34375 32.226562 4.664062 C 35.394531 1.722656 42.960938 0.539062 46.953125 2.363281 C 47.179688 2.46875 47.28125 2.738281 47.175781 2.964844 C 47.070312 3.195312 46.800781 3.292969 46.574219 3.191406 C 42.921875 1.519531 35.742188 2.640625 32.847656 5.332031 C 30.097656 7.890625 27.949219 11.898438 26.644531 16.921875 C 26.589844 17.125 26.40625 17.261719 26.203125 17.261719 Z M 26.203125 17.261719 " fill-opacity="1" fill-rule="nonzero"/><g clip-path="url(#a18ec67418)"><path fill="#703627" d="M 14.320312 42.0625 C 12.28125 42.0625 10.292969 41.5 8.363281 40.953125 C 6.980469 40.5625 5.554688 40.15625 4.253906 39.316406 C 2.765625 38.351562 1.734375 36.953125 1.355469 35.375 C 0.625 32.351562 2.34375 29.375 4.195312 27.597656 C 5.636719 26.214844 7.296875 25.199219 8.902344 24.214844 C 10.359375 23.324219 11.867188 22.402344 13.167969 21.21875 C 15.128906 19.441406 16.679688 17.035156 18.179688 14.710938 C 18.910156 13.574219 19.667969 12.398438 20.46875 11.296875 C 22.917969 7.941406 26.507812 4.136719 32.570312 4.542969 C 32.820312 4.5625 33.011719 4.777344 32.992188 5.027344 C 32.976562 5.277344 32.757812 5.472656 32.507812 5.453125 C 26.921875 5.078125 23.660156 8.464844 21.203125 11.832031 C 20.417969 12.910156 19.667969 14.074219 18.945312 15.199219 C 17.414062 17.574219 15.832031 20.03125 13.78125 21.890625 C 12.414062 23.132812 10.871094 24.078125 9.375 24.992188 C 7.8125 25.945312 6.195312 26.9375 4.824219 28.25 C 3.234375 29.78125 1.601562 32.507812 2.242188 35.164062 C 2.679688 36.984375 4 38.066406 4.75 38.554688 C 5.933594 39.320312 7.296875 39.707031 8.613281 40.078125 C 10.777344 40.691406 13.015625 41.328125 15.238281 41.113281 C 20.792969 40.570312 24.734375 34.949219 26.589844 31.644531 C 27.90625 29.296875 28.863281 27.324219 29.785156 25.417969 C 30.761719 23.398438 31.773438 21.3125 33.203125 18.804688 C 33.328125 18.585938 33.609375 18.511719 33.824219 18.636719 C 34.042969 18.761719 34.121094 19.039062 33.996094 19.257812 C 32.578125 21.734375 31.574219 23.808594 30.605469 25.8125 C 29.675781 27.734375 28.714844 29.714844 27.382812 32.089844 C 25.441406 35.546875 21.292969 41.4375 15.324219 42.015625 C 14.988281 42.046875 14.65625 42.0625 14.320312 42.0625 Z M 14.320312 42.0625 " fill-opacity="1" fill-rule="nonzero"/></g><path fill="#703627" d="M 51.089844 30.671875 C 51.015625 30.671875 50.941406 30.652344 50.871094 30.613281 C 50.652344 30.492188 50.570312 30.21875 50.691406 29.996094 L 50.925781 29.570312 C 52.839844 26.101562 54.21875 23.59375 56.523438 18.636719 C 56.761719 18.128906 57.292969 17.824219 57.847656 17.878906 C 61.359375 18.222656 65.050781 18.800781 66.9375 19.117188 C 67.300781 19.175781 67.613281 19.394531 67.792969 19.714844 C 67.972656 20.035156 68 20.414062 67.863281 20.757812 C 67.117188 22.625 66.539062 23.84375 65.726562 25.242188 C 65.601562 25.460938 65.324219 25.535156 65.105469 25.40625 C 64.886719 25.28125 64.8125 25.003906 64.9375 24.789062 C 65.734375 23.410156 66.277344 22.269531 67.015625 20.421875 C 67.0625 20.304688 67.027344 20.207031 67 20.160156 C 66.972656 20.113281 66.910156 20.03125 66.789062 20.011719 C 64.910156 19.699219 61.242188 19.125 57.757812 18.78125 C 57.589844 18.765625 57.425781 18.863281 57.351562 19.019531 C 55.03125 24.003906 53.644531 26.523438 51.726562 30.007812 L 51.488281 30.433594 C 51.40625 30.585938 51.25 30.671875 51.089844 30.671875 Z M 51.089844 30.671875 " fill-opacity="1" fill-rule="nonzero"/><path fill="#7a726c" d="M 58.054688 23.605469 C 58.304688 23.269531 58.714844 23.070312 59.148438 23.164062 C 59.625 23.269531 59.953125 23.6875 59.964844 24.15625 C 59.964844 24.1875 60.007812 24.199219 60.023438 24.171875 C 60.230469 23.75 60.707031 23.507812 61.183594 23.613281 C 61.605469 23.707031 61.941406 24.039062 61.984375 24.441406 C 62.03125 24.867188 61.882812 25.230469 61.789062 25.40625 C 61.253906 26.421875 59.832031 26.917969 59.449219 27.039062 C 59.386719 27.054688 59.324219 27.042969 59.277344 27 C 58.988281 26.726562 57.933594 25.664062 57.839844 24.59375 C 57.824219 24.414062 57.800781 23.941406 58.054688 23.605469 Z M 58.054688 23.605469 " fill-opacity="1" fill-rule="nonzero"/><path fill="#dda783" d="M 42.429688 33.441406 C 44.03125 34.183594 45.839844 34.363281 47.605469 34.351562 C 48.347656 34.347656 49.101562 34.308594 49.792969 34.050781 C 50.414062 33.820312 50.96875 33.414062 51.351562 32.878906 C 51.652344 32.453125 51.84375 31.929688 51.769531 31.414062 C 51.699219 30.914062 51.390625 30.480469 51.066406 30.09375 C 49.910156 28.707031 48.34375 27.5625 46.546875 27.355469 C 46.363281 27.335938 46.164062 27.324219 46 27.414062 C 45.839844 27.496094 45.738281 27.652344 45.644531 27.804688 C 45.195312 28.535156 44.804688 29.300781 44.417969 30.0625 C 43.855469 31.167969 43.292969 32.269531 42.429688 33.441406 Z M 42.429688 33.441406 " fill-opacity="1" fill-rule="nonzero"/><path fill="#b37164" d="M 49.699219 28.585938 C 48.085938 29.996094 47.34375 32.324219 47.839844 34.40625 C 48.769531 34.609375 49.789062 34.449219 50.5625 33.894531 C 51.335938 33.339844 51.824219 32.378906 51.726562 31.433594 C 51.664062 30.804688 51.359375 30.21875 50.960938 29.726562 C 50.5625 29.234375 50.078125 28.820312 49.699219 28.585938 Z M 49.699219 28.585938 " fill-opacity="1" fill-rule="nonzero"/><path fill="#703627" d="M 47.792969 34.988281 C 45.667969 34.988281 42.21875 34.460938 39.613281 31.859375 C 39.4375 31.679688 39.4375 31.394531 39.613281 31.214844 C 39.792969 31.039062 40.082031 31.039062 40.257812 31.214844 C 43.640625 34.59375 48.539062 34.171875 49.359375 33.945312 C 50.175781 33.726562 50.8125 33.265625 51.109375 32.683594 C 51.65625 31.609375 51.039062 30.253906 50.179688 29.519531 C 49.183594 28.667969 47.796875 28.296875 46.570312 27.96875 C 46.328125 27.902344 46.183594 27.652344 46.25 27.410156 C 46.316406 27.167969 46.5625 27.027344 46.808594 27.089844 C 48.125 27.445312 49.617188 27.84375 50.773438 28.832031 C 51.925781 29.8125 52.6875 31.59375 51.921875 33.09375 C 51.507812 33.90625 50.660156 34.535156 49.601562 34.824219 C 49.332031 34.898438 48.675781 34.988281 47.792969 34.988281 Z M 47.792969 34.988281 " fill-opacity="1" fill-rule="nonzero"/><path fill="#b37164" d="M 62.066406 30.089844 C 62.226562 29.886719 62.3125 29.632812 62.316406 29.371094 C 62.324219 28.625 62.363281 27.871094 62.613281 27.167969 C 62.914062 26.328125 63.574219 25.558594 64.445312 25.382812 C 65.199219 25.230469 65.996094 25.542969 66.542969 26.078125 C 67.089844 26.613281 67.40625 27.34375 67.574219 28.09375 C 67.839844 29.292969 67.722656 30.59375 67.132812 31.671875 C 66.542969 32.75 65.453125 33.570312 64.230469 33.722656 C 63.3125 33.839844 62.300781 33.535156 61.753906 32.789062 C 61.257812 32.109375 61.285156 31.054688 62.066406 30.089844 Z M 62.066406 30.089844 " fill-opacity="1" fill-rule="nonzero"/><path fill="#dda783" d="M 65.867188 25.574219 C 65.230469 26.707031 64.960938 28.023438 64.90625 29.324219 C 64.855469 30.625 65.003906 31.925781 65.15625 33.21875 C 66.546875 32.546875 67.542969 31.128906 67.703125 29.59375 C 67.859375 28.0625 67.175781 26.46875 65.867188 25.574219 Z M 65.867188 25.574219 " fill-opacity="1" fill-rule="nonzero"/><path fill="#703627" d="M 63.847656 34.203125 C 62.847656 34.203125 61.914062 33.777344 61.386719 33.058594 C 60.722656 32.152344 60.851562 30.875 61.710938 29.804688 C 61.804688 29.6875 61.859375 29.53125 61.859375 29.367188 C 61.867188 28.601562 61.910156 27.785156 62.1875 27.015625 C 62.574219 25.925781 63.40625 25.128906 64.355469 24.9375 C 65.210938 24.765625 66.167969 25.078125 66.859375 25.753906 C 67.421875 26.304688 67.808594 27.054688 68.019531 27.992188 C 68.324219 29.375 68.152344 30.757812 67.53125 31.890625 C 66.851562 33.132812 65.605469 34.011719 64.289062 34.175781 C 64.140625 34.195312 63.992188 34.203125 63.847656 34.203125 Z M 64.835938 25.796875 C 64.734375 25.796875 64.636719 25.808594 64.539062 25.828125 C 63.773438 25.984375 63.265625 26.699219 63.042969 27.320312 C 62.816406 27.964844 62.777344 28.6875 62.773438 29.375 C 62.769531 29.742188 62.644531 30.097656 62.417969 30.375 C 61.824219 31.113281 61.707031 31.957031 62.125 32.523438 C 62.535156 33.082031 63.339844 33.378906 64.175781 33.273438 C 65.207031 33.144531 66.1875 32.445312 66.734375 31.453125 C 67.238281 30.527344 67.382812 29.339844 67.128906 28.191406 C 66.960938 27.4375 66.648438 26.820312 66.222656 26.402344 C 65.828125 26.015625 65.320312 25.796875 64.835938 25.796875 Z M 64.835938 25.796875 " fill-opacity="1" fill-rule="nonzero"/><path fill="#6f3526" d="M 34.929688 24.609375 C 34.796875 24.609375 34.667969 24.554688 34.578125 24.445312 C 33.8125 23.523438 33.304688 22.53125 33.070312 21.496094 C 32.648438 19.640625 33.421875 17.976562 34.175781 16.371094 C 34.453125 15.769531 34.742188 15.152344 34.964844 14.53125 C 36.429688 10.449219 37.316406 8.207031 39.871094 5.84375 C 44.871094 1.226562 54.15625 0.00390625 60.4375 6.082031 C 62.9375 8.503906 63.769531 10.765625 65.140625 14.882812 L 65.367188 15.554688 C 65.773438 16.757812 66.195312 17.996094 66.390625 19.253906 C 66.429688 19.5 66.257812 19.734375 66.007812 19.773438 C 65.761719 19.808594 65.527344 19.640625 65.488281 19.390625 C 65.308594 18.214844 64.898438 17.011719 64.503906 15.847656 L 64.273438 15.167969 C 62.914062 11.082031 62.15625 9.015625 59.800781 6.734375 C 53.902344 1.027344 45.1875 2.171875 40.492188 6.511719 C 38.085938 8.734375 37.277344 10.78125 35.824219 14.835938 C 35.585938 15.496094 35.289062 16.136719 35 16.753906 C 34.28125 18.289062 33.605469 19.742188 33.957031 21.292969 C 34.160156 22.191406 34.605469 23.054688 35.277344 23.867188 C 35.4375 24.058594 35.410156 24.347656 35.21875 24.507812 C 35.132812 24.578125 35.03125 24.609375 34.929688 24.609375 Z M 34.929688 24.609375 " fill-opacity="1" fill-rule="nonzero"/><path fill="#dda783" d="M 42.273438 8.886719 C 41.902344 7.851562 41.285156 6.886719 40.410156 6.222656 C 39.539062 5.554688 38.394531 5.207031 37.3125 5.398438 C 36.230469 5.589844 35.238281 6.367188 34.90625 7.414062 C 34.605469 8.367188 34.863281 9.445312 35.445312 10.261719 C 36.023438 11.078125 36.894531 11.65625 37.820312 12.042969 C 38.472656 12.316406 39.1875 12.507812 39.882812 12.375 C 40.613281 12.234375 41.25 11.738281 41.640625 11.105469 C 42.027344 10.476562 42.554688 9.675781 42.273438 8.886719 Z M 42.273438 8.886719 " fill-opacity="1" fill-rule="nonzero"/><path fill="#703627" d="M 39.277344 12.648438 C 39.253906 12.648438 39.230469 12.648438 39.207031 12.644531 C 37.726562 12.410156 36.546875 11.910156 35.691406 11.15625 C 34.59375 10.1875 34.066406 8.75 34.351562 7.492188 C 34.628906 6.273438 35.683594 5.242188 36.976562 4.925781 C 38.144531 4.640625 39.476562 4.921875 40.539062 5.679688 C 41.464844 6.34375 42.210938 7.378906 42.628906 8.589844 C 42.710938 8.828125 42.585938 9.085938 42.347656 9.167969 C 42.109375 9.25 41.851562 9.125 41.769531 8.886719 C 41.410156 7.851562 40.785156 6.972656 40.007812 6.417969 C 39.160156 5.8125 38.105469 5.582031 37.191406 5.808594 C 36.226562 6.042969 35.441406 6.800781 35.238281 7.695312 C 35.027344 8.632812 35.441406 9.722656 36.292969 10.476562 C 37.015625 11.113281 38.042969 11.539062 39.347656 11.746094 C 39.597656 11.785156 39.765625 12.019531 39.726562 12.265625 C 39.691406 12.488281 39.5 12.648438 39.277344 12.648438 Z M 39.277344 12.648438 " fill-opacity="1" fill-rule="nonzero"/><path fill="#703627" d="M 40.6875 10 C 40.503906 10 40.328125 9.886719 40.261719 9.703125 C 39.808594 8.464844 38.519531 7.5625 37.199219 7.589844 C 36.949219 7.585938 36.742188 7.390625 36.742188 7.140625 C 36.738281 6.886719 36.941406 6.683594 37.191406 6.679688 C 38.886719 6.683594 40.535156 7.800781 41.117188 9.390625 C 41.203125 9.625 41.082031 9.886719 40.84375 9.972656 C 40.792969 9.992188 40.738281 10 40.6875 10 Z M 40.6875 10 " fill-opacity="1" fill-rule="nonzero"/><path fill="#c58d72" d="M 50.585938 7.015625 C 50.460938 7.015625 50.332031 6.964844 50.242188 6.859375 C 49.589844 6.109375 48.855469 5.425781 48.054688 4.835938 C 47.851562 4.6875 47.808594 4.402344 47.957031 4.199219 C 48.105469 4 48.390625 3.957031 48.59375 4.105469 C 49.449219 4.734375 50.238281 5.464844 50.933594 6.265625 C 51.097656 6.457031 51.074219 6.742188 50.886719 6.90625 C 50.800781 6.980469 50.691406 7.015625 50.585938 7.015625 Z M 50.585938 7.015625 " fill-opacity="1" fill-rule="nonzero"/><path fill="#c58d72" d="M 55.164062 6.730469 C 55.066406 6.730469 54.964844 6.699219 54.878906 6.628906 L 53.234375 5.292969 C 53.039062 5.136719 53.011719 4.847656 53.167969 4.65625 C 53.328125 4.460938 53.613281 4.429688 53.808594 4.589844 L 55.453125 5.925781 C 55.648438 6.082031 55.679688 6.367188 55.519531 6.5625 C 55.429688 6.675781 55.296875 6.730469 55.164062 6.730469 Z M 55.164062 6.730469 " fill-opacity="1" fill-rule="nonzero"/><path fill="#c58d72" d="M 54.777344 10.28125 C 54.648438 10.28125 54.515625 10.222656 54.425781 10.113281 L 53.277344 8.730469 C 53.117188 8.535156 53.144531 8.25 53.339844 8.089844 C 53.535156 7.929688 53.820312 7.957031 53.980469 8.148438 L 55.128906 9.535156 C 55.289062 9.730469 55.261719 10.015625 55.066406 10.175781 C 54.984375 10.246094 54.878906 10.28125 54.777344 10.28125 Z M 54.777344 10.28125 " fill-opacity="1" fill-rule="nonzero"/><path fill="#c58d72" d="M 59.875 9.679688 C 59.726562 9.679688 59.582031 9.609375 59.496094 9.476562 C 59.113281 8.902344 58.644531 8.398438 58.097656 7.976562 C 57.898438 7.820312 57.863281 7.535156 58.015625 7.339844 C 58.167969 7.140625 58.457031 7.101562 58.65625 7.257812 C 59.28125 7.738281 59.820312 8.316406 60.253906 8.976562 C 60.394531 9.1875 60.335938 9.46875 60.125 9.605469 C 60.046875 9.65625 59.960938 9.679688 59.875 9.679688 Z M 59.875 9.679688 " fill-opacity="1" fill-rule="nonzero"/><path fill="#c58d72" d="M 58.464844 12.066406 C 58.273438 12.066406 58.09375 11.945312 58.03125 11.753906 C 57.8125 11.078125 57.476562 10.453125 57.03125 9.898438 C 56.875 9.699219 56.910156 9.414062 57.105469 9.257812 C 57.300781 9.101562 57.589844 9.136719 57.746094 9.332031 C 58.257812 9.972656 58.644531 10.691406 58.898438 11.472656 C 58.976562 11.710938 58.84375 11.96875 58.605469 12.042969 C 58.558594 12.058594 58.511719 12.066406 58.464844 12.066406 Z M 58.464844 12.066406 " fill-opacity="1" fill-rule="nonzero"/></svg>