<svg xmlns="http://www.w3.org/2000/svg" xmlns:xlink="http://www.w3.org/1999/xlink" width="200" zoomAndPan="magnify" viewBox="0 0 150 112.499997" height="150" preserveAspectRatio="xMidYMid meet" version="1.0"><defs><clipPath id="6f2a86acf5"><path d="M 96 23 L 142.792969 23 L 142.792969 34 L 96 34 Z M 96 23 " clip-rule="nonzero"/></clipPath><clipPath id="76c491cc03"><path d="M 83.058594 1 L 121 1 L 121 34 L 83.058594 34 Z M 83.058594 1 " clip-rule="nonzero"/></clipPath><clipPath id="bfb3aacf3d"><path d="M 96 25 L 142.792969 25 L 142.792969 34.347656 L 96 34.347656 Z M 96 25 " clip-rule="nonzero"/></clipPath><clipPath id="999796fdd1"><path d="M 83.058594 3 L 111 3 L 111 34 L 83.058594 34 Z M 83.058594 3 " clip-rule="nonzero"/></clipPath><clipPath id="2bc2ffd05e"><path d="M 67 32 L 146.679688 32 L 146.679688 100 L 67 100 Z M 67 32 " clip-rule="nonzero"/></clipPath><clipPath id="04f1b6dce0"><path d="M 0.332031 36 L 18 36 L 18 53 L 0.332031 53 Z M 0.332031 36 " clip-rule="nonzero"/></clipPath><clipPath id="cda0ae69b7"><path d="M 9 13.5 L 82 13.5 L 82 68 L 9 68 Z M 9 13.5 " clip-rule="nonzero"/></clipPath><clipPath id="80743dc49c"><path d="M 26 86 L 50 86 L 50 112.003906 L 26 112.003906 Z M 26 86 " clip-rule="nonzero"/></clipPath></defs><path fill="#dda783" d="M 128.90625 3.335938 C 129.316406 2.835938 129.941406 2.519531 130.589844 2.46875 C 131.238281 2.417969 131.902344 2.625 132.414062 3.023438 C 132.949219 3.441406 133.316406 4.078125 133.34375 4.75 C 133.367188 5.421875 133.019531 6.113281 132.425781 6.441406 C 131.347656 5.289062 130.140625 4.257812 128.90625 3.335938 Z M 128.90625 3.335938 " fill-opacity="1" fill-rule="nonzero"/><path fill="#703627" d="M 132.171875 7.078125 C 132.054688 7.078125 131.9375 7.023438 131.863281 6.914062 C 131.753906 6.746094 131.800781 6.519531 131.96875 6.410156 C 132.710938 5.925781 132.980469 5.269531 132.773438 4.460938 C 132.558594 3.628906 131.773438 2.972656 130.910156 2.902344 C 130.144531 2.839844 129.472656 3.183594 128.917969 3.925781 C 128.796875 4.085938 128.566406 4.121094 128.402344 4 C 128.238281 3.878906 128.203125 3.652344 128.324219 3.492188 C 129.03125 2.546875 129.945312 2.09375 130.96875 2.175781 C 132.136719 2.269531 133.195312 3.15625 133.484375 4.277344 C 133.773438 5.390625 133.378906 6.363281 132.375 7.019531 C 132.3125 7.058594 132.242188 7.078125 132.171875 7.078125 Z M 132.171875 7.078125 " fill-opacity="1" fill-rule="nonzero"/><path fill="#dda783" d="M 112.777344 21.074219 C 111.285156 20.164062 110.019531 18.808594 109.644531 17.179688 C 109.210938 15.28125 110.503906 13.625 111.167969 11.789062 C 112.382812 8.441406 113.058594 6.777344 115.046875 4.957031 C 119.039062 1.300781 126.34375 0.484375 131.195312 5.144531 C 133.136719 7.007812 133.777344 8.6875 134.910156 12.0625 C 135.53125 13.914062 136.789062 15.597656 136.308594 17.484375 C 135.894531 19.105469 134.601562 20.433594 133.789062 21.097656 C 127.523438 23.679688 119.589844 25.222656 112.777344 21.074219 Z M 112.777344 21.074219 " fill-opacity="1" fill-rule="nonzero"/><path fill="#bfcef5" d="M 140.1875 17.695312 C 138.925781 13.976562 136.585938 10.617188 133.519531 8.128906 C 134.355469 10.621094 135.203125 13.144531 135.984375 15.84375 C 136.230469 15.8125 136.480469 15.78125 136.71875 15.839844 C 136.957031 15.894531 137.1875 16.058594 137.246094 16.296875 C 137.300781 16.53125 137.183594 16.765625 137.070312 16.976562 C 136.484375 18.066406 135.894531 19.15625 135.308594 20.246094 C 136.117188 20.300781 136.828125 20.886719 137.160156 21.617188 C 137.492188 22.347656 137.492188 23.191406 137.3125 23.972656 C 137.132812 24.753906 136.785156 25.484375 136.4375 26.210938 C 138.125 26.136719 139.996094 26.125 141.265625 27.230469 C 141.308594 24.347656 141.433594 21.363281 140.1875 17.695312 Z M 140.1875 17.695312 " fill-opacity="1" fill-rule="nonzero"/><g clip-path="url(#6f2a86acf5)"><path fill="#8093c2" d="M 96.449219 33.074219 C 109.402344 34.125 121.496094 33.871094 135.46875 33.972656 C 136.96875 33.984375 138.527344 34.011719 139.898438 33.289062 C 141.265625 32.570312 142.394531 30.859375 142.105469 29.125 C 141.765625 27.039062 139.664062 26.03125 137.859375 26.070312 C 136.054688 26.109375 134.269531 26.8125 132.476562 26.558594 C 131.457031 26.410156 130.480469 25.957031 129.460938 25.835938 C 126.886719 25.523438 125.566406 26.941406 122.863281 27 C 121.71875 27.320312 120.5 26.820312 119.53125 26.136719 C 118.5625 25.457031 117.734375 24.582031 116.707031 23.992188 C 114.210938 22.554688 111.089844 23.03125 108.257812 23.566406 C 105.730469 24.042969 103.152344 24.558594 100.945312 25.855469 C 98.734375 27.15625 96.929688 29.414062 96.449219 33.074219 Z M 96.449219 33.074219 " fill-opacity="1" fill-rule="nonzero"/></g><path fill="#dda783" d="M 112.132812 13.105469 C 110.492188 14.222656 109.429688 15.984375 108.472656 17.714844 C 106.933594 20.5 105.527344 23.351562 104.253906 26.261719 C 106.984375 27.21875 110.023438 27.289062 112.796875 26.453125 C 113.3125 26.300781 113.820312 26.113281 114.355469 26.050781 C 114.890625 25.988281 115.464844 26.0625 115.890625 26.386719 C 116.109375 26.550781 116.410156 26.570312 116.621094 26.742188 C 116.828125 26.914062 117.230469 27.15625 117.496094 27.089844 C 117.707031 27.035156 117.613281 26.957031 117.746094 26.785156 C 118.820312 25.398438 120.164062 23.417969 118.929688 22.167969 C 118.402344 21.636719 116.253906 21.09375 115.679688 20.617188 C 114.519531 19.652344 113.8125 18.246094 113.441406 16.792969 C 113.070312 15.339844 113.007812 13.832031 112.132812 13.105469 Z M 112.132812 13.105469 " fill-opacity="1" fill-rule="nonzero"/><g clip-path="url(#76c491cc03)"><path fill="#bfcef5" d="M 99.09375 31.910156 C 97.523438 33.121094 95.488281 33.714844 93.507812 33.539062 C 92.453125 33.449219 91.425781 33.148438 90.410156 32.847656 C 89.246094 32.507812 88.078125 32.164062 86.992188 31.625 C 85.90625 31.089844 84.894531 30.351562 84.222656 29.351562 C 83.425781 27.460938 83.914062 25.304688 85.03125 23.734375 C 86.148438 22.160156 87.796875 21.050781 89.421875 19.996094 C 90.800781 19.101562 92.199219 18.21875 93.453125 17.152344 C 94.710938 16.089844 95.828125 14.832031 96.523438 13.351562 C 98.023438 10.980469 99.445312 8.632812 101.445312 6.8125 C 103.445312 4.992188 106.136719 3.738281 108.835938 4.035156 C 111.960938 1.582031 116.398438 0.921875 120.300781 2.253906 C 117.773438 2.722656 115.445312 4.15625 113.90625 6.191406 C 112.761719 7.699219 112.0625 9.484375 111.328125 11.222656 C 109.332031 15.9375 106.972656 20.492188 104.625 25.089844 C 103.445312 27.722656 101.519531 30.042969 99.09375 31.910156 Z M 99.09375 31.910156 " fill-opacity="1" fill-rule="nonzero"/></g><path fill="#b27966" d="M 127.933594 15.5625 C 127.101562 15.539062 126.253906 15.574219 125.453125 15.804688 C 124.652344 16.03125 123.894531 16.46875 123.398438 17.132812 C 122.824219 17.902344 122.652344 18.890625 122.574219 19.839844 C 122.492188 20.867188 122.503906 21.90625 122.675781 22.921875 C 122.773438 23.511719 122.9375 24.109375 123.328125 24.566406 C 123.976562 25.320312 125.0625 25.496094 126.054688 25.621094 C 127.003906 25.742188 127.964844 25.859375 128.914062 25.738281 C 129.859375 25.621094 130.8125 25.230469 131.410156 24.492188 C 131.824219 23.984375 132.042969 23.34375 132.171875 22.707031 C 132.441406 21.34375 132.324219 19.929688 132.050781 18.566406 C 131.910156 17.882812 131.71875 17.171875 131.242188 16.65625 C 130.539062 15.898438 129.421875 15.605469 127.933594 15.5625 Z M 127.933594 15.5625 " fill-opacity="1" fill-rule="nonzero"/><path fill="#703627" d="M 129.253906 17.761719 C 129.089844 17.96875 128.996094 18.234375 128.996094 18.503906 C 128.996094 18.613281 129.023438 18.742188 129.125 18.785156 C 129.222656 18.828125 129.332031 18.765625 129.421875 18.707031 C 129.613281 18.578125 129.808594 18.449219 129.957031 18.273438 C 130.09375 18.109375 130.1875 17.871094 130.085938 17.683594 C 130.011719 17.539062 129.835938 17.464844 129.671875 17.480469 C 129.507812 17.5 129.375 17.609375 129.253906 17.761719 Z M 129.253906 17.761719 " fill-opacity="1" fill-rule="nonzero"/><path fill="#703627" d="M 125.921875 17.777344 C 126.089844 17.988281 126.1875 18.25 126.1875 18.519531 C 126.191406 18.628906 126.164062 18.757812 126.0625 18.800781 C 125.964844 18.84375 125.851562 18.785156 125.761719 18.726562 C 125.570312 18.601562 125.375 18.472656 125.222656 18.296875 C 125.085938 18.136719 124.988281 17.898438 125.085938 17.710938 C 125.164062 17.566406 125.339844 17.488281 125.5 17.503906 C 125.664062 17.519531 125.800781 17.628906 125.921875 17.777344 Z M 125.921875 17.777344 " fill-opacity="1" fill-rule="nonzero"/><path fill="#703627" d="M 128.761719 23.78125 C 128.230469 23.78125 127.703125 23.441406 127.398438 22.890625 L 127.367188 22.832031 L 127.359375 22.34375 C 127.351562 21.523438 127.34375 20.703125 127.328125 19.976562 C 127.324219 19.824219 127.445312 19.699219 127.597656 19.695312 C 127.746094 19.699219 127.878906 19.8125 127.878906 19.964844 C 127.894531 20.695312 127.90625 21.515625 127.914062 22.339844 L 127.917969 22.6875 C 128.136719 23.042969 128.496094 23.261719 128.820312 23.230469 C 129.167969 23.203125 129.5 22.898438 129.652344 22.472656 C 129.703125 22.332031 129.859375 22.257812 130.003906 22.304688 C 130.148438 22.355469 130.222656 22.511719 130.171875 22.65625 C 129.949219 23.289062 129.4375 23.726562 128.871094 23.777344 C 128.835938 23.78125 128.796875 23.78125 128.761719 23.78125 Z M 128.761719 23.78125 " fill-opacity="1" fill-rule="nonzero"/><path fill="#703627" d="M 126.554688 23.695312 C 126.488281 23.695312 126.417969 23.691406 126.347656 23.679688 C 125.792969 23.589844 125.285156 23.117188 125.054688 22.476562 C 125.003906 22.335938 125.082031 22.179688 125.226562 22.128906 C 125.367188 22.078125 125.527344 22.152344 125.578125 22.296875 C 125.738281 22.742188 126.082031 23.082031 126.4375 23.140625 C 126.78125 23.195312 127.140625 22.996094 127.347656 22.625 C 127.421875 22.492188 127.589844 22.445312 127.726562 22.519531 C 127.859375 22.59375 127.90625 22.761719 127.832031 22.894531 C 127.546875 23.398438 127.058594 23.695312 126.554688 23.695312 Z M 126.554688 23.695312 " fill-opacity="1" fill-rule="nonzero"/><path fill="#fcc3b2" d="M 118.152344 18.59375 C 118.152344 18.734375 118.125 18.867188 118.070312 18.996094 C 118.015625 19.125 117.941406 19.238281 117.839844 19.335938 C 117.742188 19.433594 117.625 19.511719 117.496094 19.5625 C 117.367188 19.617188 117.230469 19.644531 117.089844 19.644531 C 116.949219 19.644531 116.816406 19.617188 116.683594 19.5625 C 116.554688 19.511719 116.441406 19.433594 116.339844 19.335938 C 116.242188 19.238281 116.164062 19.125 116.109375 18.996094 C 116.058594 18.867188 116.03125 18.734375 116.03125 18.59375 C 116.03125 18.453125 116.058594 18.320312 116.109375 18.191406 C 116.164062 18.0625 116.242188 17.949219 116.339844 17.851562 C 116.441406 17.753906 116.554688 17.679688 116.683594 17.625 C 116.816406 17.570312 116.949219 17.546875 117.089844 17.546875 C 117.230469 17.546875 117.367188 17.570312 117.496094 17.625 C 117.625 17.679688 117.742188 17.753906 117.839844 17.851562 C 117.941406 17.949219 118.015625 18.0625 118.070312 18.191406 C 118.125 18.320312 118.152344 18.453125 118.152344 18.59375 Z M 118.152344 18.59375 " fill-opacity="1" fill-rule="nonzero"/><path fill="#703627" d="M 119.742188 15.992188 C 119.328125 16.207031 118.894531 16.445312 118.675781 16.851562 C 118.601562 16.992188 118.554688 17.164062 118.621094 17.3125 C 118.691406 17.464844 118.867188 17.550781 119.035156 17.5625 C 119.203125 17.570312 119.371094 17.519531 119.53125 17.464844 C 119.882812 17.347656 120.226562 17.21875 120.558594 17.050781 C 120.746094 16.953125 120.9375 16.839844 121.066406 16.671875 C 121.195312 16.503906 121.257812 16.269531 121.171875 16.078125 C 121.078125 15.863281 120.832031 15.75 120.597656 15.742188 C 120.363281 15.734375 120.125 15.792969 119.742188 15.992188 Z M 119.742188 15.992188 " fill-opacity="1" fill-rule="nonzero"/><path fill="#928c88" d="M 123.933594 24.265625 C 125.574219 21.304688 126.71875 19.273438 128.667969 15.117188 C 128.792969 14.851562 129.074219 14.691406 129.367188 14.71875 C 131.878906 14.964844 134.625 15.367188 136.707031 15.707031 C 137.09375 15.773438 137.320312 16.171875 137.175781 16.53125 C 136.605469 17.945312 136.152344 18.917969 135.417969 20.171875 C 134.640625 19.882812 133.761719 20.457031 133.386719 21.191406 C 133.011719 21.929688 132.988281 22.78125 132.875 23.597656 C 132.777344 24.292969 132.609375 24.976562 132.371094 25.636719 C 132.265625 25.921875 132.125 26.230469 131.84375 26.355469 C 131.570312 26.472656 131.261719 26.378906 130.972656 26.300781 C 128.578125 25.65625 126.046875 26.335938 123.660156 27.015625 C 124.425781 26.300781 124.652344 25.078125 123.933594 24.265625 Z M 123.933594 24.265625 " fill-opacity="1" fill-rule="nonzero"/><g clip-path="url(#bfb3aacf3d)"><path fill="#703627" d="M 136.117188 34.339844 C 135.929688 34.339844 135.746094 34.339844 135.558594 34.335938 L 135.464844 34.335938 C 132.496094 34.316406 129.617188 34.308594 126.792969 34.304688 C 116.425781 34.285156 106.636719 34.265625 96.417969 33.4375 C 96.21875 33.421875 96.066406 33.246094 96.082031 33.042969 C 96.097656 32.84375 96.277344 32.691406 96.480469 32.710938 C 106.664062 33.535156 116.441406 33.554688 126.792969 33.574219 C 129.617188 33.582031 132.503906 33.585938 135.472656 33.605469 L 135.5625 33.609375 C 136.988281 33.617188 138.464844 33.628906 139.722656 32.96875 C 140.902344 32.347656 142.011719 30.8125 141.742188 29.183594 C 141.4375 27.332031 139.5625 26.390625 137.867188 26.433594 C 137.15625 26.449219 136.421875 26.578125 135.707031 26.699219 C 134.640625 26.886719 133.539062 27.078125 132.421875 26.917969 C 131.90625 26.84375 131.402344 26.695312 130.914062 26.550781 C 130.398438 26.402344 129.914062 26.257812 129.417969 26.195312 C 128.054688 26.03125 127.046875 26.386719 125.984375 26.765625 C 125.101562 27.078125 124.191406 27.402344 123.011719 27.484375 C 122.808594 27.496094 122.632812 27.34375 122.617188 27.144531 C 122.605469 26.941406 122.757812 26.769531 122.960938 26.753906 C 124.039062 26.679688 124.898438 26.375 125.734375 26.078125 C 126.832031 25.6875 127.972656 25.285156 129.507812 25.472656 C 130.0625 25.539062 130.605469 25.699219 131.125 25.851562 C 131.609375 25.996094 132.0625 26.128906 132.527344 26.195312 C 133.527344 26.339844 134.523438 26.164062 135.582031 25.980469 C 136.320312 25.855469 137.085938 25.722656 137.851562 25.703125 C 139.867188 25.667969 142.097656 26.804688 142.472656 29.066406 C 142.792969 31.03125 141.476562 32.875 140.070312 33.613281 C 138.820312 34.269531 137.457031 34.339844 136.117188 34.339844 Z M 136.117188 34.339844 " fill-opacity="1" fill-rule="nonzero"/></g><path fill="#703627" d="M 108.347656 27.316406 C 106.25 27.316406 104.519531 26.992188 103.855469 26.378906 C 103.703125 26.242188 103.695312 26.011719 103.835938 25.863281 C 103.972656 25.714844 104.207031 25.707031 104.355469 25.84375 C 105.1875 26.609375 109.070312 26.898438 112.835938 26.121094 C 113.007812 26.085938 113.183594 26.050781 113.359375 26.011719 C 114.160156 25.839844 114.988281 25.652344 115.726562 25.667969 C 115.929688 25.667969 116.09375 25.835938 116.089844 26.035156 C 116.089844 26.238281 115.929688 26.398438 115.71875 26.398438 C 115.066406 26.382812 114.277344 26.5625 113.515625 26.726562 C 113.339844 26.761719 113.164062 26.800781 112.988281 26.835938 C 111.421875 27.160156 109.796875 27.316406 108.347656 27.316406 Z M 108.347656 27.316406 " fill-opacity="1" fill-rule="nonzero"/><path fill="#703627" d="M 141.066406 27.574219 C 141.050781 27.574219 141.039062 27.574219 141.023438 27.574219 C 140.820312 27.550781 140.675781 27.371094 140.699219 27.171875 C 141.507812 20.019531 138.515625 12.652344 132.6875 7.464844 C 132.535156 7.332031 132.523438 7.101562 132.660156 6.949219 C 132.796875 6.800781 133.027344 6.789062 133.179688 6.921875 C 139.183594 12.265625 142.269531 19.867188 141.429688 27.25 C 141.410156 27.4375 141.25 27.574219 141.066406 27.574219 Z M 141.066406 27.574219 " fill-opacity="1" fill-rule="nonzero"/><path fill="#703627" d="M 103.773438 13.859375 C 103.742188 13.859375 103.710938 13.855469 103.679688 13.847656 C 103.484375 13.796875 103.367188 13.597656 103.417969 13.402344 C 104.511719 9.234375 106.324219 5.894531 108.65625 3.742188 C 111.21875 1.378906 117.347656 0.429688 120.582031 1.894531 C 120.765625 1.980469 120.847656 2.195312 120.761719 2.378906 C 120.679688 2.5625 120.457031 2.644531 120.273438 2.558594 C 117.316406 1.21875 111.5 2.117188 109.15625 4.277344 C 106.929688 6.335938 105.191406 9.554688 104.132812 13.585938 C 104.089844 13.75 103.9375 13.859375 103.773438 13.859375 Z M 103.773438 13.859375 " fill-opacity="1" fill-rule="nonzero"/><g clip-path="url(#999796fdd1)"><path fill="#703627" d="M 94.152344 33.78125 C 92.5 33.78125 90.890625 33.328125 89.324219 32.886719 C 88.207031 32.574219 87.050781 32.246094 86 31.574219 C 84.789062 30.796875 83.957031 29.675781 83.648438 28.40625 C 83.058594 25.976562 84.449219 23.585938 85.949219 22.160156 C 87.117188 21.050781 88.460938 20.234375 89.761719 19.445312 C 90.941406 18.730469 92.160156 17.988281 93.21875 17.039062 C 94.804688 15.609375 96.0625 13.679688 97.273438 11.808594 C 97.867188 10.898438 98.480469 9.953125 99.128906 9.070312 C 101.113281 6.371094 104.019531 3.316406 108.929688 3.644531 C 109.132812 3.660156 109.289062 3.832031 109.273438 4.035156 C 109.261719 4.234375 109.085938 4.390625 108.882812 4.375 C 104.355469 4.074219 101.714844 6.796875 99.726562 9.5 C 99.089844 10.367188 98.484375 11.300781 97.894531 12.203125 C 96.65625 14.113281 95.375 16.085938 93.714844 17.578125 C 92.605469 18.574219 91.355469 19.332031 90.144531 20.066406 C 88.878906 20.835938 87.570312 21.628906 86.460938 22.6875 C 85.171875 23.914062 83.847656 26.105469 84.367188 28.238281 C 84.722656 29.699219 85.792969 30.570312 86.398438 30.960938 C 87.359375 31.574219 88.460938 31.886719 89.527344 32.183594 C 91.28125 32.679688 93.09375 33.1875 94.894531 33.015625 C 99.394531 32.582031 102.585938 28.066406 104.085938 25.414062 C 105.15625 23.527344 105.929688 21.941406 106.675781 20.410156 C 107.46875 18.789062 108.285156 17.113281 109.445312 15.101562 C 109.546875 14.925781 109.773438 14.863281 109.949219 14.964844 C 110.125 15.0625 110.1875 15.285156 110.085938 15.460938 C 108.941406 17.453125 108.125 19.117188 107.339844 20.730469 C 106.585938 22.269531 105.808594 23.863281 104.730469 25.769531 C 103.160156 28.546875 99.800781 33.277344 94.964844 33.742188 C 94.691406 33.765625 94.421875 33.78125 94.152344 33.78125 Z M 94.152344 33.78125 " fill-opacity="1" fill-rule="nonzero"/></g><path fill="#703627" d="M 123.933594 24.628906 C 123.871094 24.628906 123.8125 24.613281 123.753906 24.585938 C 123.578125 24.488281 123.511719 24.265625 123.609375 24.089844 L 123.800781 23.746094 C 125.347656 20.957031 126.46875 18.945312 128.335938 14.964844 C 128.527344 14.558594 128.957031 14.3125 129.40625 14.355469 C 132.25 14.632812 135.238281 15.097656 136.769531 15.347656 C 137.0625 15.398438 137.3125 15.570312 137.460938 15.828125 C 137.605469 16.085938 137.628906 16.390625 137.515625 16.667969 C 136.914062 18.167969 136.445312 19.144531 135.789062 20.269531 C 135.683594 20.445312 135.460938 20.503906 135.285156 20.402344 C 135.105469 20.300781 135.046875 20.078125 135.148438 19.902344 C 135.792969 18.800781 136.234375 17.882812 136.832031 16.398438 C 136.871094 16.300781 136.839844 16.226562 136.816406 16.1875 C 136.796875 16.148438 136.746094 16.085938 136.648438 16.070312 C 135.128906 15.816406 132.15625 15.355469 129.332031 15.082031 C 129.195312 15.070312 129.0625 15.144531 129.003906 15.273438 C 127.125 19.277344 126 21.296875 124.445312 24.097656 L 124.257812 24.441406 C 124.1875 24.5625 124.0625 24.628906 123.933594 24.628906 Z M 123.933594 24.628906 " fill-opacity="1" fill-rule="nonzero"/><path fill="#7a726c" d="M 129.570312 18.957031 C 129.773438 18.6875 130.105469 18.523438 130.457031 18.601562 C 130.847656 18.6875 131.113281 19.023438 131.121094 19.398438 C 131.121094 19.421875 131.15625 19.429688 131.167969 19.410156 C 131.335938 19.070312 131.71875 18.878906 132.109375 18.960938 C 132.449219 19.035156 132.722656 19.304688 132.757812 19.628906 C 132.792969 19.96875 132.675781 20.257812 132.597656 20.402344 C 132.164062 21.21875 131.011719 21.617188 130.703125 21.710938 C 130.652344 21.726562 130.601562 21.714844 130.566406 21.679688 C 130.328125 21.460938 129.476562 20.609375 129.398438 19.746094 C 129.386719 19.605469 129.367188 19.226562 129.570312 18.957031 Z M 129.570312 18.957031 " fill-opacity="1" fill-rule="nonzero"/><path fill="#dda783" d="M 116.917969 26.855469 C 118.214844 27.453125 119.679688 27.59375 121.109375 27.585938 C 121.710938 27.582031 122.320312 27.550781 122.882812 27.34375 C 123.382812 27.160156 123.835938 26.832031 124.144531 26.402344 C 124.386719 26.0625 124.542969 25.640625 124.484375 25.226562 C 124.425781 24.824219 124.175781 24.476562 123.914062 24.164062 C 122.976562 23.050781 121.707031 22.132812 120.253906 21.96875 C 120.101562 21.949219 119.941406 21.941406 119.808594 22.011719 C 119.679688 22.078125 119.597656 22.207031 119.519531 22.328125 C 119.15625 22.914062 118.84375 23.527344 118.527344 24.140625 C 118.070312 25.027344 117.617188 25.914062 116.917969 26.855469 Z M 116.917969 26.855469 " fill-opacity="1" fill-rule="nonzero"/><path fill="#b37164" d="M 122.804688 22.953125 C 121.5 24.085938 120.898438 25.957031 121.300781 27.628906 C 122.050781 27.792969 122.878906 27.664062 123.503906 27.21875 C 124.132812 26.773438 124.527344 26 124.449219 25.242188 C 124.394531 24.738281 124.148438 24.265625 123.828125 23.871094 C 123.507812 23.476562 123.113281 23.144531 122.804688 22.953125 Z M 122.804688 22.953125 " fill-opacity="1" fill-rule="nonzero"/><path fill="#703627" d="M 121.261719 28.097656 C 119.542969 28.097656 116.746094 27.671875 114.636719 25.582031 C 114.492188 25.441406 114.492188 25.210938 114.636719 25.066406 C 114.78125 24.925781 115.015625 24.925781 115.160156 25.066406 C 117.898438 27.78125 121.863281 27.441406 122.53125 27.261719 C 123.191406 27.082031 123.707031 26.714844 123.949219 26.246094 C 124.390625 25.382812 123.890625 24.292969 123.195312 23.707031 C 122.386719 23.023438 121.261719 22.722656 120.273438 22.460938 C 120.074219 22.40625 119.957031 22.207031 120.011719 22.011719 C 120.066406 21.816406 120.265625 21.703125 120.464844 21.753906 C 121.53125 22.039062 122.738281 22.359375 123.675781 23.152344 C 124.609375 23.941406 125.226562 25.371094 124.605469 26.578125 C 124.269531 27.226562 123.585938 27.734375 122.726562 27.964844 C 122.507812 28.023438 121.976562 28.097656 121.261719 28.097656 Z M 121.261719 28.097656 " fill-opacity="1" fill-rule="nonzero"/><path fill="#b37164" d="M 132.820312 24.164062 C 132.953125 24 133.023438 23.796875 133.023438 23.585938 C 133.03125 22.984375 133.0625 22.378906 133.265625 21.816406 C 133.507812 21.140625 134.042969 20.523438 134.75 20.382812 C 135.359375 20.257812 136.003906 20.511719 136.449219 20.941406 C 136.890625 21.371094 137.148438 21.957031 137.285156 22.558594 C 137.5 23.523438 137.40625 24.566406 136.925781 25.433594 C 136.449219 26.296875 135.566406 26.957031 134.578125 27.082031 C 133.832031 27.175781 133.011719 26.929688 132.570312 26.332031 C 132.167969 25.785156 132.191406 24.9375 132.820312 24.164062 Z M 132.820312 24.164062 " fill-opacity="1" fill-rule="nonzero"/><path fill="#dda783" d="M 135.902344 20.535156 C 135.382812 21.445312 135.167969 22.503906 135.125 23.546875 C 135.082031 24.59375 135.203125 25.636719 135.324219 26.675781 C 136.453125 26.136719 137.257812 24.996094 137.386719 23.765625 C 137.515625 22.535156 136.960938 21.253906 135.902344 20.535156 Z M 135.902344 20.535156 " fill-opacity="1" fill-rule="nonzero"/><path fill="#703627" d="M 134.265625 27.464844 C 133.457031 27.464844 132.699219 27.125 132.273438 26.546875 C 131.734375 25.816406 131.835938 24.792969 132.535156 23.933594 C 132.613281 23.839844 132.65625 23.714844 132.65625 23.582031 C 132.660156 22.96875 132.695312 22.3125 132.917969 21.695312 C 133.234375 20.820312 133.90625 20.179688 134.675781 20.023438 C 135.367188 19.886719 136.144531 20.136719 136.707031 20.679688 C 137.160156 21.121094 137.476562 21.726562 137.644531 22.480469 C 137.890625 23.589844 137.753906 24.699219 137.25 25.609375 C 136.699219 26.609375 135.691406 27.3125 134.621094 27.445312 C 134.503906 27.457031 134.382812 27.464844 134.265625 27.464844 Z M 135.066406 20.714844 C 134.984375 20.714844 134.902344 20.722656 134.824219 20.738281 C 134.203125 20.863281 133.792969 21.441406 133.613281 21.9375 C 133.429688 22.457031 133.398438 23.039062 133.394531 23.589844 C 133.390625 23.882812 133.289062 24.167969 133.109375 24.390625 C 132.628906 24.984375 132.53125 25.660156 132.867188 26.117188 C 133.203125 26.566406 133.855469 26.804688 134.53125 26.71875 C 135.367188 26.617188 136.160156 26.054688 136.601562 25.257812 C 137.011719 24.515625 137.128906 23.5625 136.921875 22.636719 C 136.789062 22.035156 136.535156 21.535156 136.1875 21.203125 C 135.871094 20.890625 135.457031 20.714844 135.066406 20.714844 Z M 135.066406 20.714844 " fill-opacity="1" fill-rule="nonzero"/><path fill="#6f3526" d="M 110.839844 19.761719 C 110.734375 19.761719 110.628906 19.71875 110.558594 19.628906 C 109.9375 18.890625 109.527344 18.09375 109.335938 17.261719 C 108.992188 15.769531 109.621094 14.433594 110.230469 13.144531 C 110.457031 12.664062 110.691406 12.164062 110.871094 11.667969 C 112.058594 8.386719 112.773438 6.589844 114.847656 4.691406 C 118.894531 0.980469 126.414062 0 131.503906 4.882812 C 133.527344 6.828125 134.203125 8.644531 135.3125 11.949219 L 135.496094 12.488281 C 135.824219 13.453125 136.167969 14.449219 136.324219 15.460938 C 136.355469 15.660156 136.21875 15.84375 136.015625 15.875 C 135.816406 15.90625 135.625 15.769531 135.597656 15.570312 C 135.449219 14.625 135.117188 13.660156 134.796875 12.722656 L 134.609375 12.179688 C 133.507812 8.894531 132.894531 7.234375 130.988281 5.40625 C 126.210938 0.820312 119.148438 1.742188 115.347656 5.226562 C 113.398438 7.011719 112.746094 8.65625 111.566406 11.914062 C 111.375 12.441406 111.132812 12.957031 110.898438 13.453125 C 110.316406 14.6875 109.769531 15.851562 110.054688 17.097656 C 110.21875 17.820312 110.582031 18.515625 111.125 19.164062 C 111.253906 19.320312 111.234375 19.550781 111.078125 19.679688 C 111.007812 19.734375 110.925781 19.761719 110.839844 19.761719 Z M 110.839844 19.761719 " fill-opacity="1" fill-rule="nonzero"/><path fill="#dda783" d="M 116.792969 7.132812 C 116.492188 6.300781 115.992188 5.527344 115.28125 4.992188 C 114.574219 4.457031 113.648438 4.175781 112.773438 4.332031 C 111.894531 4.488281 111.09375 5.109375 110.824219 5.949219 C 110.578125 6.714844 110.789062 7.582031 111.257812 8.238281 C 111.730469 8.894531 112.433594 9.359375 113.183594 9.667969 C 113.710938 9.890625 114.292969 10.042969 114.855469 9.933594 C 115.445312 9.820312 115.960938 9.425781 116.277344 8.917969 C 116.59375 8.410156 117.019531 7.765625 116.792969 7.132812 Z M 116.792969 7.132812 " fill-opacity="1" fill-rule="nonzero"/><path fill="#703627" d="M 114.363281 10.15625 C 114.347656 10.15625 114.328125 10.152344 114.308594 10.152344 C 113.109375 9.964844 112.152344 9.5625 111.460938 8.957031 C 110.570312 8.179688 110.144531 7.023438 110.375 6.015625 C 110.597656 5.035156 111.453125 4.207031 112.5 3.953125 C 113.445312 3.722656 114.527344 3.949219 115.386719 4.558594 C 116.136719 5.089844 116.738281 5.921875 117.082031 6.894531 C 117.148438 7.085938 117.046875 7.292969 116.851562 7.359375 C 116.660156 7.425781 116.449219 7.324219 116.382812 7.132812 C 116.09375 6.300781 115.585938 5.597656 114.957031 5.152344 C 114.269531 4.664062 113.417969 4.480469 112.675781 4.660156 C 111.894531 4.851562 111.257812 5.460938 111.09375 6.175781 C 110.921875 6.929688 111.257812 7.804688 111.949219 8.410156 C 112.53125 8.921875 113.367188 9.265625 114.421875 9.429688 C 114.625 9.460938 114.761719 9.648438 114.730469 9.847656 C 114.699219 10.027344 114.542969 10.15625 114.363281 10.15625 Z M 114.363281 10.15625 " fill-opacity="1" fill-rule="nonzero"/><path fill="#703627" d="M 115.507812 8.027344 C 115.355469 8.027344 115.214844 7.9375 115.160156 7.789062 C 114.792969 6.792969 113.753906 6.070312 112.683594 6.089844 C 112.476562 6.089844 112.3125 5.929688 112.308594 5.730469 C 112.308594 5.527344 112.472656 5.363281 112.675781 5.359375 C 114.046875 5.363281 115.382812 6.261719 115.855469 7.539062 C 115.921875 7.726562 115.824219 7.9375 115.632812 8.007812 C 115.59375 8.019531 115.550781 8.027344 115.507812 8.027344 Z M 115.507812 8.027344 " fill-opacity="1" fill-rule="nonzero"/><path fill="#c58d72" d="M 123.523438 5.632812 C 123.421875 5.632812 123.320312 5.589844 123.246094 5.503906 C 122.71875 4.902344 122.121094 4.355469 121.472656 3.878906 C 121.308594 3.761719 121.273438 3.53125 121.394531 3.371094 C 121.515625 3.207031 121.746094 3.171875 121.910156 3.292969 C 122.605469 3.800781 123.242188 4.382812 123.804688 5.027344 C 123.9375 5.179688 123.921875 5.410156 123.765625 5.542969 C 123.695312 5.601562 123.609375 5.632812 123.523438 5.632812 Z M 123.523438 5.632812 " fill-opacity="1" fill-rule="nonzero"/><path fill="#c58d72" d="M 127.234375 5.402344 C 127.152344 5.402344 127.070312 5.375 127 5.320312 L 125.667969 4.246094 C 125.511719 4.121094 125.488281 3.890625 125.617188 3.734375 C 125.746094 3.578125 125.976562 3.554688 126.132812 3.683594 L 127.464844 4.753906 C 127.625 4.882812 127.648438 5.113281 127.519531 5.269531 C 127.445312 5.355469 127.339844 5.402344 127.234375 5.402344 Z M 127.234375 5.402344 " fill-opacity="1" fill-rule="nonzero"/><path fill="#c58d72" d="M 126.917969 8.253906 C 126.8125 8.253906 126.707031 8.207031 126.636719 8.121094 L 125.707031 7.007812 C 125.574219 6.851562 125.597656 6.621094 125.753906 6.492188 C 125.914062 6.363281 126.144531 6.386719 126.273438 6.542969 L 127.203125 7.65625 C 127.332031 7.8125 127.3125 8.039062 127.152344 8.167969 C 127.085938 8.226562 127.003906 8.253906 126.917969 8.253906 Z M 126.917969 8.253906 " fill-opacity="1" fill-rule="nonzero"/><path fill="#c58d72" d="M 131.046875 7.773438 C 130.929688 7.773438 130.8125 7.714844 130.738281 7.609375 C 130.433594 7.144531 130.050781 6.738281 129.609375 6.402344 C 129.445312 6.277344 129.417969 6.050781 129.542969 5.890625 C 129.667969 5.730469 129.898438 5.699219 130.058594 5.824219 C 130.566406 6.210938 131.003906 6.675781 131.355469 7.207031 C 131.46875 7.375 131.421875 7.601562 131.25 7.710938 C 131.1875 7.753906 131.117188 7.773438 131.046875 7.773438 Z M 131.046875 7.773438 " fill-opacity="1" fill-rule="nonzero"/><path fill="#c58d72" d="M 129.90625 9.6875 C 129.75 9.6875 129.605469 9.589844 129.554688 9.433594 C 129.375 8.894531 129.105469 8.390625 128.746094 7.945312 C 128.617188 7.789062 128.644531 7.558594 128.804688 7.433594 C 128.964844 7.308594 129.195312 7.332031 129.324219 7.492188 C 129.738281 8.003906 130.050781 8.585938 130.257812 9.210938 C 130.320312 9.402344 130.210938 9.609375 130.019531 9.667969 C 129.980469 9.683594 129.941406 9.6875 129.90625 9.6875 Z M 129.90625 9.6875 " fill-opacity="1" fill-rule="nonzero"/><path fill="#e58314" d="M 76.261719 102.90625 L 76.261719 96.773438 L 82.578125 96.773438 L 82.578125 102.90625 C 82.578125 103.011719 82.492188 103.097656 82.386719 103.097656 L 76.453125 103.097656 C 76.347656 103.097656 76.261719 103.011719 76.261719 102.90625 Z M 76.261719 102.90625 " fill-opacity="1" fill-rule="nonzero"/><path fill="#e58314" d="M 127.761719 102.90625 L 127.761719 96.773438 L 134.074219 96.773438 L 134.074219 102.90625 C 134.074219 103.011719 133.988281 103.097656 133.886719 103.097656 L 127.949219 103.097656 C 127.84375 103.097656 127.761719 103.011719 127.761719 102.90625 Z M 127.761719 102.90625 " fill-opacity="1" fill-rule="nonzero"/><path fill="#e48214" d="M 68.519531 97.417969 L 68.519531 34.449219 C 68.519531 33.855469 69 33.375 69.59375 33.375 L 144.625 33.375 C 145.21875 33.375 145.699219 33.855469 145.699219 34.449219 L 145.699219 97.417969 C 145.699219 98.007812 145.21875 98.488281 144.625 98.488281 L 69.59375 98.488281 C 69 98.488281 68.519531 98.007812 68.519531 97.417969 Z M 68.519531 97.417969 " fill-opacity="1" fill-rule="nonzero"/><path fill="#f0b943" d="M 73.898438 63.121094 L 73.898438 39.753906 C 73.898438 39.464844 74.132812 39.230469 74.421875 39.230469 L 139.796875 39.230469 C 140.085938 39.230469 140.320312 39.464844 140.320312 39.753906 L 140.320312 63.121094 Z M 73.898438 63.121094 " fill-opacity="1" fill-rule="nonzero"/><path fill="#f0b943" d="M 73.898438 92.113281 L 73.898438 68.742188 L 140.320312 68.742188 L 140.320312 92.113281 C 140.320312 92.402344 140.085938 92.632812 139.796875 92.632812 L 74.421875 92.632812 C 74.132812 92.632812 73.898438 92.402344 73.898438 92.113281 Z M 73.898438 92.113281 " fill-opacity="1" fill-rule="nonzero"/><path fill="#a1b2de" d="M 108.164062 62.710938 L 108.164062 56.273438 C 108.164062 56.046875 108.347656 55.863281 108.574219 55.863281 L 134.996094 55.863281 C 135.222656 55.863281 135.40625 56.046875 135.40625 56.273438 L 135.40625 62.710938 C 135.40625 62.9375 135.222656 63.121094 134.996094 63.121094 L 108.574219 63.121094 C 108.347656 63.121094 108.164062 62.9375 108.164062 62.710938 Z M 108.164062 62.710938 " fill-opacity="1" fill-rule="nonzero"/><path fill="#b7c5e8" d="M 108.164062 60.859375 L 108.164062 56.164062 C 108.164062 55.996094 108.296875 55.863281 108.460938 55.863281 L 132.359375 55.863281 C 132.523438 55.863281 132.660156 55.996094 132.660156 56.164062 L 132.660156 60.859375 C 132.660156 61.027344 132.523438 61.160156 132.359375 61.160156 L 108.460938 61.160156 C 108.296875 61.160156 108.164062 61.027344 108.164062 60.859375 Z M 108.164062 60.859375 " fill-opacity="1" fill-rule="nonzero"/><path fill="#ced8f2" d="M 109.574219 57.875 L 109.574219 56.308594 C 109.574219 56.253906 109.617188 56.207031 109.671875 56.207031 L 127.332031 56.207031 C 127.386719 56.207031 127.429688 56.253906 127.429688 56.308594 L 127.429688 57.875 C 127.429688 57.929688 127.386719 57.976562 127.332031 57.976562 L 109.671875 57.976562 C 109.617188 57.976562 109.574219 57.929688 109.574219 57.875 Z M 109.574219 57.875 " fill-opacity="1" fill-rule="nonzero"/><path fill="#a1b2de" d="M 108.164062 55.449219 L 108.164062 49.011719 C 108.164062 48.785156 108.347656 48.601562 108.574219 48.601562 L 134.996094 48.601562 C 135.222656 48.601562 135.40625 48.785156 135.40625 49.011719 L 135.40625 55.449219 C 135.40625 55.675781 135.222656 55.863281 134.996094 55.863281 L 108.574219 55.863281 C 108.347656 55.863281 108.164062 55.675781 108.164062 55.449219 Z M 108.164062 55.449219 " fill-opacity="1" fill-rule="nonzero"/><path fill="#b7c5e8" d="M 108.164062 53.597656 L 108.164062 48.902344 C 108.164062 48.734375 108.296875 48.601562 108.460938 48.601562 L 132.359375 48.601562 C 132.523438 48.601562 132.660156 48.734375 132.660156 48.902344 L 132.660156 53.597656 C 132.660156 53.765625 132.523438 53.898438 132.359375 53.898438 L 108.460938 53.898438 C 108.296875 53.898438 108.164062 53.765625 108.164062 53.597656 Z M 108.164062 53.597656 " fill-opacity="1" fill-rule="nonzero"/><path fill="#ced8f2" d="M 109.574219 50.613281 L 109.574219 49.046875 C 109.574219 48.992188 109.617188 48.949219 109.671875 48.949219 L 127.332031 48.949219 C 127.386719 48.949219 127.429688 48.992188 127.429688 49.046875 L 127.429688 50.613281 C 127.429688 50.667969 127.386719 50.714844 127.332031 50.714844 L 109.671875 50.714844 C 109.617188 50.714844 109.574219 50.667969 109.574219 50.613281 Z M 109.574219 50.613281 " fill-opacity="1" fill-rule="nonzero"/><path fill="#fce2bf" d="M 77.757812 92.210938 L 77.757812 85.566406 C 77.757812 85.328125 77.949219 85.140625 78.183594 85.140625 L 104.71875 85.140625 C 104.953125 85.140625 105.144531 85.328125 105.144531 85.566406 L 105.144531 92.210938 C 105.144531 92.445312 104.953125 92.632812 104.71875 92.632812 L 78.183594 92.632812 C 77.949219 92.632812 77.757812 92.445312 77.757812 92.210938 Z M 77.757812 92.210938 " fill-opacity="1" fill-rule="nonzero"/><path fill="#faead4" d="M 77.757812 90.296875 L 77.757812 85.449219 C 77.757812 85.277344 77.898438 85.140625 78.070312 85.140625 L 102.074219 85.140625 C 102.242188 85.140625 102.382812 85.277344 102.382812 85.449219 L 102.382812 90.296875 C 102.382812 90.46875 102.242188 90.609375 102.074219 90.609375 L 78.070312 90.609375 C 77.898438 90.609375 77.757812 90.46875 77.757812 90.296875 Z M 77.757812 90.296875 " fill-opacity="1" fill-rule="nonzero"/><path fill="#fff4e6" d="M 79.175781 87.21875 L 79.175781 85.601562 C 79.175781 85.542969 79.222656 85.496094 79.28125 85.496094 L 97.023438 85.496094 C 97.082031 85.496094 97.125 85.542969 97.125 85.601562 L 97.125 87.21875 C 97.125 87.273438 97.082031 87.320312 97.023438 87.320312 L 79.28125 87.320312 C 79.222656 87.320312 79.175781 87.273438 79.175781 87.21875 Z M 79.175781 87.21875 " fill-opacity="1" fill-rule="nonzero"/><path fill="#a1b2de" d="M 80.777344 84.714844 L 80.777344 78.070312 C 80.777344 77.835938 80.96875 77.644531 81.203125 77.644531 L 107.738281 77.644531 C 107.972656 77.644531 108.164062 77.835938 108.164062 78.070312 L 108.164062 84.714844 C 108.164062 84.949219 107.972656 85.140625 107.738281 85.140625 L 81.203125 85.140625 C 80.96875 85.140625 80.777344 84.949219 80.777344 84.714844 Z M 80.777344 84.714844 " fill-opacity="1" fill-rule="nonzero"/><path fill="#b7c5e8" d="M 80.777344 82.804688 L 80.777344 77.953125 C 80.777344 77.785156 80.917969 77.644531 81.085938 77.644531 L 105.089844 77.644531 C 105.261719 77.644531 105.402344 77.785156 105.402344 77.953125 L 105.402344 82.804688 C 105.402344 82.976562 105.261719 83.113281 105.089844 83.113281 L 81.085938 83.113281 C 80.917969 83.113281 80.777344 82.976562 80.777344 82.804688 Z M 80.777344 82.804688 " fill-opacity="1" fill-rule="nonzero"/><path fill="#ced8f2" d="M 82.195312 79.722656 L 82.195312 78.105469 C 82.195312 78.046875 82.242188 78.003906 82.300781 78.003906 L 100.042969 78.003906 C 100.097656 78.003906 100.144531 78.046875 100.144531 78.105469 L 100.144531 79.722656 C 100.144531 79.777344 100.097656 79.824219 100.042969 79.824219 L 82.300781 79.824219 C 82.242188 79.824219 82.195312 79.777344 82.195312 79.722656 Z M 82.195312 79.722656 " fill-opacity="1" fill-rule="nonzero"/><path fill="#fce2bf" d="M 76.707031 62.710938 L 76.707031 56.273438 C 76.707031 56.046875 76.890625 55.863281 77.117188 55.863281 L 103.539062 55.863281 C 103.765625 55.863281 103.949219 56.046875 103.949219 56.273438 L 103.949219 62.710938 C 103.949219 62.9375 103.765625 63.121094 103.539062 63.121094 L 77.117188 63.121094 C 76.890625 63.121094 76.707031 62.9375 76.707031 62.710938 Z M 76.707031 62.710938 " fill-opacity="1" fill-rule="nonzero"/><path fill="#faead4" d="M 76.707031 60.859375 L 76.707031 56.164062 C 76.707031 55.996094 76.839844 55.863281 77.007812 55.863281 L 100.902344 55.863281 C 101.070312 55.863281 101.203125 55.996094 101.203125 56.164062 L 101.203125 60.859375 C 101.203125 61.027344 101.070312 61.160156 100.902344 61.160156 L 77.007812 61.160156 C 76.839844 61.160156 76.707031 61.027344 76.707031 60.859375 Z M 76.707031 60.859375 " fill-opacity="1" fill-rule="nonzero"/><path fill="#fff4e6" d="M 78.117188 57.875 L 78.117188 56.308594 C 78.117188 56.253906 78.160156 56.207031 78.21875 56.207031 L 95.875 56.207031 C 95.929688 56.207031 95.976562 56.253906 95.976562 56.308594 L 95.976562 57.875 C 95.976562 57.929688 95.929688 57.976562 95.875 57.976562 L 78.21875 57.976562 C 78.160156 57.976562 78.117188 57.929688 78.117188 57.875 Z M 78.117188 57.875 " fill-opacity="1" fill-rule="nonzero"/><path fill="#fce2bf" d="M 77.5625 55.449219 L 77.5625 49.011719 C 77.5625 48.785156 77.75 48.601562 77.976562 48.601562 L 104.398438 48.601562 C 104.625 48.601562 104.808594 48.785156 104.808594 49.011719 L 104.808594 55.449219 C 104.808594 55.675781 104.625 55.863281 104.398438 55.863281 L 77.976562 55.863281 C 77.75 55.863281 77.5625 55.675781 77.5625 55.449219 Z M 77.5625 55.449219 " fill-opacity="1" fill-rule="nonzero"/><path fill="#faead4" d="M 77.5625 53.597656 L 77.5625 48.902344 C 77.5625 48.734375 77.699219 48.601562 77.863281 48.601562 L 101.761719 48.601562 C 101.925781 48.601562 102.0625 48.734375 102.0625 48.902344 L 102.0625 53.597656 C 102.0625 53.765625 101.925781 53.898438 101.761719 53.898438 L 77.863281 53.898438 C 77.699219 53.898438 77.5625 53.765625 77.5625 53.597656 Z M 77.5625 53.597656 " fill-opacity="1" fill-rule="nonzero"/><path fill="#fff4e6" d="M 78.976562 50.613281 L 78.976562 49.046875 C 78.976562 48.992188 79.019531 48.949219 79.074219 48.949219 L 96.734375 48.949219 C 96.789062 48.949219 96.832031 48.992188 96.832031 49.046875 L 96.832031 50.613281 C 96.832031 50.667969 96.789062 50.714844 96.734375 50.714844 L 79.074219 50.714844 C 79.019531 50.714844 78.976562 50.667969 78.976562 50.613281 Z M 78.976562 50.613281 " fill-opacity="1" fill-rule="nonzero"/><path fill="#fce2bf" d="M 112.921875 72.492188 L 119.695312 72.492188 C 119.933594 72.492188 120.128906 72.6875 120.128906 72.925781 L 120.128906 92.199219 C 120.128906 92.441406 119.933594 92.632812 119.695312 92.632812 L 112.921875 92.632812 C 112.683594 92.632812 112.488281 92.441406 112.488281 92.199219 L 112.488281 72.925781 C 112.488281 72.6875 112.683594 72.492188 112.921875 72.492188 Z M 112.921875 72.492188 " fill-opacity="1" fill-rule="nonzero"/><path fill="#faead4" d="M 114.871094 72.492188 L 119.8125 72.492188 C 119.984375 72.492188 120.128906 72.632812 120.128906 72.808594 L 120.128906 90.285156 C 120.128906 90.460938 119.984375 90.601562 119.8125 90.601562 L 114.871094 90.601562 C 114.695312 90.601562 114.554688 90.460938 114.554688 90.285156 L 114.554688 72.808594 C 114.554688 72.632812 114.695312 72.492188 114.871094 72.492188 Z M 114.871094 72.492188 " fill-opacity="1" fill-rule="nonzero"/><path fill="#fff4e6" d="M 118.011719 73.535156 L 119.65625 73.535156 C 119.714844 73.535156 119.761719 73.582031 119.761719 73.640625 L 119.761719 86.632812 C 119.761719 86.691406 119.714844 86.738281 119.65625 86.738281 L 118.011719 86.738281 C 117.953125 86.738281 117.90625 86.691406 117.90625 86.632812 L 117.90625 73.640625 C 117.90625 73.582031 117.953125 73.535156 118.011719 73.535156 Z M 118.011719 73.535156 " fill-opacity="1" fill-rule="nonzero"/><path fill="#a1b2de" d="M 120.5625 72.492188 L 127.335938 72.492188 C 127.574219 72.492188 127.765625 72.6875 127.765625 72.925781 L 127.765625 92.199219 C 127.765625 92.441406 127.574219 92.632812 127.335938 92.632812 L 120.5625 92.632812 C 120.320312 92.632812 120.128906 92.441406 120.128906 92.199219 L 120.128906 72.925781 C 120.128906 72.6875 120.320312 72.492188 120.5625 72.492188 Z M 120.5625 72.492188 " fill-opacity="1" fill-rule="nonzero"/><path fill="#b7c5e8" d="M 122.507812 72.492188 L 127.453125 72.492188 C 127.625 72.492188 127.765625 72.632812 127.765625 72.808594 L 127.765625 90.285156 C 127.765625 90.460938 127.625 90.601562 127.453125 90.601562 L 122.507812 90.601562 C 122.335938 90.601562 122.191406 90.460938 122.191406 90.285156 L 122.191406 72.808594 C 122.191406 72.632812 122.335938 72.492188 122.507812 72.492188 Z M 122.507812 72.492188 " fill-opacity="1" fill-rule="nonzero"/><path fill="#ced8f2" d="M 125.648438 73.535156 L 127.296875 73.535156 C 127.355469 73.535156 127.402344 73.582031 127.402344 73.640625 L 127.402344 86.632812 C 127.402344 86.691406 127.355469 86.738281 127.296875 86.738281 L 125.648438 86.738281 C 125.589844 86.738281 125.542969 86.691406 125.542969 86.632812 L 125.542969 73.640625 C 125.542969 73.582031 125.589844 73.535156 125.648438 73.535156 Z M 125.648438 73.535156 " fill-opacity="1" fill-rule="nonzero"/><path fill="#a1b2de" d="M 128.199219 72.492188 L 134.972656 72.492188 C 135.214844 72.492188 135.40625 72.6875 135.40625 72.925781 L 135.40625 92.199219 C 135.40625 92.441406 135.214844 92.632812 134.972656 92.632812 L 128.199219 92.632812 C 127.960938 92.632812 127.765625 92.441406 127.765625 92.199219 L 127.765625 72.925781 C 127.765625 72.6875 127.960938 72.492188 128.199219 72.492188 Z M 128.199219 72.492188 " fill-opacity="1" fill-rule="nonzero"/><path fill="#b7c5e8" d="M 130.148438 72.492188 L 135.089844 72.492188 C 135.265625 72.492188 135.40625 72.632812 135.40625 72.808594 L 135.40625 90.285156 C 135.40625 90.460938 135.265625 90.601562 135.089844 90.601562 L 130.148438 90.601562 C 129.972656 90.601562 129.832031 90.460938 129.832031 90.285156 L 129.832031 72.808594 C 129.832031 72.632812 129.972656 72.492188 130.148438 72.492188 Z M 130.148438 72.492188 " fill-opacity="1" fill-rule="nonzero"/><path fill="#ced8f2" d="M 133.289062 73.535156 L 134.9375 73.535156 C 134.996094 73.535156 135.042969 73.582031 135.042969 73.640625 L 135.042969 86.632812 C 135.042969 86.691406 134.996094 86.738281 134.9375 86.738281 L 133.289062 86.738281 C 133.230469 86.738281 133.183594 86.691406 133.183594 86.632812 L 133.183594 73.640625 C 133.183594 73.582031 133.230469 73.535156 133.289062 73.535156 Z M 133.289062 73.535156 " fill-opacity="1" fill-rule="nonzero"/><path fill="#703627" d="M 81.117188 104.085938 L 77.722656 104.085938 C 76.375 104.085938 75.277344 102.988281 75.277344 101.636719 L 75.277344 98.496094 L 77.25 98.496094 L 77.25 101.636719 C 77.25 101.898438 77.460938 102.109375 77.722656 102.109375 L 81.117188 102.109375 C 81.378906 102.109375 81.589844 101.898438 81.589844 101.636719 L 81.589844 98.566406 L 83.5625 98.566406 L 83.5625 101.636719 C 83.5625 102.988281 82.464844 104.085938 81.117188 104.085938 Z M 81.117188 104.085938 " fill-opacity="1" fill-rule="nonzero"/><path fill="#703627" d="M 132.617188 104.085938 L 129.21875 104.085938 C 127.871094 104.085938 126.773438 102.988281 126.773438 101.636719 L 126.773438 98.644531 L 128.746094 98.644531 L 128.746094 101.636719 C 128.746094 101.898438 128.960938 102.109375 129.21875 102.109375 L 132.617188 102.109375 C 132.875 102.109375 133.089844 101.898438 133.089844 101.636719 L 133.089844 98.523438 L 135.0625 98.523438 L 135.0625 101.636719 C 135.0625 102.988281 133.964844 104.085938 132.617188 104.085938 Z M 132.617188 104.085938 " fill-opacity="1" fill-rule="nonzero"/><g clip-path="url(#2bc2ffd05e)"><path fill="#703627" d="M 138.925781 99.476562 L 75.292969 99.476562 C 71.015625 99.476562 67.535156 95.992188 67.535156 91.707031 L 67.535156 40.15625 C 67.535156 35.875 71.015625 32.390625 75.292969 32.390625 L 138.925781 32.390625 C 143.203125 32.390625 146.683594 35.875 146.683594 40.15625 L 146.683594 91.707031 C 146.683594 95.992188 143.203125 99.476562 138.925781 99.476562 Z M 75.292969 34.363281 C 72.101562 34.363281 69.507812 36.964844 69.507812 40.15625 L 69.507812 91.707031 C 69.507812 94.902344 72.101562 97.503906 75.292969 97.503906 L 138.925781 97.503906 C 142.117188 97.503906 144.710938 94.902344 144.710938 91.707031 L 144.710938 40.15625 C 144.710938 36.964844 142.117188 34.363281 138.925781 34.363281 Z M 75.292969 34.363281 " fill-opacity="1" fill-rule="nonzero"/></g><path fill="#703627" d="M 139.394531 64.109375 L 74.121094 64.109375 C 73.457031 64.109375 72.914062 63.566406 72.914062 62.902344 L 72.914062 42.523438 C 72.914062 40.164062 74.832031 38.246094 77.1875 38.246094 L 137.03125 38.246094 C 139.386719 38.246094 141.304688 40.164062 141.304688 42.523438 L 141.304688 62.195312 C 141.304688 63.25 140.449219 64.109375 139.394531 64.109375 Z M 74.886719 62.136719 L 139.394531 62.136719 L 139.332031 42.523438 C 139.332031 41.253906 138.300781 40.21875 137.03125 40.21875 L 77.1875 40.21875 C 75.917969 40.21875 74.886719 41.253906 74.886719 42.523438 Z M 74.886719 62.136719 " fill-opacity="1" fill-rule="nonzero"/><path fill="#703627" d="M 137.03125 93.621094 L 77.1875 93.621094 C 74.832031 93.621094 72.914062 91.703125 72.914062 89.34375 L 72.914062 68.964844 C 72.914062 68.296875 73.457031 67.757812 74.121094 67.757812 L 139.394531 67.757812 C 140.449219 67.757812 141.304688 68.613281 141.304688 69.671875 L 141.304688 89.34375 C 141.304688 91.703125 139.386719 93.621094 137.03125 93.621094 Z M 74.886719 69.730469 L 74.886719 89.34375 C 74.886719 90.613281 75.917969 91.648438 77.1875 91.648438 L 137.03125 91.648438 C 138.300781 91.648438 139.332031 90.613281 139.332031 89.34375 L 139.332031 69.671875 Z M 74.886719 69.730469 " fill-opacity="1" fill-rule="nonzero"/><path fill="#703627" d="M 132.808594 64.109375 L 110.761719 64.109375 C 108.785156 64.109375 107.175781 62.5 107.175781 60.519531 L 107.175781 58.464844 C 107.175781 56.484375 108.785156 54.875 110.761719 54.875 L 132.808594 54.875 C 134.785156 54.875 136.394531 56.484375 136.394531 58.464844 L 136.394531 60.519531 C 136.394531 62.5 134.785156 64.109375 132.808594 64.109375 Z M 110.761719 56.847656 C 109.871094 56.847656 109.148438 57.574219 109.148438 58.464844 L 109.148438 60.519531 C 109.148438 61.410156 109.871094 62.136719 110.761719 62.136719 L 132.808594 62.136719 C 133.699219 62.136719 134.421875 61.410156 134.421875 60.519531 L 134.421875 58.464844 C 134.421875 57.574219 133.699219 56.847656 132.808594 56.847656 Z M 110.761719 56.847656 " fill-opacity="1" fill-rule="nonzero"/><path fill="#703627" d="M 132.808594 56.847656 L 110.761719 56.847656 C 108.785156 56.847656 107.175781 55.238281 107.175781 53.257812 L 107.175781 51.203125 C 107.175781 49.222656 108.785156 47.613281 110.761719 47.613281 L 132.808594 47.613281 C 134.785156 47.613281 136.394531 49.222656 136.394531 51.203125 L 136.394531 53.257812 C 136.394531 55.238281 134.785156 56.847656 132.808594 56.847656 Z M 110.761719 49.589844 C 109.871094 49.589844 109.148438 50.3125 109.148438 51.203125 L 109.148438 53.257812 C 109.148438 54.148438 109.871094 54.875 110.761719 54.875 L 132.808594 54.875 C 133.699219 54.875 134.421875 54.148438 134.421875 53.257812 L 134.421875 51.203125 C 134.421875 50.3125 133.699219 49.589844 132.808594 49.589844 Z M 110.761719 49.589844 " fill-opacity="1" fill-rule="nonzero"/><path fill="#703627" d="M 102.460938 93.621094 L 80.441406 93.621094 C 78.417969 93.621094 76.773438 91.972656 76.773438 89.949219 L 76.773438 87.824219 C 76.773438 85.800781 78.417969 84.152344 80.441406 84.152344 L 102.460938 84.152344 C 104.484375 84.152344 106.128906 85.800781 106.128906 87.824219 L 106.128906 89.949219 C 106.128906 91.972656 104.484375 93.621094 102.460938 93.621094 Z M 80.441406 86.125 C 79.507812 86.125 78.746094 86.890625 78.746094 87.824219 L 78.746094 89.949219 C 78.746094 90.886719 79.507812 91.648438 80.441406 91.648438 L 102.460938 91.648438 C 103.398438 91.648438 104.15625 90.886719 104.15625 89.949219 L 104.15625 87.824219 C 104.15625 86.890625 103.398438 86.125 102.460938 86.125 Z M 80.441406 86.125 " fill-opacity="1" fill-rule="nonzero"/><path fill="#703627" d="M 105.480469 86.125 L 83.460938 86.125 C 81.4375 86.125 79.792969 84.480469 79.792969 82.453125 L 79.792969 80.332031 C 79.792969 78.304688 81.4375 76.65625 83.460938 76.65625 L 105.480469 76.65625 C 107.503906 76.65625 109.148438 78.304688 109.148438 80.332031 L 109.148438 82.453125 C 109.148438 84.480469 107.503906 86.125 105.480469 86.125 Z M 83.460938 78.632812 C 82.523438 78.632812 81.765625 79.394531 81.765625 80.332031 L 81.765625 82.453125 C 81.765625 83.390625 82.523438 84.152344 83.460938 84.152344 L 105.480469 84.152344 C 106.414062 84.152344 107.175781 83.390625 107.175781 82.453125 L 107.175781 80.332031 C 107.175781 79.394531 106.414062 78.632812 105.480469 78.632812 Z M 83.460938 78.632812 " fill-opacity="1" fill-rule="nonzero"/><path fill="#703627" d="M 101.351562 64.109375 L 79.304688 64.109375 C 77.328125 64.109375 75.71875 62.5 75.71875 60.519531 L 75.71875 58.464844 C 75.71875 56.484375 77.328125 54.875 79.304688 54.875 L 101.351562 54.875 C 103.328125 54.875 104.9375 56.484375 104.9375 58.464844 L 104.9375 60.519531 C 104.9375 62.5 103.328125 64.109375 101.351562 64.109375 Z M 79.304688 56.847656 C 78.414062 56.847656 77.691406 57.574219 77.691406 58.464844 L 77.691406 60.519531 C 77.691406 61.410156 78.414062 62.136719 79.304688 62.136719 L 101.351562 62.136719 C 102.242188 62.136719 102.964844 61.410156 102.964844 60.519531 L 102.964844 58.464844 C 102.964844 57.574219 102.242188 56.847656 101.351562 56.847656 Z M 79.304688 56.847656 " fill-opacity="1" fill-rule="nonzero"/><path fill="#703627" d="M 102.210938 56.847656 L 80.164062 56.847656 C 78.1875 56.847656 76.578125 55.238281 76.578125 53.257812 L 76.578125 51.203125 C 76.578125 49.222656 78.1875 47.613281 80.164062 47.613281 L 102.210938 47.613281 C 104.1875 47.613281 105.796875 49.222656 105.796875 51.203125 L 105.796875 53.257812 C 105.796875 55.238281 104.1875 56.847656 102.210938 56.847656 Z M 80.164062 49.589844 C 79.273438 49.589844 78.550781 50.3125 78.550781 51.203125 L 78.550781 53.257812 C 78.550781 54.148438 79.273438 54.875 80.164062 54.875 L 102.210938 54.875 C 103.101562 54.875 103.824219 54.148438 103.824219 53.257812 L 103.824219 51.203125 C 103.824219 50.3125 103.101562 49.589844 102.210938 49.589844 Z M 80.164062 49.589844 " fill-opacity="1" fill-rule="nonzero"/><path fill="#703627" d="M 117.390625 93.621094 L 115.226562 93.621094 C 113.171875 93.621094 111.503906 91.949219 111.503906 89.894531 L 111.503906 75.234375 C 111.503906 73.175781 113.171875 71.503906 115.226562 71.503906 L 117.390625 71.503906 C 119.445312 71.503906 121.113281 73.175781 121.113281 75.234375 L 121.113281 89.894531 C 121.113281 91.949219 119.445312 93.621094 117.390625 93.621094 Z M 115.226562 73.480469 C 114.261719 73.480469 113.472656 74.265625 113.472656 75.234375 L 113.472656 89.894531 C 113.472656 90.859375 114.261719 91.648438 115.226562 91.648438 L 117.390625 91.648438 C 118.355469 91.648438 119.140625 90.859375 119.140625 89.894531 L 119.140625 75.234375 C 119.140625 74.265625 118.355469 73.480469 117.390625 73.480469 Z M 115.226562 73.480469 " fill-opacity="1" fill-rule="nonzero"/><path fill="#703627" d="M 125.03125 93.621094 L 122.867188 93.621094 C 120.8125 93.621094 119.140625 91.949219 119.140625 89.894531 L 119.140625 75.234375 C 119.140625 73.175781 120.8125 71.503906 122.867188 71.503906 L 125.03125 71.503906 C 127.082031 71.503906 128.753906 73.175781 128.753906 75.234375 L 128.753906 89.894531 C 128.753906 91.949219 127.082031 93.621094 125.03125 93.621094 Z M 122.867188 73.480469 C 121.898438 73.480469 121.113281 74.265625 121.113281 75.234375 L 121.113281 89.894531 C 121.113281 90.859375 121.898438 91.648438 122.867188 91.648438 L 125.03125 91.648438 C 125.996094 91.648438 126.78125 90.859375 126.78125 89.894531 L 126.78125 75.234375 C 126.78125 74.265625 125.996094 73.480469 125.03125 73.480469 Z M 122.867188 73.480469 " fill-opacity="1" fill-rule="nonzero"/><path fill="#703627" d="M 132.667969 93.621094 L 130.503906 93.621094 C 128.453125 93.621094 126.78125 91.949219 126.78125 89.894531 L 126.78125 75.234375 C 126.78125 73.175781 128.453125 71.503906 130.503906 71.503906 L 132.667969 71.503906 C 134.722656 71.503906 136.394531 73.175781 136.394531 75.234375 L 136.394531 89.894531 C 136.394531 91.949219 134.722656 93.621094 132.667969 93.621094 Z M 130.503906 73.480469 C 129.539062 73.480469 128.753906 74.265625 128.753906 75.234375 L 128.753906 89.894531 C 128.753906 90.859375 129.539062 91.648438 130.503906 91.648438 L 132.667969 91.648438 C 133.636719 91.648438 134.421875 90.859375 134.421875 89.894531 L 134.421875 75.234375 C 134.421875 74.265625 133.636719 73.480469 132.667969 73.480469 Z M 130.503906 73.480469 " fill-opacity="1" fill-rule="nonzero"/><path fill="#dda783" d="M 22.304688 65.707031 C 18.320312 69.714844 14.511719 73.953125 11.636719 78.792969 C 8.765625 83.632812 6.855469 89.132812 6.917969 94.734375 C 6.953125 97.886719 7.632812 101.078125 9.261719 103.789062 C 10.890625 106.503906 13.535156 108.699219 16.648438 109.445312 C 18.886719 109.984375 20.945312 109.265625 22.328125 107.457031 C 23.441406 106 24.066406 104.382812 24.121094 102.503906 C 23.941406 101.8125 24 101.0625 24.289062 100.40625 C 24.902344 102.460938 25.546875 104.574219 26.898438 106.253906 C 28.253906 107.929688 30.503906 109.097656 32.613281 108.5625 C 34.640625 108.050781 35.976562 106.195312 37.277344 104.511719 C 42.164062 105.753906 47.332031 105.933594 52.5625 105.320312 C 54.007812 106.652344 55.703125 108.074219 57.679688 107.929688 C 58.644531 107.859375 59.539062 107.40625 60.347656 106.882812 C 62.238281 105.648438 63.8125 103.941406 64.753906 101.9375 C 67.507812 101.375 69.859375 99.496094 71.402344 97.183594 C 72.941406 94.875 73.746094 92.15625 74.203125 89.429688 C 75.359375 82.570312 74.269531 75.058594 69.816406 69.65625 C 66.238281 65.3125 60.828125 62.722656 55.28125 61.480469 C 49.734375 60.242188 43.992188 60.234375 38.304688 60.242188 C 35.675781 60.242188 33.027344 60.253906 30.464844 60.824219 C 27.90625 61.398438 25.40625 62.589844 22.304688 65.707031 Z M 22.304688 65.707031 " fill-opacity="1" fill-rule="nonzero"/><path fill="#b27966" d="M 65.511719 100.140625 C 61.566406 98.886719 57.152344 99.171875 53.398438 100.925781 C 52.644531 101.277344 51.828125 101.808594 51.730469 102.640625 C 51.660156 103.246094 52.007812 103.816406 52.34375 104.332031 C 53.003906 105.351562 53.695312 106.398438 54.710938 107.070312 C 56.894531 108.511719 59.980469 107.703125 61.902344 105.925781 C 63.824219 104.148438 64.859375 101.632812 65.511719 100.140625 Z M 65.511719 100.140625 " fill-opacity="1" fill-rule="nonzero"/><path fill="#ffdcc4" d="M 50.496094 98.691406 C 46.824219 97.265625 42.730469 96.945312 38.878906 97.777344 C 38.5625 100.054688 37.941406 102.285156 37.035156 104.394531 C 42.085938 105.433594 47.34375 105.472656 52.410156 104.515625 C 51.347656 102.621094 50.542969 100.582031 50.496094 98.691406 Z M 50.496094 98.691406 " fill-opacity="1" fill-rule="nonzero"/><path fill="#b27966" d="M 37.289062 102.644531 C 33.488281 100.089844 28.71875 99.027344 24.195312 99.726562 C 24.773438 101.828125 25.699219 103.835938 26.925781 105.640625 C 27.707031 106.792969 28.691406 107.914062 30.023438 108.3125 C 31.59375 108.785156 33.328125 108.113281 34.546875 107.019531 C 35.765625 105.921875 36.570312 104.449219 37.289062 102.644531 Z M 37.289062 102.644531 " fill-opacity="1" fill-rule="nonzero"/><path fill="#b27966" d="M 23.824219 101.667969 C 19.386719 98.5 13.042969 98.289062 8.410156 101.15625 C 9.738281 103.6875 11.664062 105.898438 13.984375 107.5625 C 15.839844 108.890625 18.269531 109.882812 20.367188 108.984375 C 21.648438 108.4375 22.578125 107.253906 23.117188 105.96875 C 23.660156 104.683594 23.867188 103.285156 23.824219 101.667969 Z M 23.824219 101.667969 " fill-opacity="1" fill-rule="nonzero"/><path fill="#703627" d="M 31.113281 109.644531 C 30.851562 109.644531 30.585938 109.625 30.320312 109.582031 C 28.199219 109.257812 26.269531 107.605469 24.894531 104.929688 C 22.089844 99.484375 22.339844 92.859375 22.546875 87.539062 C 22.566406 86.996094 23.023438 86.574219 23.570312 86.589844 C 24.113281 86.609375 24.535156 87.070312 24.515625 87.613281 C 24.3125 92.972656 24.078125 99.042969 26.644531 104.023438 C 27.273438 105.238281 28.621094 107.324219 30.617188 107.632812 C 32.820312 107.972656 34.917969 105.914062 35.933594 103.855469 C 36.558594 102.597656 36.96875 101.246094 37.402344 99.8125 C 37.785156 98.546875 38.183594 97.234375 38.742188 95.984375 C 38.964844 95.484375 39.550781 95.261719 40.046875 95.488281 C 40.542969 95.710938 40.765625 96.292969 40.542969 96.792969 C 40.035156 97.929688 39.671875 99.121094 39.289062 100.386719 C 38.851562 101.832031 38.398438 103.328125 37.703125 104.734375 C 36.445312 107.269531 33.976562 109.644531 31.113281 109.644531 Z M 31.113281 109.644531 " fill-opacity="1" fill-rule="nonzero"/><path fill="#703627" d="M 57.429688 108.773438 C 57.097656 108.773438 56.769531 108.746094 56.449219 108.691406 C 54.324219 108.324219 52.359375 106.675781 51.1875 104.285156 C 50.1875 102.25 49.828125 99.9375 49.507812 97.902344 C 49.421875 97.363281 49.789062 96.855469 50.328125 96.773438 C 50.867188 96.6875 51.371094 97.054688 51.457031 97.59375 C 51.769531 99.585938 52.089844 101.648438 52.957031 103.414062 C 53.851562 105.238281 55.28125 106.484375 56.785156 106.746094 C 58.121094 106.976562 59.632812 106.46875 60.929688 105.351562 C 62.253906 104.21875 63.199219 102.632812 63.953125 101.234375 C 65.710938 97.96875 67.046875 94.472656 67.921875 90.84375 C 68.050781 90.3125 68.585938 89.988281 69.113281 90.117188 C 69.644531 90.246094 69.96875 90.777344 69.839844 91.308594 C 68.921875 95.105469 67.527344 98.757812 65.691406 102.171875 C 64.851562 103.730469 63.78125 105.507812 62.214844 106.851562 C 60.761719 108.101562 59.0625 108.773438 57.429688 108.773438 Z M 57.429688 108.773438 " fill-opacity="1" fill-rule="nonzero"/><path fill="#703627" d="M 64.457031 103.335938 C 64.035156 103.335938 63.644531 103.0625 63.515625 102.632812 C 63.355469 102.113281 63.652344 101.5625 64.171875 101.402344 C 70.335938 99.53125 74.476562 90.207031 73.925781 83.433594 C 73.417969 77.203125 71.390625 72.148438 62.519531 64.757812 C 62.101562 64.410156 62.042969 63.789062 62.394531 63.367188 C 62.742188 62.949219 63.363281 62.890625 63.78125 63.242188 C 72.082031 70.15625 75.25 75.398438 75.890625 83.273438 C 76.515625 90.9375 71.882812 101.128906 64.746094 103.292969 C 64.648438 103.320312 64.554688 103.335938 64.457031 103.335938 Z M 64.457031 103.335938 " fill-opacity="1" fill-rule="nonzero"/><path fill="#703627" d="M 45.304688 106.628906 C 42.054688 106.628906 38.792969 106.210938 36.429688 105.203125 C 35.929688 104.988281 35.699219 104.410156 35.910156 103.90625 C 36.125 103.40625 36.703125 103.175781 37.207031 103.386719 C 41.015625 105.015625 47.953125 104.9375 52.460938 103.925781 C 52.988281 103.800781 53.519531 104.140625 53.636719 104.671875 C 53.757812 105.203125 53.421875 105.730469 52.890625 105.851562 C 50.730469 106.339844 48.023438 106.628906 45.304688 106.628906 Z M 45.304688 106.628906 " fill-opacity="1" fill-rule="nonzero"/><path fill="#703627" d="M 18.023438 110.402344 C 16.714844 110.402344 15.402344 110.09375 14.273438 109.585938 C 9.191406 107.296875 5.789062 101.046875 6.007812 94.386719 C 6.378906 82.902344 13.132812 74.414062 20.625 66.011719 C 20.988281 65.605469 21.609375 65.570312 22.015625 65.933594 C 22.421875 66.296875 22.457031 66.921875 22.09375 67.328125 C 14.578125 75.757812 8.328125 83.617188 7.976562 94.449219 C 7.789062 100.332031 10.707031 105.816406 15.082031 107.78125 C 17.019531 108.65625 19.808594 108.8125 21.34375 107.097656 C 22.238281 106.105469 22.691406 104.527344 22.734375 102.277344 C 22.832031 96.820312 20.964844 91.289062 17.613281 87.109375 C 17.273438 86.683594 17.339844 86.0625 17.765625 85.71875 C 18.191406 85.378906 18.808594 85.445312 19.152344 85.871094 C 22.789062 90.410156 24.8125 96.402344 24.703125 102.3125 C 24.652344 105.058594 24.035156 107.054688 22.8125 108.417969 C 21.542969 109.835938 19.789062 110.402344 18.023438 110.402344 Z M 18.023438 110.402344 " fill-opacity="1" fill-rule="nonzero"/><path fill="#dda783" d="M 18.496094 65.453125 C 13.660156 62.488281 10.480469 56.988281 10.320312 51.3125 C 7.320312 52.144531 3.835938 50.59375 2.445312 47.804688 C 1.050781 45.015625 1.898438 41.292969 4.363281 39.386719 C 6.34375 37.851562 8.984375 37.535156 11.488281 37.390625 C 11.78125 34.871094 13.0625 32.480469 14.996094 30.84375 C 13.070312 28.6875 12.308594 25.796875 13.082031 23.316406 C 13.859375 20.839844 16.132812 18.898438 18.699219 18.523438 C 21.261719 18.148438 23.996094 19.359375 25.675781 21.378906 C 31.609375 18.144531 38.058594 15.753906 44.765625 14.917969 C 51.46875 14.082031 58.441406 14.851562 64.589844 17.65625 C 70.742188 20.457031 76.011719 25.371094 78.78125 31.929688 C 81.6875 39.429688 80.457031 48.394531 75.640625 54.832031 C 70.894531 61.175781 63.203125 64.789062 55.414062 66.199219 C 47.625 67.609375 39.632812 67.058594 31.738281 66.5 C 27.949219 66.230469 23.347656 68.429688 18.496094 65.453125 Z M 18.496094 65.453125 " fill-opacity="1" fill-rule="nonzero"/><path fill="#703627" d="M 39.757812 42.652344 C 39.308594 43.8125 38.847656 45.058594 39.128906 46.269531 C 39.226562 46.695312 39.441406 47.125 39.832031 47.3125 C 40.242188 47.503906 40.746094 47.375 41.109375 47.097656 C 41.46875 46.820312 41.710938 46.421875 41.941406 46.03125 C 42.441406 45.175781 42.910156 44.300781 43.28125 43.378906 C 43.492188 42.847656 43.671875 42.285156 43.636719 41.714844 C 43.605469 41.144531 43.3125 40.558594 42.800781 40.308594 C 42.234375 40.039062 41.535156 40.238281 41.050781 40.632812 C 40.5625 41.03125 40.179688 41.5625 39.757812 42.652344 Z M 39.757812 42.652344 " fill-opacity="1" fill-rule="nonzero"/><g clip-path="url(#04f1b6dce0)"><path fill="#703627" d="M 9.105469 52.621094 C 9.089844 52.621094 9.070312 52.621094 9.054688 52.621094 C 5.878906 52.601562 2.96875 51 1.636719 48.539062 C 0.347656 46.144531 0.589844 42.953125 2.246094 40.589844 C 3.742188 38.453125 6.316406 37.011719 9.132812 36.738281 C 11.59375 36.492188 14.28125 37.125 16.703125 38.511719 C 17.175781 38.78125 17.339844 39.386719 17.070312 39.859375 C 16.796875 40.332031 16.195312 40.496094 15.722656 40.226562 C 13.65625 39.042969 11.382812 38.503906 9.324219 38.703125 C 7.074219 38.921875 5.03125 40.050781 3.859375 41.722656 C 2.625 43.488281 2.429688 45.847656 3.375 47.597656 C 4.367188 49.4375 6.597656 50.632812 9.0625 50.644531 C 11.175781 50.683594 13.4375 49.886719 15.859375 48.359375 C 16.320312 48.070312 16.929688 48.207031 17.21875 48.667969 C 17.511719 49.132812 17.371094 49.742188 16.910156 50.03125 C 14.1875 51.75 11.5625 52.621094 9.105469 52.621094 Z M 9.105469 52.621094 " fill-opacity="1" fill-rule="nonzero"/></g><path fill="#703627" d="M 5.761719 44.875 C 5.492188 44.875 5.222656 44.765625 5.027344 44.546875 C 4.664062 44.140625 4.699219 43.515625 5.105469 43.152344 C 7.839844 40.703125 12.160156 40.210938 15.375 41.980469 C 15.851562 42.246094 16.027344 42.847656 15.765625 43.324219 C 15.503906 43.800781 14.902344 43.976562 14.425781 43.714844 C 11.917969 42.332031 8.550781 42.714844 6.417969 44.625 C 6.230469 44.792969 5.996094 44.875 5.761719 44.875 Z M 5.761719 44.875 " fill-opacity="1" fill-rule="nonzero"/><path fill="#703627" d="M 15.265625 30.875 C 15.007812 30.875 14.75 30.777344 14.558594 30.578125 C 12.34375 28.296875 11.527344 25.679688 12.195312 23.007812 C 12.957031 19.96875 15.773438 17.558594 18.890625 17.28125 C 21.980469 17.007812 24.40625 18.476562 25.722656 21.417969 C 25.945312 21.914062 25.722656 22.5 25.226562 22.722656 C 24.726562 22.945312 24.144531 22.722656 23.921875 22.226562 C 22.949219 20.050781 21.316406 19.054688 19.066406 19.25 C 16.757812 19.453125 14.671875 21.238281 14.105469 23.488281 C 13.605469 25.488281 14.234375 27.410156 15.972656 29.199219 C 16.351562 29.59375 16.34375 30.21875 15.953125 30.597656 C 15.761719 30.785156 15.511719 30.875 15.265625 30.875 Z M 15.265625 30.875 " fill-opacity="1" fill-rule="nonzero"/><path fill="#703627" d="M 26.730469 69.371094 C 21.035156 69.371094 16.945312 66.261719 14.5 63.625 C 11.082031 59.9375 8.835938 54.832031 9.160156 51.480469 C 9.210938 50.9375 9.695312 50.535156 10.234375 50.59375 C 10.777344 50.644531 11.175781 51.128906 11.121094 51.671875 C 10.890625 54.046875 12.503906 58.570312 15.945312 62.28125 C 18.167969 64.675781 21.894531 67.484375 27.046875 67.390625 C 27.589844 67.355469 28.042969 67.808594 28.054688 68.355469 C 28.066406 68.902344 27.636719 69.351562 27.089844 69.363281 C 26.972656 69.367188 26.851562 69.371094 26.730469 69.371094 Z M 26.730469 69.371094 " fill-opacity="1" fill-rule="nonzero"/><path fill="#fac4af" d="M 45.089844 52.53125 C 45.089844 52.882812 45.023438 53.21875 44.890625 53.546875 C 44.753906 53.871094 44.5625 54.15625 44.316406 54.40625 C 44.066406 54.65625 43.78125 54.847656 43.457031 54.980469 C 43.132812 55.117188 42.792969 55.183594 42.441406 55.183594 C 42.089844 55.183594 41.75 55.117188 41.425781 54.980469 C 41.101562 54.847656 40.816406 54.65625 40.566406 54.40625 C 40.320312 54.15625 40.128906 53.871094 39.992188 53.546875 C 39.859375 53.21875 39.792969 52.882812 39.792969 52.53125 C 39.792969 52.175781 39.859375 51.839844 39.992188 51.511719 C 40.128906 51.1875 40.320312 50.902344 40.566406 50.652344 C 40.816406 50.402344 41.101562 50.210938 41.425781 50.078125 C 41.75 49.941406 42.089844 49.875 42.441406 49.875 C 42.792969 49.875 43.132812 49.941406 43.457031 50.078125 C 43.78125 50.210938 44.066406 50.402344 44.316406 50.652344 C 44.5625 50.902344 44.753906 51.1875 44.890625 51.511719 C 45.023438 51.839844 45.089844 52.175781 45.089844 52.53125 Z M 45.089844 52.53125 " fill-opacity="1" fill-rule="nonzero"/><path fill="#b27966" d="M 55.734375 25.917969 C 57.28125 24.3125 58.964844 22.800781 60.929688 21.746094 C 62.898438 20.691406 65.175781 20.117188 67.378906 20.472656 C 69.925781 20.886719 70.996094 21.992188 72.9375 23.695312 C 75.03125 25.53125 75.53125 27.007812 77.121094 29.296875 C 78.039062 30.621094 79.707031 35.351562 79.820312 36.960938 C 80.007812 39.632812 79.96875 39.789062 78.308594 41.886719 C 76.71875 43.890625 75.105469 45.921875 73.0625 47.460938 C 71.019531 49 68.460938 50.019531 65.925781 49.714844 C 64.175781 49.5 62.550781 48.675781 61.097656 47.675781 C 58.007812 45.542969 55.566406 42.582031 53.519531 39.429688 C 52.492188 37.84375 51.527344 36.109375 51.460938 34.21875 C 51.371094 31.4375 52.960938 28.785156 55.734375 25.917969 Z M 55.734375 25.917969 " fill-opacity="1" fill-rule="nonzero"/><path fill="#703627" d="M 57.351562 32.640625 C 58.0625 32.738281 58.742188 33.078125 59.246094 33.59375 C 59.453125 33.804688 59.644531 34.109375 59.53125 34.382812 C 59.417969 34.652344 59.09375 34.738281 58.808594 34.789062 C 58.199219 34.898438 57.582031 35.011719 56.96875 34.945312 C 56.394531 34.886719 55.773438 34.601562 55.609375 34.050781 C 55.484375 33.628906 55.679688 33.152344 56.023438 32.882812 C 56.371094 32.613281 56.828125 32.570312 57.351562 32.640625 Z M 57.351562 32.640625 " fill-opacity="1" fill-rule="nonzero"/><path fill="#703627" d="M 63.761719 26.445312 C 63.832031 27.164062 64.148438 27.855469 64.644531 28.375 C 64.847656 28.59375 65.144531 28.792969 65.425781 28.6875 C 65.695312 28.589844 65.789062 28.265625 65.851562 27.984375 C 65.984375 27.378906 66.121094 26.761719 66.078125 26.144531 C 66.039062 25.570312 65.777344 24.9375 65.230469 24.753906 C 64.816406 24.613281 64.332031 24.792969 64.050781 25.128906 C 63.769531 25.464844 63.710938 25.921875 63.761719 26.445312 Z M 63.761719 26.445312 " fill-opacity="1" fill-rule="nonzero"/><path fill="#703627" d="M 67.050781 44.382812 C 66.320312 44.382812 65.554688 44.203125 64.828125 43.839844 C 64.460938 43.660156 64.3125 43.214844 64.492188 42.847656 C 64.675781 42.484375 65.117188 42.332031 65.484375 42.515625 C 66.574219 43.054688 67.785156 43.023438 68.503906 42.433594 C 69.183594 41.875 69.457031 40.789062 69.203125 39.6875 L 68.53125 38.980469 C 67 37.375 65.476562 35.777344 64.140625 34.34375 C 63.859375 34.042969 63.875 33.574219 64.171875 33.296875 C 64.472656 33.015625 64.941406 33.03125 65.21875 33.332031 C 66.554688 34.761719 68.074219 36.355469 69.601562 37.960938 L 70.535156 38.9375 L 70.585938 39.117188 C 71.070312 40.859375 70.621094 42.613281 69.441406 43.578125 C 68.789062 44.113281 67.949219 44.382812 67.050781 44.382812 Z M 67.050781 44.382812 " fill-opacity="1" fill-rule="nonzero"/><path fill="#703627" d="M 71.078125 40.117188 C 70.648438 40.117188 70.203125 40.054688 69.757812 39.921875 C 69.367188 39.808594 69.144531 39.394531 69.257812 39.003906 C 69.375 38.609375 69.785156 38.382812 70.179688 38.503906 C 71.273438 38.824219 72.339844 38.550781 72.890625 37.800781 C 73.460938 37.023438 73.484375 35.71875 72.945312 34.554688 C 72.773438 34.183594 72.9375 33.742188 73.308594 33.570312 C 73.675781 33.394531 74.117188 33.558594 74.289062 33.929688 C 75.058594 35.59375 74.976562 37.457031 74.082031 38.679688 C 73.398438 39.609375 72.292969 40.117188 71.078125 40.117188 Z M 71.078125 40.117188 " fill-opacity="1" fill-rule="nonzero"/><g clip-path="url(#cda0ae69b7)"><path fill="#703627" d="M 54.148438 67.488281 C 53.660156 67.488281 53.238281 67.128906 53.171875 66.632812 C 53.097656 66.09375 53.476562 65.59375 54.015625 65.523438 C 61.023438 64.574219 67.371094 61.574219 71.886719 57.066406 C 76.777344 52.191406 79.457031 45.472656 79.054688 39.09375 C 78.660156 32.804688 75.226562 26.507812 69.875 22.253906 C 64.957031 18.34375 58.386719 16.03125 51.378906 15.742188 C 45.164062 15.488281 38.558594 16.734375 31.738281 19.464844 C 24.1875 22.480469 14.679688 29.578125 11.644531 38.023438 C 11.460938 38.535156 10.894531 38.804688 10.382812 38.617188 C 9.871094 38.433594 9.605469 37.867188 9.789062 37.355469 C 13.046875 28.285156 22.792969 20.914062 31.003906 17.628906 C 38.085938 14.796875 44.96875 13.496094 51.460938 13.769531 C 58.882812 14.074219 65.855469 16.539062 71.101562 20.707031 C 76.886719 25.300781 80.59375 32.128906 81.023438 38.96875 C 81.460938 45.90625 78.566406 53.195312 73.28125 58.46875 C 68.460938 63.277344 61.710938 66.476562 54.28125 67.480469 C 54.234375 67.484375 54.191406 67.488281 54.148438 67.488281 Z M 54.148438 67.488281 " fill-opacity="1" fill-rule="nonzero"/></g><path fill="#c48c71" d="M 56.746094 20.585938 C 56.714844 20.585938 56.679688 20.582031 56.644531 20.578125 L 51.128906 20.015625 C 50.589844 19.960938 50.195312 19.472656 50.25 18.933594 C 50.304688 18.390625 50.789062 17.984375 51.332031 18.050781 L 56.847656 18.613281 C 57.386719 18.667969 57.78125 19.15625 57.726562 19.695312 C 57.675781 20.207031 57.246094 20.585938 56.746094 20.585938 Z M 56.746094 20.585938 " fill-opacity="1" fill-rule="nonzero"/><path fill="#c48c71" d="M 38.375 21.125 C 37.921875 21.125 37.511719 20.808594 37.414062 20.34375 C 37.300781 19.8125 37.640625 19.285156 38.171875 19.171875 L 44.019531 17.925781 C 44.550781 17.8125 45.074219 18.152344 45.1875 18.683594 C 45.300781 19.21875 44.960938 19.742188 44.429688 19.855469 L 38.582031 21.105469 C 38.511719 21.121094 38.445312 21.125 38.375 21.125 Z M 38.375 21.125 " fill-opacity="1" fill-rule="nonzero"/><path fill="#c48c71" d="M 50.515625 26.066406 C 50.507812 26.066406 50.5 26.066406 50.496094 26.066406 L 44.988281 25.945312 C 44.445312 25.933594 44.011719 25.480469 44.027344 24.9375 C 44.039062 24.390625 44.488281 23.976562 45.03125 23.972656 L 50.539062 24.089844 C 51.082031 24.101562 51.511719 24.554688 51.5 25.101562 C 51.488281 25.636719 51.050781 26.066406 50.515625 26.066406 Z M 50.515625 26.066406 " fill-opacity="1" fill-rule="nonzero"/><path fill="#c48c71" d="M 32.304688 28.300781 C 31.890625 28.300781 31.503906 28.035156 31.367188 27.617188 C 31.199219 27.097656 31.484375 26.542969 32.003906 26.375 L 37.496094 24.59375 C 38.015625 24.429688 38.570312 24.714844 38.738281 25.230469 C 38.90625 25.75 38.621094 26.308594 38.105469 26.476562 L 32.609375 28.253906 C 32.507812 28.285156 32.40625 28.300781 32.304688 28.300781 Z M 32.304688 28.300781 " fill-opacity="1" fill-rule="nonzero"/><path fill="#c48c71" d="M 25.210938 27.617188 C 24.886719 27.617188 24.566406 27.457031 24.378906 27.160156 C 24.085938 26.699219 24.222656 26.089844 24.679688 25.796875 L 29.957031 22.433594 C 30.417969 22.144531 31.027344 22.277344 31.320312 22.738281 C 31.613281 23.199219 31.476562 23.808594 31.015625 24.101562 L 25.738281 27.464844 C 25.574219 27.566406 25.390625 27.617188 25.210938 27.617188 Z M 25.210938 27.617188 " fill-opacity="1" fill-rule="nonzero"/><path fill="#c58d72" d="M 15.988281 78.207031 C 15.738281 78.207031 15.492188 78.113281 15.300781 77.925781 C 14.910156 77.546875 14.898438 76.921875 15.277344 76.53125 L 20.832031 70.796875 C 21.210938 70.40625 21.835938 70.394531 22.226562 70.777344 C 22.617188 71.15625 22.628906 71.78125 22.25 72.171875 L 16.695312 77.90625 C 16.5 78.105469 16.242188 78.207031 15.988281 78.207031 Z M 15.988281 78.207031 " fill-opacity="1" fill-rule="nonzero"/><path fill="#c58d72" d="M 10.480469 93.203125 C 10.472656 93.203125 10.460938 93.203125 10.453125 93.203125 C 9.90625 93.1875 9.480469 92.734375 9.496094 92.1875 C 9.578125 89.3125 10.132812 86.488281 11.148438 83.796875 C 11.339844 83.285156 11.910156 83.027344 12.421875 83.222656 C 12.929688 83.414062 13.1875 83.984375 12.996094 84.492188 C 12.054688 86.980469 11.542969 89.589844 11.464844 92.246094 C 11.449219 92.78125 11.011719 93.203125 10.480469 93.203125 Z M 10.480469 93.203125 " fill-opacity="1" fill-rule="nonzero"/><path fill="#c58d72" d="M 15.101562 87.011719 C 14.972656 87.011719 14.84375 86.984375 14.71875 86.933594 C 14.21875 86.71875 13.984375 86.140625 14.195312 85.636719 C 15.355469 82.894531 16.933594 80.363281 18.882812 78.117188 C 19.238281 77.703125 19.859375 77.660156 20.273438 78.019531 C 20.683594 78.375 20.726562 79 20.371094 79.410156 C 18.558594 81.503906 17.089844 83.855469 16.011719 86.410156 C 15.851562 86.785156 15.488281 87.011719 15.101562 87.011719 Z M 15.101562 87.011719 " fill-opacity="1" fill-rule="nonzero"/><path fill="#a1b2de" d="M 27.058594 90.214844 L 32.160156 86.296875 C 32.339844 86.160156 32.597656 86.195312 32.738281 86.375 L 48.8125 107.375 C 48.949219 107.554688 48.917969 107.816406 48.734375 107.953125 L 43.636719 111.871094 C 43.453125 112.007812 43.195312 111.972656 43.058594 111.792969 L 26.984375 90.792969 C 26.84375 90.613281 26.878906 90.351562 27.058594 90.214844 Z M 27.058594 90.214844 " fill-opacity="1" fill-rule="nonzero"/><path fill="#b7c5e8" d="M 28.527344 89.089844 L 32.25 86.230469 C 32.378906 86.128906 32.566406 86.15625 32.667969 86.285156 L 47.207031 105.28125 C 47.308594 105.414062 47.285156 105.601562 47.152344 105.703125 L 43.429688 108.558594 C 43.296875 108.660156 43.109375 108.636719 43.007812 108.503906 L 28.46875 89.511719 C 28.371094 89.378906 28.394531 89.191406 28.527344 89.089844 Z M 28.527344 89.089844 " fill-opacity="1" fill-rule="nonzero"/><path fill="#ced8f2" d="M 31.75 88.394531 L 32.992188 87.441406 C 33.035156 87.40625 33.097656 87.417969 33.128906 87.460938 L 43.875 101.496094 C 43.90625 101.539062 43.898438 101.601562 43.855469 101.636719 L 42.613281 102.589844 C 42.570312 102.621094 42.507812 102.613281 42.472656 102.570312 L 31.730469 88.535156 C 31.699219 88.492188 31.707031 88.429688 31.75 88.394531 Z M 31.75 88.394531 " fill-opacity="1" fill-rule="nonzero"/><path fill="#a1b2de" d="M 32.8125 85.796875 L 37.914062 81.882812 C 38.09375 81.742188 38.351562 81.777344 38.488281 81.957031 L 54.566406 102.957031 C 54.703125 103.140625 54.667969 103.398438 54.488281 103.535156 L 49.386719 107.453125 C 49.207031 107.589844 48.949219 107.554688 48.8125 107.375 L 32.738281 86.375 C 32.597656 86.195312 32.632812 85.9375 32.8125 85.796875 Z M 32.8125 85.796875 " fill-opacity="1" fill-rule="nonzero"/><path fill="#b7c5e8" d="M 34.28125 84.671875 L 38 81.8125 C 38.132812 81.710938 38.320312 81.738281 38.421875 81.867188 L 52.960938 100.863281 C 53.0625 100.996094 53.039062 101.183594 52.90625 101.285156 L 49.183594 104.140625 C 49.050781 104.242188 48.863281 104.21875 48.761719 104.085938 L 34.222656 85.09375 C 34.125 84.960938 34.148438 84.773438 34.28125 84.671875 Z M 34.28125 84.671875 " fill-opacity="1" fill-rule="nonzero"/><path fill="#ced8f2" d="M 37.503906 83.976562 L 38.746094 83.023438 C 38.789062 82.992188 38.851562 83 38.882812 83.042969 L 49.628906 97.078125 C 49.660156 97.121094 49.652344 97.183594 49.609375 97.21875 L 48.367188 98.171875 C 48.324219 98.203125 48.261719 98.195312 48.226562 98.152344 L 37.484375 84.117188 C 37.453125 84.074219 37.460938 84.011719 37.503906 83.976562 Z M 37.503906 83.976562 " fill-opacity="1" fill-rule="nonzero"/><g clip-path="url(#80743dc49c)"><path fill="#703627" d="M 43.792969 112.0625 C 42.714844 112.0625 41.648438 111.578125 40.945312 110.65625 L 27.53125 93.132812 C 26.328125 91.558594 26.625 89.300781 28.195312 88.097656 L 29.824219 86.847656 C 30.585938 86.265625 31.523438 86.015625 32.472656 86.136719 C 33.421875 86.261719 34.265625 86.75 34.851562 87.511719 L 48.265625 105.035156 C 48.847656 105.796875 49.097656 106.742188 48.972656 107.691406 C 48.847656 108.640625 48.359375 109.488281 47.601562 110.070312 L 45.96875 111.320312 C 45.320312 111.820312 44.554688 112.0625 43.792969 112.0625 Z M 29.394531 89.664062 C 28.6875 90.207031 28.554688 91.222656 29.097656 91.929688 L 42.511719 109.453125 C 42.773438 109.796875 43.152344 110.015625 43.578125 110.074219 C 44.003906 110.132812 44.429688 110.015625 44.769531 109.753906 L 46.398438 108.503906 C 46.742188 108.238281 46.960938 107.859375 47.019531 107.433594 C 47.074219 107.003906 46.960938 106.582031 46.699219 106.238281 L 33.285156 88.714844 C 33.023438 88.371094 32.644531 88.152344 32.214844 88.097656 C 31.789062 88.039062 31.367188 88.152344 31.023438 88.414062 Z M 29.394531 89.664062 " fill-opacity="1" fill-rule="nonzero"/></g><path fill="#703627" d="M 49.550781 107.644531 C 49.394531 107.644531 49.234375 107.632812 49.074219 107.613281 C 48.125 107.488281 47.28125 107 46.699219 106.238281 L 33.285156 88.714844 C 32.703125 87.953125 32.449219 87.011719 32.574219 86.058594 C 32.699219 85.109375 33.1875 84.265625 33.949219 83.679688 L 35.578125 82.429688 C 36.339844 81.847656 37.28125 81.589844 38.226562 81.71875 C 39.175781 81.84375 40.019531 82.332031 40.601562 83.09375 L 54.019531 100.621094 C 54.601562 101.378906 54.851562 102.324219 54.726562 103.273438 C 54.601562 104.222656 54.113281 105.070312 53.355469 105.652344 L 51.722656 106.902344 C 51.09375 107.390625 50.335938 107.644531 49.550781 107.644531 Z M 37.753906 83.664062 C 37.402344 83.664062 37.0625 83.777344 36.777344 83.996094 L 35.148438 85.25 C 34.804688 85.511719 34.585938 85.890625 34.53125 86.320312 C 34.472656 86.746094 34.585938 87.167969 34.851562 87.511719 L 48.265625 105.035156 C 48.527344 105.378906 48.90625 105.597656 49.332031 105.65625 C 49.757812 105.710938 50.183594 105.597656 50.523438 105.335938 L 52.152344 104.085938 C 52.496094 103.824219 52.714844 103.441406 52.769531 103.015625 C 52.828125 102.585938 52.714844 102.164062 52.453125 101.820312 L 39.039062 84.296875 C 38.777344 83.953125 38.398438 83.734375 37.96875 83.679688 C 37.898438 83.667969 37.828125 83.664062 37.753906 83.664062 Z M 37.753906 83.664062 " fill-opacity="1" fill-rule="nonzero"/></svg>