<svg xmlns="http://www.w3.org/2000/svg" xmlns:xlink="http://www.w3.org/1999/xlink" width="40" zoomAndPan="magnify" viewBox="0 0 30 30.000001" height="40" preserveAspectRatio="xMidYMid meet" version="1.0"><defs><clipPath id="f0b5f6fc3e"><path d="M 0.484375 0 L 29.515625 0 L 29.515625 29.03125 L 0.484375 29.03125 Z M 0.484375 0 " clip-rule="nonzero"/></clipPath><clipPath id="51f6a4cb01"><path d="M 21 0 L 29.515625 0 L 29.515625 8 L 21 8 Z M 21 0 " clip-rule="nonzero"/></clipPath></defs><g clip-path="url(#f0b5f6fc3e)"><path fill="#c7f9cc" d="M 27.84375 12.3125 C 27.640625 12.3125 27.449219 12.351562 27.261719 12.429688 C 27.078125 12.503906 26.910156 12.613281 26.769531 12.757812 C 26.625 12.898438 26.515625 13.0625 26.441406 13.25 C 26.363281 13.4375 26.324219 13.628906 26.324219 13.832031 L 26.324219 24.308594 C 26.324219 24.53125 26.28125 24.746094 26.195312 24.953125 C 26.109375 25.160156 25.988281 25.339844 25.832031 25.5 C 25.671875 25.65625 25.492188 25.777344 25.285156 25.863281 C 25.078125 25.949219 24.863281 25.992188 24.640625 25.992188 L 5.207031 25.992188 C 4.984375 25.992188 4.769531 25.949219 4.5625 25.863281 C 4.355469 25.777344 4.175781 25.65625 4.019531 25.5 C 3.859375 25.339844 3.738281 25.160156 3.652344 24.953125 C 3.566406 24.746094 3.523438 24.53125 3.523438 24.308594 L 3.523438 4.875 C 3.523438 4.652344 3.566406 4.4375 3.652344 4.230469 C 3.738281 4.023438 3.859375 3.84375 4.019531 3.6875 C 4.175781 3.527344 4.355469 3.40625 4.5625 3.320312 C 4.769531 3.234375 4.984375 3.191406 5.207031 3.191406 L 15.683594 3.191406 C 15.886719 3.191406 16.078125 3.152344 16.265625 3.078125 C 16.453125 3 16.617188 2.890625 16.757812 2.746094 C 16.902344 2.605469 17.011719 2.441406 17.089844 2.253906 C 17.164062 2.066406 17.203125 1.875 17.203125 1.671875 C 17.203125 1.46875 17.164062 1.277344 17.089844 1.089844 C 17.011719 0.902344 16.902344 0.738281 16.757812 0.597656 C 16.617188 0.453125 16.453125 0.34375 16.265625 0.269531 C 16.078125 0.191406 15.886719 0.152344 15.683594 0.152344 L 5.207031 0.152344 C 4.898438 0.152344 4.589844 0.183594 4.285156 0.242188 C 3.980469 0.304688 3.6875 0.394531 3.398438 0.511719 C 3.113281 0.632812 2.84375 0.777344 2.585938 0.949219 C 2.328125 1.121094 2.089844 1.316406 1.867188 1.535156 C 1.648438 1.757812 1.453125 1.996094 1.28125 2.253906 C 1.109375 2.511719 0.964844 2.78125 0.84375 3.066406 C 0.726562 3.355469 0.636719 3.648438 0.574219 3.953125 C 0.515625 4.257812 0.484375 4.566406 0.484375 4.875 L 0.484375 24.308594 C 0.484375 24.621094 0.515625 24.925781 0.574219 25.230469 C 0.636719 25.535156 0.726562 25.828125 0.84375 26.117188 C 0.964844 26.402344 1.109375 26.675781 1.28125 26.933594 C 1.453125 27.191406 1.648438 27.429688 1.867188 27.648438 C 2.089844 27.867188 2.328125 28.0625 2.585938 28.234375 C 2.84375 28.40625 3.113281 28.550781 3.398438 28.671875 C 3.6875 28.789062 3.980469 28.878906 4.285156 28.941406 C 4.589844 29 4.898438 29.03125 5.207031 29.03125 L 24.640625 29.03125 C 24.953125 29.03125 25.257812 29 25.5625 28.941406 C 25.867188 28.878906 26.160156 28.789062 26.449219 28.671875 C 26.734375 28.550781 27.007812 28.40625 27.265625 28.234375 C 27.519531 28.0625 27.761719 27.867188 27.980469 27.648438 C 28.199219 27.429688 28.394531 27.191406 28.566406 26.933594 C 28.738281 26.675781 28.882812 26.402344 29.003906 26.117188 C 29.121094 25.828125 29.210938 25.535156 29.273438 25.230469 C 29.332031 24.925781 29.363281 24.621094 29.363281 24.308594 L 29.363281 13.832031 C 29.363281 13.628906 29.324219 13.4375 29.25 13.25 C 29.171875 13.0625 29.0625 12.898438 28.917969 12.757812 C 28.777344 12.613281 28.613281 12.503906 28.425781 12.429688 C 28.238281 12.351562 28.046875 12.3125 27.84375 12.3125 Z M 27.84375 12.3125 " fill-opacity="1" fill-rule="nonzero"/></g><g clip-path="url(#51f6a4cb01)"><path fill="#c7f9cc" d="M 28.453125 6.699219 C 28.714844 6.433594 28.917969 6.132812 29.058594 5.785156 C 29.203125 5.441406 29.273438 5.085938 29.273438 4.710938 C 29.273438 4.339844 29.203125 3.980469 29.058594 3.636719 C 28.917969 3.292969 28.714844 2.988281 28.453125 2.726562 L 26.789062 1.0625 C 26.527344 0.800781 26.222656 0.597656 25.878906 0.457031 C 25.535156 0.3125 25.175781 0.242188 24.804688 0.242188 C 24.429688 0.242188 24.074219 0.3125 23.730469 0.457031 C 23.386719 0.597656 23.082031 0.800781 22.816406 1.0625 L 21.542969 2.339844 L 27.175781 7.972656 Z M 28.453125 6.699219 " fill-opacity="1" fill-rule="nonzero"/></g><path fill="#c7f9cc" d="M 10.363281 13.832031 L 10.363281 18.390625 C 10.363281 18.601562 10.4375 18.78125 10.585938 18.929688 C 10.734375 19.078125 10.914062 19.152344 11.125 19.152344 L 15.683594 19.152344 C 15.894531 19.152344 16.074219 19.078125 16.222656 18.929688 L 25.027344 10.125 L 19.390625 4.488281 L 10.585938 13.292969 C 10.4375 13.441406 10.363281 13.621094 10.363281 13.832031 Z M 10.363281 13.832031 " fill-opacity="1" fill-rule="nonzero"/></svg>