<svg xmlns="http://www.w3.org/2000/svg" xmlns:xlink="http://www.w3.org/1999/xlink" width="40" zoomAndPan="magnify" viewBox="0 0 30 30.000001" height="40" preserveAspectRatio="xMidYMid meet" version="1.0"><defs><clipPath id="ef6a35ce22"><path d="M 1.179688 1.332031 L 28.753906 1.332031 L 28.753906 27.460938 L 1.179688 27.460938 Z M 1.179688 1.332031 " clip-rule="nonzero"/></clipPath><clipPath id="d7d72508aa"><path d="M 6.085938 9.710938 L 28.753906 9.710938 L 28.753906 27.460938 L 6.085938 27.460938 Z M 6.085938 9.710938 " clip-rule="nonzero"/></clipPath></defs><g clip-path="url(#ef6a35ce22)"><path fill="#ffd815" d="M 15.773438 1.828125 L 19.335938 9 C 19.46875 9.265625 19.722656 9.449219 20.011719 9.488281 L 27.984375 10.640625 C 28.722656 10.746094 29.015625 11.644531 28.480469 12.160156 L 22.714844 17.746094 C 22.503906 17.949219 22.40625 18.246094 22.457031 18.535156 L 23.816406 26.417969 C 23.945312 27.144531 23.171875 27.703125 22.515625 27.359375 L 15.382812 23.636719 C 15.121094 23.5 14.808594 23.5 14.546875 23.636719 L 7.417969 27.359375 C 6.761719 27.703125 5.988281 27.144531 6.117188 26.417969 L 7.476562 18.535156 C 7.527344 18.246094 7.429688 17.949219 7.21875 17.746094 L 1.449219 12.160156 C 0.917969 11.644531 1.210938 10.746094 1.949219 10.640625 L 9.917969 9.488281 C 10.210938 9.449219 10.464844 9.265625 10.597656 9 L 14.160156 1.828125 C 14.492188 1.167969 15.441406 1.167969 15.773438 1.828125 " fill-opacity="1" fill-rule="nonzero"/></g><g clip-path="url(#d7d72508aa)"><path fill="#ffbd1a" d="M 28.480469 12.160156 C 29.015625 11.644531 28.722656 10.746094 27.984375 10.640625 L 21.570312 9.714844 C 20.816406 13.199219 18.714844 16.304688 15.625 18.226562 C 13.09375 19.800781 10.121094 20.4375 7.199219 20.140625 L 6.117188 26.417969 C 5.988281 27.144531 6.761719 27.703125 7.417969 27.359375 L 14.546875 23.636719 C 14.808594 23.5 15.121094 23.5 15.382812 23.636719 L 22.515625 27.359375 C 23.171875 27.703125 23.945312 27.144531 23.816406 26.417969 L 22.457031 18.535156 C 22.40625 18.246094 22.503906 17.949219 22.714844 17.746094 L 28.480469 12.160156 " fill-opacity="1" fill-rule="nonzero"/></g></svg>