<svg xmlns="http://www.w3.org/2000/svg" xmlns:xlink="http://www.w3.org/1999/xlink" width="100" zoomAndPan="magnify" viewBox="0 0 75 74.999997" height="100" preserveAspectRatio="xMidYMid meet" version="1.0"><defs><clipPath id="75c4d995b3"><path d="M 15.148438 3 L 47 3 L 47 34 L 15.148438 34 Z M 15.148438 3 " clip-rule="nonzero"/></clipPath><clipPath id="f05c1b8207"><path d="M 41 17 L 65.398438 17 L 65.398438 54 L 41 54 Z M 41 17 " clip-rule="nonzero"/></clipPath></defs><path fill="#7dcec7" d="M 52.304688 66.199219 L 41.148438 66.121094 L 40.207031 66.113281 L 38.40625 66.101562 L 37.914062 66.09375 L 30.292969 66.046875 L 29.828125 66.039062 L 28.363281 66.027344 L 27.910156 66.027344 L 24.695312 66 C 24.453125 66 24.222656 65.898438 24.066406 65.71875 C 21.925781 63.277344 21.941406 60.890625 24.109375 58.433594 C 24.253906 58.265625 24.460938 58.164062 24.691406 58.148438 C 25.796875 58.078125 26.898438 58.015625 28.003906 57.960938 C 28.164062 57.949219 28.316406 57.945312 28.472656 57.933594 C 29.128906 57.902344 29.785156 57.871094 30.441406 57.847656 L 30.445312 57.847656 C 30.609375 57.835938 30.777344 57.832031 30.941406 57.828125 C 33.445312 57.726562 35.9375 57.667969 38.429688 57.648438 C 38.605469 57.648438 38.78125 57.648438 38.957031 57.644531 L 38.960938 57.644531 C 39.578125 57.644531 40.199219 57.640625 40.816406 57.644531 L 41.328125 57.644531 C 44.832031 57.660156 48.324219 57.742188 51.796875 57.910156 C 51.039062 57.929688 50.28125 57.988281 49.625 58.109375 C 49.507812 58.132812 49.398438 58.152344 49.289062 58.183594 C 49.144531 58.210938 49.011719 58.246094 48.882812 58.289062 C 47.261719 58.792969 46.082031 60.027344 45.886719 61.429688 C 45.660156 63.074219 46.773438 64.546875 47.976562 65.269531 C 48.359375 65.503906 48.863281 65.675781 49.414062 65.804688 C 49.5 65.828125 49.589844 65.847656 49.679688 65.863281 C 50.535156 66.046875 51.488281 66.140625 52.304688 66.199219 Z M 52.304688 66.199219 " fill-opacity="1" fill-rule="nonzero"/><path fill="#703627" d="M 52.304688 66.691406 C 52.300781 66.691406 52.300781 66.691406 52.300781 66.691406 L 24.691406 66.496094 C 24.3125 66.496094 23.945312 66.332031 23.691406 66.046875 C 21.390625 63.417969 21.40625 60.75 23.734375 58.109375 C 23.960938 57.84375 24.300781 57.679688 24.660156 57.65625 C 25.765625 57.585938 26.871094 57.519531 27.980469 57.46875 L 28.4375 57.441406 C 29.105469 57.40625 29.761719 57.378906 30.421875 57.351562 C 30.578125 57.34375 30.75 57.339844 30.914062 57.332031 C 33.417969 57.234375 35.941406 57.175781 38.425781 57.15625 C 38.601562 57.15625 38.773438 57.15625 38.941406 57.152344 L 39.578125 57.148438 C 39.992188 57.148438 40.40625 57.148438 40.820312 57.152344 L 41.328125 57.152344 C 44.941406 57.164062 48.472656 57.253906 51.820312 57.417969 C 52.089844 57.429688 52.296875 57.652344 52.292969 57.917969 C 52.289062 58.179688 52.078125 58.398438 51.808594 58.402344 C 51 58.425781 50.292969 58.488281 49.710938 58.59375 L 49.628906 58.613281 C 49.558594 58.625 49.488281 58.640625 49.421875 58.660156 C 49.269531 58.691406 49.15625 58.71875 49.042969 58.757812 C 47.589844 59.210938 46.550781 60.285156 46.378906 61.496094 C 46.183594 62.921875 47.167969 64.207031 48.234375 64.847656 C 48.542969 65.035156 48.980469 65.195312 49.527344 65.324219 C 49.621094 65.347656 49.691406 65.363281 49.761719 65.375 C 50.675781 65.570312 51.667969 65.65625 52.339844 65.707031 C 52.609375 65.726562 52.8125 65.953125 52.800781 66.21875 C 52.789062 66.484375 52.570312 66.691406 52.304688 66.691406 Z M 28.363281 65.53125 L 30.296875 65.550781 L 47.6875 65.671875 C 46.355469 64.855469 45.136719 63.214844 45.394531 61.363281 C 45.570312 60.085938 46.449219 58.941406 47.722656 58.246094 C 45.632812 58.183594 43.496094 58.148438 41.324219 58.136719 L 40.816406 58.136719 C 40.402344 58.132812 39.988281 58.136719 39.578125 58.136719 L 38.960938 58.136719 C 38.789062 58.140625 38.613281 58.144531 38.429688 58.144531 C 35.960938 58.164062 33.445312 58.222656 30.960938 58.320312 C 30.789062 58.324219 30.628906 58.328125 30.476562 58.339844 C 29.804688 58.363281 29.152344 58.394531 28.496094 58.429688 L 28.035156 58.453125 C 26.925781 58.507812 25.824219 58.570312 24.722656 58.640625 C 24.628906 58.644531 24.546875 58.6875 24.488281 58.753906 C 22.480469 61.03125 22.464844 63.140625 24.441406 65.394531 C 24.503906 65.464844 24.597656 65.507812 24.695312 65.507812 Z M 28.363281 65.53125 " fill-opacity="1" fill-rule="nonzero"/><path fill="#703627" d="M 54.242188 58.039062 C 53.429688 57.992188 52.613281 57.949219 51.796875 57.910156 C 52.621094 57.890625 53.4375 57.917969 54.113281 57.972656 C 54.167969 57.976562 54.210938 58.003906 54.242188 58.039062 Z M 54.242188 58.039062 " fill-opacity="1" fill-rule="nonzero"/><path fill="#ffffff" d="M 62.738281 66.09375 C 62.648438 66.207031 62.515625 66.273438 62.375 66.273438 C 62.371094 66.273438 62.371094 66.273438 62.371094 66.273438 L 53.558594 66.207031 L 53.402344 66.207031 L 52.304688 66.199219 C 51.488281 66.140625 50.535156 66.046875 49.679688 65.863281 C 49.589844 65.847656 49.5 65.828125 49.414062 65.804688 C 48.863281 65.675781 48.359375 65.503906 47.976562 65.269531 C 46.773438 64.546875 45.660156 63.074219 45.886719 61.429688 C 46.082031 60.027344 47.261719 58.792969 48.882812 58.289062 C 49.011719 58.246094 49.144531 58.210938 49.289062 58.183594 C 49.398438 58.152344 49.507812 58.132812 49.625 58.109375 C 50.28125 57.988281 51.039062 57.929688 51.796875 57.910156 C 52.613281 57.949219 53.429688 57.996094 54.242188 58.039062 C 56.695312 58.183594 59.136719 58.363281 61.5625 58.582031 C 61.792969 58.605469 61.972656 58.789062 61.980469 59.015625 C 62.089844 61.066406 62.210938 63.386719 62.816406 65.695312 C 62.859375 65.832031 62.828125 65.980469 62.738281 66.09375 Z M 62.738281 66.09375 " fill-opacity="1" fill-rule="nonzero"/><path fill="#703627" d="M 62.375 66.765625 L 52.300781 66.691406 C 51.566406 66.640625 50.527344 66.550781 49.574219 66.34375 C 49.488281 66.332031 49.378906 66.308594 49.273438 66.277344 C 48.648438 66.132812 48.117188 65.933594 47.71875 65.691406 C 46.375 64.882812 45.136719 63.230469 45.394531 61.363281 C 45.617188 59.773438 46.925781 58.382812 48.734375 57.820312 C 48.867188 57.773438 49.023438 57.734375 49.1875 57.699219 C 49.246094 57.683594 49.335938 57.664062 49.425781 57.644531 L 49.519531 57.625 C 50.164062 57.507812 50.921875 57.441406 51.785156 57.417969 C 52.636719 57.457031 53.453125 57.5 54.269531 57.546875 C 56.667969 57.6875 59.136719 57.867188 61.609375 58.089844 C 62.097656 58.144531 62.457031 58.523438 62.480469 58.996094 L 62.480469 59.050781 C 62.589844 61.058594 62.710938 63.332031 63.300781 65.570312 C 63.378906 65.847656 63.316406 66.164062 63.128906 66.398438 C 62.945312 66.632812 62.671875 66.765625 62.375 66.765625 Z M 62.339844 65.828125 C 62.339844 65.828125 62.339844 65.832031 62.339844 65.832031 C 62.339844 65.832031 62.339844 65.828125 62.339844 65.828125 Z M 62.375 65.777344 Z M 53.558594 65.714844 L 62.324219 65.777344 C 61.722656 63.449219 61.597656 61.140625 61.488281 59.101562 L 61.484375 59.042969 C 59.058594 58.851562 56.597656 58.671875 54.214844 58.53125 C 53.402344 58.488281 52.585938 58.441406 51.773438 58.402344 C 51 58.425781 50.292969 58.488281 49.710938 58.59375 L 49.628906 58.613281 C 49.558594 58.625 49.488281 58.640625 49.421875 58.660156 C 49.269531 58.691406 49.15625 58.71875 49.042969 58.757812 C 47.589844 59.210938 46.550781 60.285156 46.378906 61.496094 C 46.183594 62.921875 47.167969 64.207031 48.234375 64.847656 C 48.542969 65.035156 48.980469 65.195312 49.527344 65.324219 C 49.621094 65.347656 49.691406 65.363281 49.761719 65.375 C 50.675781 65.570312 51.667969 65.65625 52.339844 65.707031 Z M 53.558594 65.714844 " fill-opacity="1" fill-rule="nonzero"/><path fill="#703627" d="M 53.558594 66.210938 C 53.523438 66.25 53.472656 66.273438 53.414062 66.273438 L 53.40625 66.273438 L 53.15625 66.257812 C 52.898438 66.242188 52.613281 66.222656 52.304688 66.199219 L 53.40625 66.207031 Z M 53.558594 66.210938 " fill-opacity="1" fill-rule="nonzero"/><path fill="#fbd490" d="M 49.625 57.59375 L 38.472656 57.515625 C 38.46875 57.515625 38.46875 57.515625 38.46875 57.515625 C 38.195312 57.460938 37.9375 57.328125 37.707031 57.132812 C 37.28125 56.78125 36.953125 56.21875 36.800781 55.53125 C 36.386719 53.660156 37.042969 51.121094 38.339844 49.414062 C 38.441406 49.285156 38.542969 49.15625 38.648438 49.039062 C 42.152344 49.050781 45.644531 49.140625 49.117188 49.304688 C 48.363281 49.324219 47.601562 49.382812 46.945312 49.503906 C 46.832031 49.527344 46.71875 49.550781 46.613281 49.574219 C 46.46875 49.609375 46.332031 49.644531 46.203125 49.683594 C 44.578125 50.191406 43.402344 51.421875 43.207031 52.824219 C 42.976562 54.46875 44.09375 55.9375 45.296875 56.667969 C 45.679688 56.898438 46.179688 57.070312 46.734375 57.199219 C 46.820312 57.222656 46.910156 57.242188 47 57.261719 C 47.855469 57.441406 48.808594 57.535156 49.625 57.59375 Z M 49.625 57.59375 " fill-opacity="1" fill-rule="nonzero"/><path fill="#703627" d="M 49.625 58.089844 C 49.625 58.089844 49.625 58.089844 49.621094 58.089844 L 38.46875 58.007812 C 38.4375 58.007812 38.402344 58.003906 38.371094 58 C 38.019531 57.929688 37.679688 57.757812 37.382812 57.511719 C 36.863281 57.078125 36.484375 56.410156 36.3125 55.632812 C 35.875 53.640625 36.542969 50.960938 37.945312 49.117188 C 38.050781 48.976562 38.160156 48.84375 38.273438 48.714844 C 38.367188 48.605469 38.515625 48.539062 38.648438 48.542969 C 42.175781 48.558594 45.707031 48.648438 49.144531 48.8125 C 49.410156 48.824219 49.621094 49.046875 49.617188 49.3125 C 49.613281 49.578125 49.398438 49.792969 49.132812 49.800781 C 48.324219 49.820312 47.617188 49.882812 47.035156 49.988281 C 46.933594 50.007812 46.832031 50.03125 46.730469 50.054688 C 46.59375 50.085938 46.472656 50.117188 46.359375 50.152344 C 44.910156 50.605469 43.871094 51.679688 43.703125 52.890625 C 43.503906 54.3125 44.488281 55.601562 45.558594 56.246094 C 45.867188 56.433594 46.300781 56.589844 46.847656 56.71875 C 46.9375 56.742188 47.019531 56.757812 47.101562 56.777344 C 47.78125 56.917969 48.621094 57.027344 49.664062 57.101562 C 49.929688 57.121094 50.132812 57.347656 50.125 57.613281 C 50.113281 57.878906 49.894531 58.089844 49.625 58.089844 Z M 38.523438 57.019531 L 45.007812 57.066406 C 43.675781 56.25 42.457031 54.605469 42.714844 52.753906 C 42.894531 51.480469 43.769531 50.335938 45.042969 49.640625 C 43 49.578125 40.9375 49.542969 38.878906 49.53125 C 38.832031 49.589844 38.785156 49.648438 38.738281 49.710938 C 37.519531 51.316406 36.910156 53.71875 37.285156 55.425781 C 37.410156 55.988281 37.671875 56.460938 38.027344 56.757812 C 38.183594 56.890625 38.351562 56.980469 38.523438 57.019531 Z M 38.523438 57.019531 " fill-opacity="1" fill-rule="nonzero"/><path fill="#703627" d="M 51.5625 49.433594 C 50.75 49.386719 49.9375 49.34375 49.117188 49.304688 C 49.941406 49.285156 50.761719 49.3125 51.433594 49.367188 C 51.488281 49.371094 51.535156 49.398438 51.5625 49.433594 Z M 51.5625 49.433594 " fill-opacity="1" fill-rule="nonzero"/><path fill="#ffffff" d="M 60.058594 57.492188 C 59.96875 57.601562 59.835938 57.667969 59.695312 57.667969 C 59.691406 57.667969 59.691406 57.667969 59.691406 57.667969 L 50.878906 57.605469 L 50.726562 57.601562 L 49.625 57.59375 C 48.808594 57.535156 47.855469 57.441406 47 57.261719 C 46.910156 57.242188 46.820312 57.222656 46.734375 57.199219 C 46.179688 57.070312 45.679688 56.898438 45.296875 56.667969 C 44.09375 55.9375 42.976562 54.46875 43.207031 52.824219 C 43.402344 51.421875 44.578125 50.191406 46.203125 49.683594 C 46.332031 49.644531 46.46875 49.609375 46.613281 49.574219 C 46.71875 49.550781 46.832031 49.527344 46.945312 49.503906 C 47.601562 49.382812 48.363281 49.324219 49.117188 49.304688 C 49.9375 49.34375 50.75 49.386719 51.5625 49.433594 C 54.015625 49.578125 56.457031 49.757812 58.886719 49.976562 C 59.113281 50 59.292969 50.183594 59.304688 50.414062 C 59.410156 52.457031 59.53125 54.777344 60.140625 57.089844 C 60.175781 57.230469 60.148438 57.378906 60.058594 57.492188 Z M 60.058594 57.492188 " fill-opacity="1" fill-rule="nonzero"/><path fill="#703627" d="M 59.695312 58.160156 L 49.621094 58.089844 C 48.5 58.007812 47.621094 57.894531 46.898438 57.742188 C 46.800781 57.722656 46.703125 57.703125 46.609375 57.675781 C 45.972656 57.527344 45.441406 57.328125 45.039062 57.085938 C 43.695312 56.277344 42.453125 54.621094 42.714844 52.753906 C 42.9375 51.167969 44.246094 49.777344 46.054688 49.214844 C 46.195312 49.167969 46.34375 49.128906 46.503906 49.09375 C 46.605469 49.070312 46.726562 49.042969 46.847656 49.019531 C 47.488281 48.902344 48.246094 48.832031 49.105469 48.8125 C 49.960938 48.851562 50.777344 48.894531 51.59375 48.941406 C 54.023438 49.082031 56.492188 49.265625 58.933594 49.488281 C 59.40625 49.53125 59.777344 49.917969 59.800781 50.386719 C 59.90625 52.40625 60.023438 54.695312 60.621094 56.964844 C 60.695312 57.257812 60.636719 57.558594 60.453125 57.792969 C 60.449219 57.796875 60.449219 57.796875 60.445312 57.800781 C 60.261719 58.03125 59.988281 58.160156 59.695312 58.160156 Z M 60.058594 57.492188 L 60.0625 57.492188 Z M 49.09375 49.800781 C 48.324219 49.820312 47.617188 49.882812 47.035156 49.988281 C 46.933594 50.007812 46.832031 50.03125 46.730469 50.054688 C 46.59375 50.085938 46.472656 50.117188 46.359375 50.152344 C 44.910156 50.605469 43.871094 51.679688 43.703125 52.890625 C 43.503906 54.3125 44.488281 55.601562 45.558594 56.246094 C 45.867188 56.433594 46.300781 56.589844 46.847656 56.71875 C 46.9375 56.742188 47.019531 56.757812 47.101562 56.777344 C 47.78125 56.917969 48.621094 57.027344 49.664062 57.101562 L 59.648438 57.175781 C 59.035156 54.824219 58.914062 52.496094 58.808594 50.4375 C 56.414062 50.25 53.957031 50.070312 51.535156 49.929688 C 50.722656 49.878906 49.910156 49.835938 49.09375 49.800781 Z M 49.09375 49.800781 " fill-opacity="1" fill-rule="nonzero"/><path fill="#703627" d="M 50.878906 57.605469 C 50.84375 57.644531 50.792969 57.667969 50.738281 57.667969 L 50.726562 57.667969 L 50.480469 57.652344 C 50.21875 57.636719 49.933594 57.617188 49.625 57.59375 L 50.726562 57.601562 Z M 50.878906 57.605469 " fill-opacity="1" fill-rule="nonzero"/><path fill="#f7b4c6" d="M 37.707031 57.136719 C 37.9375 57.328125 38.195312 57.460938 38.46875 57.515625 L 37.53125 57.511719 L 35.726562 57.496094 L 35.238281 57.492188 C 35.144531 57.367188 35.0625 57.238281 34.976562 57.117188 C 34.152344 55.835938 33.84375 54.597656 33.996094 53.195312 C 34.140625 51.835938 34.65625 50.5 35.449219 49.421875 C 35.542969 49.292969 35.644531 49.164062 35.746094 49.046875 C 35.925781 49.046875 36.101562 49.039062 36.28125 49.039062 C 36.59375 49.039062 36.902344 49.035156 37.210938 49.035156 C 37.519531 49.035156 37.824219 49.039062 38.140625 49.039062 C 38.308594 49.035156 38.476562 49.039062 38.648438 49.039062 C 38.542969 49.160156 38.4375 49.28125 38.34375 49.414062 C 37.046875 51.125 36.390625 53.660156 36.800781 55.53125 C 36.949219 56.21875 37.277344 56.78125 37.707031 57.136719 Z M 37.707031 57.136719 " fill-opacity="1" fill-rule="nonzero"/><path fill="#703627" d="M 38.46875 58.007812 C 38.46875 58.007812 38.464844 58.007812 38.464844 58.007812 L 35.234375 57.984375 C 35.082031 57.984375 34.9375 57.910156 34.84375 57.789062 C 34.761719 57.683594 34.6875 57.574219 34.613281 57.46875 L 34.566406 57.394531 C 33.671875 56.007812 33.335938 54.660156 33.503906 53.144531 C 33.652344 51.710938 34.203125 50.285156 35.046875 49.128906 C 35.152344 48.988281 35.257812 48.847656 35.371094 48.71875 C 35.46875 48.613281 35.605469 48.550781 35.746094 48.550781 L 37.210938 48.542969 L 38.140625 48.546875 C 38.246094 48.542969 38.363281 48.542969 38.484375 48.546875 L 38.648438 48.546875 C 38.84375 48.546875 39.019531 48.660156 39.101562 48.835938 C 39.179688 49.011719 39.148438 49.21875 39.019531 49.363281 C 38.929688 49.46875 38.835938 49.582031 38.75 49.699219 C 37.523438 51.316406 36.910156 53.71875 37.289062 55.425781 C 37.410156 55.992188 37.671875 56.464844 38.027344 56.757812 C 38.199219 56.902344 38.378906 56.996094 38.566406 57.03125 C 38.816406 57.082031 38.988281 57.3125 38.960938 57.566406 C 38.9375 57.816406 38.722656 58.007812 38.46875 58.007812 Z M 35.496094 57 L 36.917969 57.011719 C 36.636719 56.628906 36.429688 56.15625 36.316406 55.636719 C 35.90625 53.785156 36.453125 51.34375 37.652344 49.53125 L 37.210938 49.527344 L 35.984375 49.535156 C 35.9375 49.59375 35.894531 49.652344 35.851562 49.710938 C 35.109375 50.726562 34.625 51.984375 34.492188 53.25 C 34.347656 54.550781 34.628906 55.660156 35.394531 56.847656 L 35.441406 56.914062 C 35.460938 56.941406 35.476562 56.972656 35.496094 57 Z M 35.496094 57 " fill-opacity="1" fill-rule="nonzero"/><path fill="#fbd490" d="M 33.996094 53.195312 C 33.84375 54.597656 34.152344 55.835938 34.976562 57.117188 C 35.0625 57.238281 35.144531 57.367188 35.238281 57.492188 L 27.617188 57.4375 L 27.148438 57.433594 L 25.679688 57.421875 L 25.226562 57.417969 L 22.015625 57.398438 C 21.773438 57.390625 21.542969 57.292969 21.382812 57.109375 C 19.246094 54.667969 19.261719 52.28125 21.429688 49.824219 C 21.574219 49.660156 21.785156 49.558594 22.011719 49.542969 C 23.121094 49.472656 24.222656 49.410156 25.328125 49.351562 C 25.480469 49.347656 25.636719 49.335938 25.789062 49.328125 L 25.796875 49.328125 C 26.453125 49.296875 27.109375 49.265625 27.765625 49.242188 C 27.933594 49.234375 28.097656 49.226562 28.265625 49.222656 C 30.765625 49.125 33.253906 49.066406 35.746094 49.046875 C 35.644531 49.164062 35.542969 49.292969 35.449219 49.421875 C 34.65625 50.5 34.140625 51.835938 33.996094 53.195312 Z M 33.996094 53.195312 " fill-opacity="1" fill-rule="nonzero"/><path fill="#703627" d="M 35.238281 57.984375 C 35.238281 57.984375 35.238281 57.984375 35.234375 57.984375 L 22.011719 57.890625 C 21.617188 57.882812 21.253906 57.714844 21.007812 57.433594 C 18.710938 54.808594 18.726562 52.140625 21.054688 49.5 C 21.285156 49.238281 21.621094 49.074219 21.976562 49.050781 C 23.089844 48.980469 24.195312 48.917969 25.300781 48.859375 C 25.460938 48.851562 25.609375 48.84375 25.757812 48.832031 C 26.429688 48.804688 27.089844 48.773438 27.746094 48.75 C 27.910156 48.738281 28.078125 48.734375 28.253906 48.730469 C 30.738281 48.632812 33.261719 48.570312 35.742188 48.550781 C 35.929688 48.539062 36.117188 48.664062 36.199219 48.839844 C 36.28125 49.015625 36.25 49.222656 36.121094 49.371094 C 36.027344 49.476562 35.9375 49.59375 35.851562 49.710938 C 35.109375 50.726562 34.625 51.984375 34.492188 53.25 C 34.347656 54.550781 34.628906 55.660156 35.394531 56.847656 L 35.441406 56.914062 C 35.503906 57.007812 35.566406 57.101562 35.636719 57.191406 C 35.75 57.34375 35.769531 57.542969 35.683594 57.710938 C 35.601562 57.878906 35.429688 57.984375 35.238281 57.984375 Z M 34.761719 49.546875 C 32.609375 49.574219 30.4375 49.632812 28.285156 49.714844 C 28.117188 49.722656 27.957031 49.726562 27.792969 49.734375 C 27.128906 49.761719 26.472656 49.789062 25.816406 49.820312 C 25.660156 49.828125 25.503906 49.839844 25.34375 49.84375 C 24.253906 49.902344 23.148438 49.96875 22.042969 50.035156 C 21.953125 50.042969 21.859375 50.085938 21.800781 50.152344 C 19.796875 52.421875 19.785156 54.53125 21.757812 56.789062 C 21.824219 56.859375 21.917969 56.902344 22.027344 56.902344 L 34.320312 56.992188 C 33.609375 55.746094 33.351562 54.515625 33.503906 53.144531 C 33.636719 51.878906 34.078125 50.621094 34.761719 49.546875 Z M 33.996094 53.195312 L 34 53.195312 Z M 33.996094 53.195312 " fill-opacity="1" fill-rule="nonzero"/><path fill="#fbd490" d="M 33.253906 70.035156 C 33.101562 71.4375 33.40625 72.675781 34.234375 73.953125 C 34.316406 74.078125 34.402344 74.203125 34.496094 74.332031 L 26.875 74.277344 L 26.871094 74.277344 C 26.789062 74.148438 26.710938 74.023438 26.636719 73.898438 C 25.976562 72.777344 25.6875 71.765625 25.714844 70.695312 C 25.75 69.351562 26.480469 67.589844 27.246094 66.445312 C 27.335938 66.3125 27.429688 66.183594 27.519531 66.066406 C 27.519531 66.066406 27.523438 66.0625 27.523438 66.058594 C 30.023438 65.960938 32.515625 65.902344 35.003906 65.882812 C 34.902344 66.003906 34.800781 66.128906 34.707031 66.261719 C 33.917969 67.335938 33.398438 68.671875 33.253906 70.035156 Z M 33.253906 70.035156 " fill-opacity="1" fill-rule="nonzero"/><path fill="#703627" d="M 34.496094 74.824219 C 34.496094 74.824219 34.492188 74.824219 34.492188 74.824219 L 26.871094 74.769531 C 26.703125 74.769531 26.542969 74.683594 26.453125 74.542969 C 26.367188 74.410156 26.285156 74.28125 26.210938 74.152344 C 25.5 72.953125 25.1875 71.851562 25.21875 70.679688 C 25.257812 69.167969 26.058594 67.328125 26.832031 66.171875 C 26.929688 66.027344 27.027344 65.894531 27.121094 65.769531 C 27.210938 65.648438 27.351562 65.574219 27.503906 65.566406 C 30.015625 65.46875 32.539062 65.410156 35 65.386719 C 35.183594 65.390625 35.375 65.496094 35.457031 65.671875 C 35.539062 65.847656 35.511719 66.054688 35.386719 66.199219 C 35.289062 66.3125 35.199219 66.425781 35.113281 66.546875 C 34.367188 67.5625 33.882812 68.820312 33.746094 70.085938 C 33.605469 71.390625 33.886719 72.5 34.65625 73.6875 C 34.730469 73.804688 34.8125 73.921875 34.898438 74.039062 C 35.007812 74.1875 35.023438 74.390625 34.9375 74.554688 C 34.855469 74.71875 34.683594 74.824219 34.496094 74.824219 Z M 27.148438 73.785156 L 33.578125 73.828125 C 32.871094 72.59375 32.609375 71.359375 32.757812 69.984375 C 32.894531 68.714844 33.335938 67.457031 34.019531 66.386719 C 31.960938 66.410156 29.867188 66.464844 27.78125 66.542969 C 27.742188 66.601562 27.699219 66.660156 27.660156 66.71875 C 26.988281 67.722656 26.246094 69.398438 26.210938 70.707031 C 26.1875 71.683594 26.457031 72.617188 27.066406 73.648438 C 27.09375 73.695312 27.121094 73.738281 27.148438 73.785156 Z M 33.253906 70.035156 L 33.257812 70.035156 Z M 33.253906 70.035156 " fill-opacity="1" fill-rule="nonzero"/><path fill="#fbd490" d="M 48.882812 74.433594 L 37.730469 74.351562 C 37.726562 74.351562 37.726562 74.351562 37.726562 74.351562 C 37.453125 74.296875 37.195312 74.167969 36.964844 73.972656 C 36.539062 73.617188 36.210938 73.058594 36.058594 72.367188 C 35.644531 70.496094 36.300781 67.960938 37.597656 66.25 C 37.699219 66.121094 37.800781 65.996094 37.90625 65.875 C 41.410156 65.890625 44.902344 65.976562 48.375 66.144531 C 47.621094 66.164062 46.859375 66.222656 46.203125 66.34375 C 46.089844 66.367188 45.976562 66.386719 45.871094 66.414062 C 45.726562 66.445312 45.589844 66.480469 45.460938 66.523438 C 43.839844 67.027344 42.660156 68.261719 42.464844 69.660156 C 42.238281 71.304688 43.351562 72.777344 44.558594 73.503906 C 44.9375 73.734375 45.441406 73.910156 45.992188 74.039062 C 46.078125 74.0625 46.167969 74.078125 46.257812 74.097656 C 47.113281 74.277344 48.066406 74.375 48.882812 74.433594 Z M 48.882812 74.433594 " fill-opacity="1" fill-rule="nonzero"/><path fill="#703627" d="M 48.882812 74.925781 C 48.882812 74.925781 48.882812 74.925781 48.878906 74.925781 L 37.726562 74.847656 C 37.695312 74.847656 37.660156 74.84375 37.628906 74.835938 C 37.277344 74.765625 36.933594 74.597656 36.640625 74.347656 C 36.125 73.917969 35.742188 73.25 35.574219 72.472656 C 35.132812 70.480469 35.800781 67.796875 37.203125 65.953125 C 37.308594 65.816406 37.417969 65.679688 37.53125 65.550781 C 37.625 65.445312 37.761719 65.382812 37.90625 65.382812 C 41.433594 65.394531 44.964844 65.488281 48.402344 65.652344 C 48.667969 65.664062 48.878906 65.882812 48.875 66.148438 C 48.871094 66.414062 48.65625 66.632812 48.390625 66.636719 C 47.582031 66.65625 46.875 66.722656 46.292969 66.828125 C 46.195312 66.847656 46.089844 66.867188 45.988281 66.894531 C 45.851562 66.925781 45.730469 66.957031 45.613281 66.992188 C 44.167969 67.441406 43.128906 68.515625 42.960938 69.726562 C 42.761719 71.152344 43.75 72.4375 44.816406 73.082031 C 45.125 73.269531 45.558594 73.429688 46.105469 73.558594 C 46.195312 73.582031 46.277344 73.597656 46.359375 73.613281 C 47.039062 73.757812 47.878906 73.863281 48.921875 73.941406 C 49.1875 73.960938 49.390625 74.1875 49.382812 74.453125 C 49.371094 74.71875 49.152344 74.925781 48.882812 74.925781 Z M 37.78125 73.859375 L 44.265625 73.90625 C 42.933594 73.085938 41.714844 71.445312 41.972656 69.59375 C 42.152344 68.320312 43.027344 67.171875 44.300781 66.480469 C 42.257812 66.417969 40.199219 66.382812 38.136719 66.371094 C 38.089844 66.429688 38.042969 66.488281 37.996094 66.546875 C 36.777344 68.152344 36.167969 70.554688 36.542969 72.261719 C 36.667969 72.828125 36.929688 73.300781 37.285156 73.59375 C 37.441406 73.726562 37.609375 73.816406 37.78125 73.859375 Z M 37.78125 73.859375 " fill-opacity="1" fill-rule="nonzero"/><path fill="#703627" d="M 50.820312 66.273438 C 50.007812 66.226562 49.195312 66.183594 48.375 66.144531 C 49.199219 66.125 50.019531 66.152344 50.691406 66.207031 C 50.746094 66.210938 50.792969 66.234375 50.820312 66.273438 Z M 50.820312 66.273438 " fill-opacity="1" fill-rule="nonzero"/><path fill="#ffffff" d="M 59.316406 74.332031 C 59.226562 74.441406 59.09375 74.507812 58.953125 74.507812 C 58.949219 74.507812 58.949219 74.507812 58.949219 74.507812 L 50.136719 74.441406 L 49.984375 74.441406 L 48.882812 74.433594 C 48.066406 74.375 47.113281 74.277344 46.257812 74.097656 C 46.167969 74.078125 46.078125 74.0625 45.992188 74.039062 C 45.441406 73.910156 44.9375 73.734375 44.558594 73.503906 C 43.351562 72.777344 42.238281 71.304688 42.464844 69.660156 C 42.660156 68.261719 43.839844 67.027344 45.460938 66.523438 C 45.589844 66.480469 45.726562 66.445312 45.871094 66.414062 C 45.976562 66.386719 46.089844 66.367188 46.203125 66.34375 C 46.859375 66.222656 47.621094 66.164062 48.375 66.144531 C 49.195312 66.183594 50.007812 66.226562 50.820312 66.273438 C 53.273438 66.414062 55.71875 66.597656 58.144531 66.816406 C 58.371094 66.835938 58.550781 67.023438 58.5625 67.25 C 58.667969 69.296875 58.789062 71.617188 59.398438 73.925781 C 59.433594 74.066406 59.40625 74.214844 59.316406 74.332031 Z M 59.316406 74.332031 " fill-opacity="1" fill-rule="nonzero"/><path fill="#703627" d="M 58.953125 75 L 48.878906 74.925781 C 47.757812 74.847656 46.878906 74.734375 46.15625 74.582031 C 46.058594 74.5625 45.960938 74.539062 45.867188 74.515625 C 45.230469 74.367188 44.699219 74.167969 44.296875 73.925781 C 42.953125 73.113281 41.714844 71.457031 41.972656 69.59375 C 42.195312 68.003906 43.503906 66.613281 45.3125 66.050781 C 45.453125 66.007812 45.601562 65.96875 45.761719 65.933594 C 45.867188 65.90625 45.984375 65.882812 46.105469 65.859375 C 46.746094 65.742188 47.503906 65.671875 48.363281 65.652344 C 49.21875 65.6875 50.035156 65.730469 50.851562 65.78125 C 53.28125 65.921875 55.753906 66.105469 58.191406 66.324219 C 58.664062 66.367188 59.035156 66.753906 59.058594 67.226562 C 59.164062 69.246094 59.28125 71.535156 59.878906 73.804688 C 59.953125 74.097656 59.890625 74.398438 59.710938 74.632812 C 59.707031 74.632812 59.707031 74.636719 59.707031 74.636719 C 59.519531 74.867188 59.246094 75 58.953125 75 Z M 59.316406 74.332031 L 59.320312 74.332031 Z M 48.355469 66.636719 C 47.582031 66.65625 46.875 66.722656 46.292969 66.828125 C 46.195312 66.847656 46.089844 66.867188 45.988281 66.894531 C 45.851562 66.925781 45.730469 66.957031 45.613281 66.992188 C 44.167969 67.441406 43.128906 68.515625 42.960938 69.726562 C 42.761719 71.152344 43.75 72.4375 44.816406 73.082031 C 45.125 73.269531 45.558594 73.429688 46.105469 73.558594 C 46.195312 73.582031 46.277344 73.597656 46.359375 73.613281 C 47.039062 73.757812 47.878906 73.863281 48.921875 73.941406 L 58.90625 74.011719 C 58.292969 71.664062 58.171875 69.332031 58.066406 67.277344 C 55.671875 67.089844 53.214844 66.90625 50.792969 66.765625 C 49.980469 66.71875 49.167969 66.675781 48.355469 66.636719 Z M 48.355469 66.636719 " fill-opacity="1" fill-rule="nonzero"/><path fill="#703627" d="M 50.136719 74.441406 C 50.101562 74.480469 50.050781 74.507812 49.996094 74.507812 L 49.984375 74.507812 L 49.738281 74.492188 C 49.476562 74.472656 49.191406 74.457031 48.882812 74.433594 L 49.984375 74.441406 Z M 50.136719 74.441406 " fill-opacity="1" fill-rule="nonzero"/><path fill="#f7b4c6" d="M 36.964844 73.972656 C 37.195312 74.167969 37.453125 74.296875 37.726562 74.351562 L 36.789062 74.347656 L 34.988281 74.335938 L 34.496094 74.332031 C 34.402344 74.203125 34.316406 74.078125 34.234375 73.953125 C 33.40625 72.675781 33.101562 71.4375 33.253906 70.035156 C 33.398438 68.671875 33.917969 67.335938 34.707031 66.261719 C 34.800781 66.128906 34.902344 66.003906 35.003906 65.882812 L 35.007812 65.882812 C 35.183594 65.882812 35.359375 65.878906 35.535156 65.878906 L 35.539062 65.878906 C 36.160156 65.875 36.777344 65.871094 37.394531 65.875 C 37.566406 65.875 37.734375 65.875 37.90625 65.875 C 37.800781 65.996094 37.699219 66.121094 37.597656 66.25 C 36.300781 67.960938 35.644531 70.496094 36.058594 72.367188 C 36.210938 73.058594 36.539062 73.617188 36.964844 73.972656 Z M 36.964844 73.972656 " fill-opacity="1" fill-rule="nonzero"/><path fill="#703627" d="M 37.726562 74.847656 C 37.726562 74.847656 37.722656 74.847656 37.722656 74.847656 L 34.492188 74.824219 C 34.335938 74.824219 34.1875 74.746094 34.09375 74.621094 C 33.996094 74.488281 33.902344 74.355469 33.816406 74.21875 C 32.929688 72.851562 32.59375 71.503906 32.757812 69.984375 C 32.910156 68.546875 33.460938 67.121094 34.304688 65.96875 C 34.40625 65.832031 34.511719 65.695312 34.625 65.5625 C 34.71875 65.453125 34.859375 65.386719 35.003906 65.386719 C 35.183594 65.386719 35.355469 65.386719 35.53125 65.386719 C 36.15625 65.382812 36.777344 65.378906 37.398438 65.382812 L 37.90625 65.382812 C 38.101562 65.382812 38.277344 65.496094 38.359375 65.671875 C 38.4375 65.847656 38.40625 66.054688 38.28125 66.203125 C 38.183594 66.3125 38.085938 66.429688 37.996094 66.546875 C 36.777344 68.152344 36.167969 70.554688 36.542969 72.261719 C 36.667969 72.828125 36.929688 73.300781 37.285156 73.59375 C 37.285156 73.59375 37.285156 73.597656 37.285156 73.597656 C 37.453125 73.738281 37.636719 73.832031 37.824219 73.867188 C 38.074219 73.917969 38.246094 74.148438 38.21875 74.402344 C 38.195312 74.65625 37.980469 74.847656 37.726562 74.847656 Z M 34.753906 73.839844 L 36.175781 73.847656 C 35.894531 73.464844 35.6875 72.992188 35.574219 72.472656 C 35.164062 70.625 35.710938 68.183594 36.910156 66.367188 C 36.453125 66.367188 35.996094 66.371094 35.539062 66.371094 C 35.441406 66.375 35.34375 66.375 35.242188 66.375 C 35.199219 66.429688 35.15625 66.488281 35.113281 66.546875 C 34.367188 67.5625 33.882812 68.820312 33.746094 70.085938 C 33.605469 71.390625 33.886719 72.5 34.65625 73.6875 C 34.6875 73.738281 34.722656 73.789062 34.753906 73.839844 Z M 34.753906 73.839844 " fill-opacity="1" fill-rule="nonzero"/><path fill="#fbd490" d="M 24.292969 73.882812 C 24.351562 74.007812 24.417969 74.132812 24.488281 74.257812 L 21.273438 74.234375 C 21.03125 74.234375 20.800781 74.128906 20.644531 73.949219 C 18.503906 71.507812 18.519531 69.125 20.6875 66.664062 C 20.832031 66.5 21.042969 66.398438 21.269531 66.382812 C 22.375 66.3125 23.480469 66.246094 24.585938 66.191406 C 24.511719 66.320312 24.445312 66.449219 24.378906 66.578125 C 23.175781 68.957031 23.148438 71.585938 24.292969 73.882812 Z M 24.292969 73.882812 " fill-opacity="1" fill-rule="nonzero"/><path fill="#703627" d="M 24.488281 74.75 C 24.488281 74.75 24.488281 74.75 24.484375 74.75 L 21.269531 74.726562 C 20.882812 74.726562 20.519531 74.558594 20.269531 74.273438 C 17.96875 71.648438 17.984375 68.980469 20.3125 66.339844 C 20.539062 66.078125 20.878906 65.914062 21.238281 65.890625 C 22.347656 65.816406 23.453125 65.753906 24.558594 65.699219 C 24.738281 65.691406 24.914062 65.777344 25.007812 65.933594 C 25.105469 66.085938 25.105469 66.28125 25.015625 66.4375 C 24.949219 66.554688 24.886719 66.675781 24.824219 66.796875 C 23.683594 69.050781 23.65625 71.488281 24.738281 73.664062 C 24.738281 73.664062 24.742188 73.667969 24.742188 73.667969 C 24.796875 73.785156 24.859375 73.902344 24.921875 74.015625 C 25.007812 74.167969 25.007812 74.355469 24.917969 74.507812 C 24.828125 74.660156 24.664062 74.75 24.488281 74.75 Z M 23.757812 66.730469 C 22.9375 66.773438 22.121094 66.820312 21.300781 66.875 C 21.210938 66.882812 21.121094 66.921875 21.0625 66.988281 C 19.054688 69.261719 19.042969 71.371094 21.019531 73.625 C 21.082031 73.699219 21.175781 73.742188 21.277344 73.742188 L 23.683594 73.757812 C 22.699219 71.535156 22.726562 69.015625 23.757812 66.730469 Z M 23.757812 66.730469 " fill-opacity="1" fill-rule="nonzero"/><path fill="#f7b4c6" d="M 27.523438 66.058594 C 27.523438 66.0625 27.519531 66.066406 27.519531 66.066406 C 27.429688 66.183594 27.335938 66.3125 27.246094 66.445312 C 26.480469 67.589844 25.75 69.351562 25.714844 70.695312 C 25.6875 71.765625 25.976562 72.777344 26.636719 73.898438 C 26.710938 74.023438 26.789062 74.148438 26.871094 74.277344 L 26.40625 74.273438 L 24.941406 74.261719 L 24.488281 74.257812 C 24.417969 74.132812 24.351562 74.007812 24.292969 73.882812 C 23.148438 71.585938 23.175781 68.957031 24.378906 66.578125 C 24.445312 66.449219 24.511719 66.320312 24.585938 66.191406 C 24.738281 66.183594 24.894531 66.175781 25.050781 66.167969 C 25.710938 66.136719 26.363281 66.105469 27.023438 66.078125 C 27.191406 66.070312 27.355469 66.066406 27.523438 66.058594 Z M 27.523438 66.058594 " fill-opacity="1" fill-rule="nonzero"/><path fill="#703627" d="M 26.871094 74.769531 C 26.871094 74.769531 26.867188 74.769531 26.867188 74.769531 L 24.484375 74.75 C 24.304688 74.75 24.140625 74.652344 24.054688 74.5 C 23.980469 74.367188 23.910156 74.230469 23.84375 74.09375 C 22.640625 71.675781 22.671875 68.855469 23.933594 66.355469 C 24.003906 66.21875 24.074219 66.082031 24.152344 65.945312 C 24.238281 65.800781 24.390625 65.707031 24.5625 65.699219 C 24.714844 65.691406 24.867188 65.683594 25.019531 65.675781 C 25.6875 65.640625 26.34375 65.613281 27.003906 65.585938 C 27.164062 65.578125 27.328125 65.574219 27.492188 65.566406 C 27.667969 65.558594 27.84375 65.648438 27.9375 65.796875 C 28.03125 65.945312 28.046875 66.128906 27.964844 66.285156 C 27.953125 66.3125 27.933594 66.34375 27.910156 66.371094 C 27.828125 66.476562 27.746094 66.59375 27.660156 66.71875 C 26.988281 67.722656 26.246094 69.398438 26.210938 70.707031 C 26.1875 71.683594 26.457031 72.617188 27.066406 73.648438 C 27.136719 73.765625 27.210938 73.886719 27.289062 74.007812 C 27.386719 74.160156 27.394531 74.355469 27.308594 74.515625 C 27.21875 74.671875 27.050781 74.769531 26.871094 74.769531 Z M 24.789062 73.765625 L 26 73.777344 C 25.4375 72.71875 25.191406 71.726562 25.21875 70.679688 C 25.253906 69.339844 25.886719 67.742188 26.570312 66.589844 C 26.070312 66.613281 25.574219 66.636719 25.074219 66.660156 C 25.011719 66.664062 24.953125 66.667969 24.890625 66.671875 C 24.867188 66.710938 24.847656 66.753906 24.824219 66.796875 C 23.683594 69.050781 23.65625 71.488281 24.738281 73.664062 C 24.753906 73.699219 24.773438 73.734375 24.789062 73.765625 Z M 24.789062 73.765625 " fill-opacity="1" fill-rule="nonzero"/><path fill="#703627" d="M 47.101562 70.609375 C 46.851562 70.609375 46.636719 70.425781 46.605469 70.171875 C 46.578125 69.902344 46.773438 69.65625 47.046875 69.625 C 49.074219 69.402344 51.132812 69.289062 53.171875 69.285156 C 53.445312 69.285156 53.667969 69.503906 53.667969 69.777344 C 53.667969 70.050781 53.449219 70.273438 53.171875 70.273438 C 51.171875 70.277344 49.148438 70.390625 47.15625 70.609375 C 47.136719 70.609375 47.121094 70.609375 47.101562 70.609375 Z M 47.101562 70.609375 " fill-opacity="1" fill-rule="nonzero"/><path fill="#7dcec7" d="M 52.277344 72.105469 C 52.273438 72.195312 52.222656 72.277344 52.140625 72.316406 C 52.058594 72.359375 51.960938 72.351562 51.886719 72.300781 L 50.191406 71.164062 L 49.316406 72.449219 C 49.265625 72.523438 49.183594 72.566406 49.097656 72.566406 C 49.082031 72.566406 49.070312 72.5625 49.058594 72.5625 C 48.957031 72.546875 48.875 72.476562 48.84375 72.382812 C 48.710938 71.980469 48.605469 71.582031 48.503906 71.199219 C 48.402344 70.816406 48.296875 70.425781 48.167969 70.03125 C 48.296875 70.019531 48.421875 70.007812 48.554688 69.996094 C 49.628906 69.90625 50.714844 69.84375 51.792969 69.816406 C 51.921875 69.8125 52.046875 69.808594 52.171875 69.808594 C 52.160156 70.1875 52.191406 70.566406 52.222656 70.941406 C 52.253906 71.320312 52.289062 71.710938 52.277344 72.105469 Z M 52.277344 72.105469 " fill-opacity="1" fill-rule="nonzero"/><path fill="#703627" d="M 49.097656 73.058594 C 49.074219 73.058594 49.007812 73.054688 48.984375 73.050781 C 48.699219 73.007812 48.460938 72.8125 48.371094 72.539062 C 48.246094 72.148438 48.140625 71.769531 48.042969 71.402344 L 48.023438 71.328125 C 47.921875 70.953125 47.820312 70.570312 47.695312 70.183594 C 47.648438 70.039062 47.667969 69.886719 47.75 69.761719 C 47.832031 69.636719 47.96875 69.554688 48.117188 69.539062 C 48.25 69.527344 48.382812 69.515625 48.519531 69.503906 C 49.589844 69.414062 50.691406 69.351562 51.78125 69.324219 C 52.046875 69.316406 52.347656 69.277344 52.53125 69.46875 C 52.625 69.5625 52.671875 69.695312 52.667969 69.828125 C 52.65625 70.175781 52.6875 70.542969 52.71875 70.898438 C 52.753906 71.292969 52.785156 71.699219 52.773438 72.117188 C 52.765625 72.386719 52.609375 72.632812 52.367188 72.757812 C 52.125 72.878906 51.832031 72.863281 51.605469 72.710938 L 50.324219 71.847656 L 49.726562 72.726562 C 49.582031 72.9375 49.347656 73.058594 49.097656 73.058594 Z M 48.820312 70.46875 C 48.875 70.671875 48.929688 70.875 48.984375 71.074219 L 49.003906 71.148438 C 49.058594 71.351562 49.117188 71.5625 49.175781 71.773438 L 49.777344 70.886719 C 49.851562 70.777344 49.96875 70.703125 50.097656 70.679688 C 50.226562 70.652344 50.359375 70.679688 50.46875 70.753906 L 51.773438 71.632812 C 51.765625 71.414062 51.746094 71.199219 51.726562 70.988281 C 51.707031 70.765625 51.6875 70.542969 51.679688 70.3125 C 50.722656 70.339844 49.765625 70.394531 48.820312 70.46875 Z M 48.820312 70.46875 " fill-opacity="1" fill-rule="nonzero"/><path fill="#dda783" d="M 50.019531 17.453125 C 55.671875 19.761719 60.417969 24.179688 63.101562 29.628906 C 65.164062 34.765625 64.992188 40.8125 62.25 45.554688 C 59.511719 50.296875 54.183594 53.53125 48.675781 53.523438 C 47.78125 53.308594 46.992188 53.167969 46.203125 53.027344 C 45.210938 52.851562 44.183594 52.664062 43.347656 52.105469 C 42.507812 51.546875 41.902344 50.515625 42.167969 49.546875 C 41.414062 50.414062 40.757812 51.480469 39.792969 52.234375 C 38.824219 52.984375 37.480469 53.367188 36.347656 52.90625 C 35.257812 52.460938 34.597656 51.378906 34.015625 50.363281 C 33.539062 51.035156 33.144531 51.84375 32.398438 52.203125 C 31.777344 52.5 31.023438 52.410156 30.402344 52.117188 C 29.777344 51.828125 29.261719 51.355469 28.769531 50.875 C 27.40625 51.996094 25.4375 52.347656 23.664062 51.894531 C 22.527344 51.605469 21.363281 50.847656 21.203125 49.695312 C 21.078125 48.808594 21.585938 47.957031 22.128906 47.242188 C 23.101562 45.96875 24.269531 44.839844 25.582031 43.914062 C 23.476562 42.074219 22.015625 39.757812 21.316406 37.226562 C 20.617188 34.695312 20.683594 31.960938 21.257812 29.089844 C 29.71875 25.515625 38.335938 22.304688 50.019531 17.453125 Z M 50.019531 17.453125 " fill-opacity="1" fill-rule="nonzero"/><path fill="#b27966" d="M 44.816406 45.09375 C 47.792969 46.84375 49.824219 49.972656 50.535156 53.332031 C 48.269531 53.421875 45.988281 53.066406 43.859375 52.292969 C 43.4375 52.140625 43.003906 51.960938 42.699219 51.628906 C 42.132812 51.015625 42.164062 50.066406 42.363281 49.257812 C 42.796875 47.503906 43.882812 45.917969 44.816406 45.09375 Z M 44.816406 45.09375 " fill-opacity="1" fill-rule="nonzero"/><path fill="#b27966" d="M 23.191406 46.316406 C 25.136719 47.355469 26.476562 49.433594 26.609375 51.621094 C 25.179688 51.878906 23.640625 52.125 22.320312 51.515625 C 21.910156 51.328125 21.527344 51.050781 21.285156 50.671875 C 20.816406 49.945312 20.957031 48.957031 21.398438 48.210938 C 21.84375 47.464844 22.539062 46.910156 23.191406 46.316406 Z M 23.191406 46.316406 " fill-opacity="1" fill-rule="nonzero"/><path fill="#b27966" d="M 33.953125 50.535156 C 32.316406 49.101562 30.109375 48.328125 27.925781 48.417969 C 28.171875 49.519531 28.753906 50.546875 29.578125 51.328125 C 30.140625 51.859375 30.871094 52.289062 31.644531 52.234375 C 32.640625 52.160156 33.386719 51.320312 33.953125 50.535156 Z M 33.953125 50.535156 " fill-opacity="1" fill-rule="nonzero"/><path fill="#b27966" d="M 41.636719 50.152344 C 39.25 49.148438 36.4375 49.199219 34.089844 50.289062 C 34.464844 50.863281 34.84375 51.441406 35.324219 51.929688 C 35.808594 52.417969 36.410156 52.816406 37.089844 52.941406 C 38.023438 53.117188 38.992188 52.753906 39.746094 52.183594 C 40.5 51.613281 41.074219 50.847656 41.636719 50.152344 Z M 41.636719 50.152344 " fill-opacity="1" fill-rule="nonzero"/><path fill="#dda783" d="M 50.871094 20.308594 C 51.996094 17.699219 51.699219 14.539062 50.113281 12.179688 C 51.589844 11.648438 52.570312 10.007812 52.332031 8.464844 C 52.089844 6.925781 50.65625 5.652344 49.089844 5.589844 C 47.828125 5.539062 46.648438 6.175781 45.578125 6.839844 C 44.722656 5.898438 43.496094 5.296875 42.222656 5.1875 C 42.390625 3.75 41.859375 2.351562 40.820312 1.566406 C 39.777344 0.78125 38.277344 0.648438 37.113281 1.238281 C 35.949219 1.828125 35.175781 3.113281 35.074219 4.425781 C 31.691406 4.824219 28.34375 5.71875 25.339844 7.320312 C 22.339844 8.921875 19.695312 11.253906 17.984375 14.179688 C 16.269531 17.101562 15.535156 20.632812 16.304688 24.109375 C 17.296875 28.007812 20.414062 31.304688 24.273438 32.535156 C 28.074219 33.746094 32.289062 32.988281 35.902344 31.308594 C 39.519531 29.628906 42.644531 27.085938 45.730469 24.570312 C 47.210938 23.367188 49.742188 22.929688 50.871094 20.308594 Z M 50.871094 20.308594 " fill-opacity="1" fill-rule="nonzero"/><path fill="#703627" d="M 35.480469 17.175781 C 36.003906 17.515625 36.558594 17.890625 36.796875 18.46875 C 36.878906 18.667969 36.914062 18.90625 36.808594 19.097656 C 36.695312 19.292969 36.449219 19.386719 36.222656 19.378906 C 35.992188 19.367188 35.777344 19.277344 35.570312 19.183594 C 35.113281 18.980469 34.664062 18.757812 34.246094 18.492188 C 34.003906 18.335938 33.765625 18.160156 33.613281 17.917969 C 33.460938 17.671875 33.410156 17.351562 33.546875 17.101562 C 33.703125 16.828125 34.046875 16.707031 34.363281 16.726562 C 34.675781 16.746094 34.988281 16.851562 35.480469 17.175781 Z M 35.480469 17.175781 " fill-opacity="1" fill-rule="nonzero"/><path fill="#703627" d="M 47 13.566406 C 46.738281 13.566406 46.519531 13.363281 46.503906 13.097656 C 46.492188 12.828125 46.699219 12.59375 46.976562 12.578125 C 48.414062 12.5 49.578125 12.152344 50.433594 11.542969 C 51.445312 10.820312 52.015625 9.6875 51.886719 8.652344 C 51.765625 7.664062 51 6.757812 49.976562 6.398438 C 49.007812 6.054688 47.835938 6.1875 46.847656 6.75 C 45.945312 7.261719 45.167969 8.140625 44.660156 9.222656 C 44.542969 9.472656 44.25 9.578125 44 9.464844 C 43.75 9.347656 43.640625 9.054688 43.757812 8.808594 C 44.351562 7.542969 45.273438 6.507812 46.355469 5.890625 C 47.59375 5.1875 49.070312 5.03125 50.308594 5.46875 C 51.679688 5.949219 52.710938 7.183594 52.875 8.53125 C 53.046875 9.921875 52.316406 11.417969 51.015625 12.34375 C 50.003906 13.0625 48.660156 13.476562 47.03125 13.566406 C 47.019531 13.566406 47.011719 13.566406 47 13.566406 Z M 47 13.566406 " fill-opacity="1" fill-rule="nonzero"/><path fill="#703627" d="M 45.761719 10.546875 C 45.691406 10.546875 45.617188 10.53125 45.546875 10.5 C 45.296875 10.378906 45.195312 10.085938 45.316406 9.839844 C 46.121094 8.1875 48.039062 7.132812 49.878906 7.339844 C 50.152344 7.371094 50.351562 7.613281 50.320312 7.886719 C 50.289062 8.15625 50.042969 8.351562 49.769531 8.320312 C 48.335938 8.160156 46.839844 8.980469 46.210938 10.269531 C 46.125 10.445312 45.945312 10.546875 45.761719 10.546875 Z M 45.761719 10.546875 " fill-opacity="1" fill-rule="nonzero"/><path fill="#703627" d="M 41.835938 5.371094 C 41.8125 5.371094 41.785156 5.371094 41.761719 5.363281 C 41.488281 5.324219 41.304688 5.070312 41.34375 4.800781 C 41.539062 3.566406 41.234375 2.601562 40.449219 1.933594 C 39.558594 1.179688 38.183594 1.054688 37.171875 1.640625 C 36.191406 2.210938 35.808594 3.09375 36.042969 4.261719 C 36.097656 4.527344 35.921875 4.789062 35.652344 4.839844 C 35.378906 4.894531 35.121094 4.71875 35.066406 4.453125 C 34.75 2.875 35.320312 1.570312 36.671875 0.789062 C 38.035156 -0.00390625 39.894531 0.164062 41.09375 1.183594 C 42.148438 2.078125 42.574219 3.382812 42.328125 4.953125 C 42.289062 5.195312 42.078125 5.371094 41.835938 5.371094 Z M 41.835938 5.371094 " fill-opacity="1" fill-rule="nonzero"/><path fill="#703627" d="M 50.734375 20.730469 C 50.660156 20.730469 50.582031 20.714844 50.511719 20.675781 C 50.265625 20.554688 50.167969 20.257812 50.292969 20.011719 C 51.644531 17.378906 51.480469 14.382812 49.886719 12.554688 C 49.707031 12.351562 49.730469 12.039062 49.9375 11.859375 C 50.148438 11.679688 50.460938 11.703125 50.640625 11.910156 C 52.496094 14.035156 52.710938 17.472656 51.179688 20.460938 C 51.089844 20.632812 50.917969 20.730469 50.734375 20.730469 Z M 50.734375 20.730469 " fill-opacity="1" fill-rule="nonzero"/><path fill="#fac4af" d="M 38.59375 21.976562 C 38.59375 22.152344 38.558594 22.324219 38.492188 22.484375 C 38.421875 22.648438 38.328125 22.792969 38.203125 22.917969 C 38.074219 23.039062 37.929688 23.136719 37.769531 23.203125 C 37.605469 23.269531 37.433594 23.304688 37.257812 23.304688 C 37.078125 23.304688 36.910156 23.269531 36.746094 23.203125 C 36.582031 23.136719 36.4375 23.039062 36.3125 22.917969 C 36.1875 22.792969 36.089844 22.648438 36.019531 22.484375 C 35.953125 22.324219 35.917969 22.152344 35.917969 21.976562 C 35.917969 21.800781 35.953125 21.632812 36.019531 21.46875 C 36.089844 21.308594 36.1875 21.164062 36.3125 21.039062 C 36.4375 20.914062 36.582031 20.820312 36.746094 20.753906 C 36.910156 20.683594 37.078125 20.652344 37.257812 20.652344 C 37.433594 20.652344 37.605469 20.683594 37.769531 20.753906 C 37.929688 20.820312 38.074219 20.914062 38.203125 21.039062 C 38.328125 21.164062 38.421875 21.308594 38.492188 21.46875 C 38.558594 21.632812 38.59375 21.800781 38.59375 21.976562 Z M 38.59375 21.976562 " fill-opacity="1" fill-rule="nonzero"/><path fill="#b27966" d="M 24.035156 14.980469 C 22.929688 14.777344 21.796875 14.644531 20.679688 14.785156 C 19.566406 14.925781 18.460938 15.351562 17.65625 16.136719 C 16.730469 17.042969 16.613281 17.800781 16.308594 19.058594 C 15.984375 20.414062 16.207031 21.160156 16.222656 22.554688 C 16.230469 23.359375 16.921875 25.773438 17.34375 26.460938 C 18.046875 27.605469 18.109375 27.65625 19.402344 28.027344 C 20.640625 28.386719 21.894531 28.746094 23.183594 28.78125 C 24.472656 28.816406 25.824219 28.492188 26.777344 27.632812 C 27.433594 27.039062 27.863281 26.234375 28.167969 25.402344 C 28.816406 23.640625 28.960938 21.726562 28.882812 19.847656 C 28.84375 18.902344 28.734375 17.917969 28.210938 17.128906 C 27.4375 15.96875 26.011719 15.347656 24.035156 14.980469 Z M 24.035156 14.980469 " fill-opacity="1" fill-rule="nonzero"/><path fill="#703627" d="M 25.328125 18.191406 C 25.0625 18.4375 24.882812 18.769531 24.828125 19.128906 C 24.800781 19.273438 24.8125 19.453125 24.941406 19.53125 C 25.0625 19.609375 25.222656 19.550781 25.355469 19.488281 C 25.636719 19.355469 25.921875 19.222656 26.15625 19.019531 C 26.375 18.828125 26.550781 18.53125 26.457031 18.257812 C 26.382812 18.050781 26.164062 17.914062 25.945312 17.90625 C 25.722656 17.894531 25.523438 18.011719 25.328125 18.191406 Z M 25.328125 18.191406 " fill-opacity="1" fill-rule="nonzero"/><path fill="#703627" d="M 20.886719 17.523438 C 21.066406 17.835938 21.136719 18.207031 21.085938 18.566406 C 21.066406 18.710938 21 18.878906 20.855469 18.917969 C 20.714844 18.957031 20.582031 18.851562 20.472656 18.753906 C 20.242188 18.546875 20.007812 18.335938 19.847656 18.070312 C 19.695312 17.824219 19.617188 17.488281 19.789062 17.257812 C 19.917969 17.078125 20.167969 17.011719 20.382812 17.066406 C 20.597656 17.125 20.753906 17.292969 20.886719 17.523438 Z M 20.886719 17.523438 " fill-opacity="1" fill-rule="nonzero"/><path fill="#703627" d="M 23.65625 26.15625 C 23.617188 26.15625 23.582031 26.152344 23.542969 26.152344 C 22.777344 26.097656 22.082031 25.515625 21.773438 24.664062 L 21.742188 24.574219 L 21.832031 23.941406 C 21.996094 22.832031 22.160156 21.730469 22.292969 20.75 C 22.320312 20.546875 22.511719 20.40625 22.710938 20.433594 C 22.917969 20.460938 23.058594 20.648438 23.03125 20.851562 C 22.898438 21.832031 22.734375 22.9375 22.570312 24.046875 L 22.507812 24.496094 C 22.722656 25.015625 23.152344 25.382812 23.59375 25.414062 C 24.058594 25.445312 24.570312 25.105469 24.859375 24.570312 C 24.957031 24.390625 25.183594 24.324219 25.363281 24.421875 C 25.546875 24.515625 25.613281 24.742188 25.515625 24.921875 C 25.105469 25.679688 24.386719 26.15625 23.65625 26.15625 Z M 23.65625 26.15625 " fill-opacity="1" fill-rule="nonzero"/><path fill="#703627" d="M 20.742188 25.582031 C 20.5625 25.582031 20.382812 25.554688 20.207031 25.496094 C 19.484375 25.257812 18.90625 24.523438 18.738281 23.621094 C 18.699219 23.421875 18.832031 23.226562 19.035156 23.191406 C 19.238281 23.152344 19.433594 23.285156 19.472656 23.488281 C 19.589844 24.117188 19.976562 24.644531 20.441406 24.792969 C 20.882812 24.941406 21.402344 24.746094 21.761719 24.296875 C 21.886719 24.132812 22.121094 24.105469 22.285156 24.234375 C 22.445312 24.359375 22.472656 24.59375 22.347656 24.753906 C 21.925781 25.285156 21.332031 25.582031 20.742188 25.582031 Z M 20.742188 25.582031 " fill-opacity="1" fill-rule="nonzero"/><g clip-path="url(#75c4d995b3)"><path fill="#703627" d="M 28.734375 33.53125 C 27.910156 33.53125 27.097656 33.464844 26.300781 33.332031 C 22.59375 32.714844 19.277344 30.582031 17.4375 27.628906 C 15.621094 24.714844 15.15625 20.855469 16.195312 17.308594 C 17.136719 14.089844 19.289062 11.066406 22.25 8.789062 C 24.84375 6.800781 28.050781 5.335938 31.789062 4.4375 C 36.125 3.398438 42.28125 3.582031 46.265625 6.335938 C 46.488281 6.492188 46.546875 6.796875 46.386719 7.023438 C 46.230469 7.246094 45.921875 7.300781 45.695312 7.144531 C 41.988281 4.582031 36.007812 4.441406 32.023438 5.398438 C 28.421875 6.261719 25.339844 7.667969 22.859375 9.570312 C 20.0625 11.71875 18.035156 14.566406 17.148438 17.585938 C 16.1875 20.867188 16.609375 24.429688 18.28125 27.109375 C 19.976562 29.824219 23.035156 31.785156 26.46875 32.359375 C 29.640625 32.886719 33.125 32.273438 36.28125 30.628906 C 36.523438 30.5 36.824219 30.59375 36.953125 30.835938 C 37.082031 31.078125 36.988281 31.375 36.742188 31.5 C 34.183594 32.835938 31.410156 33.53125 28.734375 33.53125 Z M 28.734375 33.53125 " fill-opacity="1" fill-rule="nonzero"/></g><path fill="#c48c71" d="M 24.375 13.542969 C 24.238281 13.542969 24.097656 13.484375 24 13.371094 C 23.820312 13.167969 23.839844 12.855469 24.046875 12.675781 L 26.152344 10.847656 C 26.359375 10.667969 26.671875 10.691406 26.851562 10.894531 C 27.035156 11.101562 27.011719 11.410156 26.808594 11.589844 L 24.703125 13.417969 C 24.609375 13.5 24.492188 13.542969 24.375 13.542969 Z M 24.375 13.542969 " fill-opacity="1" fill-rule="nonzero"/><path fill="#c48c71" d="M 28.800781 11.597656 C 28.625 11.597656 28.453125 11.5 28.363281 11.335938 C 28.234375 11.09375 28.324219 10.796875 28.566406 10.667969 L 31.226562 9.253906 C 31.46875 9.128906 31.769531 9.21875 31.898438 9.457031 C 32.027344 9.699219 31.9375 9.996094 31.695312 10.125 L 29.035156 11.539062 C 28.960938 11.578125 28.882812 11.597656 28.800781 11.597656 Z M 28.800781 11.597656 " fill-opacity="1" fill-rule="nonzero"/><path fill="#c48c71" d="M 25.675781 9.394531 C 25.484375 9.394531 25.304688 9.285156 25.222656 9.101562 C 25.109375 8.855469 25.21875 8.5625 25.46875 8.449219 L 28 7.316406 C 28.25 7.203125 28.542969 7.3125 28.65625 7.5625 C 28.769531 7.808594 28.660156 8.101562 28.410156 8.214844 L 25.878906 9.351562 C 25.8125 9.378906 25.742188 9.394531 25.675781 9.394531 Z M 25.675781 9.394531 " fill-opacity="1" fill-rule="nonzero"/><path fill="#c48c71" d="M 31.726562 7.75 C 31.523438 7.75 31.335938 7.628906 31.261719 7.429688 C 31.164062 7.171875 31.296875 6.890625 31.550781 6.792969 L 34.28125 5.785156 C 34.539062 5.6875 34.824219 5.816406 34.921875 6.074219 C 35.015625 6.328125 34.886719 6.613281 34.628906 6.707031 L 31.898438 7.71875 C 31.84375 7.738281 31.785156 7.75 31.726562 7.75 Z M 31.726562 7.75 " fill-opacity="1" fill-rule="nonzero"/><path fill="#c48c71" d="M 34.867188 9.472656 C 34.601562 9.472656 34.382812 9.269531 34.371094 9.003906 C 34.355469 8.730469 34.566406 8.5 34.839844 8.484375 L 37.992188 8.328125 C 38.269531 8.316406 38.5 8.523438 38.511719 8.796875 C 38.527344 9.066406 38.316406 9.300781 38.042969 9.3125 L 34.890625 9.472656 C 34.882812 9.472656 34.875 9.472656 34.867188 9.472656 Z M 34.867188 9.472656 " fill-opacity="1" fill-rule="nonzero"/><path fill="#703627" d="M 37.628906 53.628906 C 37.34375 53.628906 37.054688 53.589844 36.75 53.507812 C 36.085938 53.320312 35.460938 52.9375 34.9375 52.390625 C 33.824219 51.21875 33.40625 49.679688 33.105469 48.328125 C 33.082031 48.226562 32.996094 48.152344 32.886719 48.128906 C 29.046875 47.390625 25.546875 45.1875 23.277344 42.082031 C 21.003906 38.96875 20.082031 34.832031 20.75 30.734375 C 20.796875 30.464844 21.050781 30.285156 21.324219 30.328125 C 21.59375 30.371094 21.777344 30.625 21.734375 30.894531 C 21.105469 34.734375 21.960938 38.601562 24.082031 41.503906 C 26.203125 44.40625 29.480469 46.46875 33.074219 47.160156 C 33.574219 47.257812 33.96875 47.628906 34.074219 48.113281 C 34.363281 49.390625 34.722656 50.722656 35.660156 51.710938 C 36.058594 52.128906 36.527344 52.417969 37.015625 52.554688 C 39.253906 53.171875 40.980469 50.171875 42.367188 47.761719 C 42.648438 47.273438 42.914062 46.808594 43.167969 46.410156 C 43.3125 46.179688 43.621094 46.109375 43.855469 46.253906 C 44.085938 46.402344 44.15625 46.707031 44.007812 46.9375 C 43.769531 47.316406 43.507812 47.769531 43.230469 48.25 C 41.90625 50.558594 40.140625 53.628906 37.628906 53.628906 Z M 37.628906 53.628906 " fill-opacity="1" fill-rule="nonzero"/><g clip-path="url(#f05c1b8207)"><path fill="#703627" d="M 49.039062 53.78125 C 47.273438 53.78125 45.519531 53.472656 43.875 52.839844 C 43.203125 52.582031 42.382812 52.1875 41.964844 51.417969 C 41.578125 50.703125 41.597656 49.804688 42.023438 48.664062 C 43.042969 45.933594 45.128906 43.621094 47.75 42.3125 C 47.996094 42.191406 48.292969 42.289062 48.417969 42.53125 C 48.539062 42.773438 48.441406 43.070312 48.195312 43.195312 C 45.800781 44.390625 43.890625 46.507812 42.957031 49.003906 C 42.636719 49.867188 42.597656 50.503906 42.839844 50.949219 C 43.101562 51.433594 43.691406 51.710938 44.234375 51.921875 C 48.410156 53.523438 53.570312 52.832031 57.375 50.15625 C 61.070312 47.558594 63.535156 43.210938 63.972656 38.523438 C 64.390625 34.0625 62.984375 29.335938 60.113281 25.554688 C 57.757812 22.457031 54.175781 20.113281 51.296875 18.230469 C 51.066406 18.082031 51.003906 17.773438 51.15625 17.546875 C 51.304688 17.320312 51.613281 17.257812 51.84375 17.40625 C 54.785156 19.332031 58.449219 21.726562 60.90625 24.960938 C 63.925781 28.9375 65.402344 33.914062 64.964844 38.613281 C 64.5 43.585938 61.878906 48.199219 57.953125 50.960938 C 55.3125 52.816406 52.160156 53.78125 49.039062 53.78125 Z M 49.039062 53.78125 " fill-opacity="1" fill-rule="nonzero"/></g><path fill="#703627" d="M 31.484375 52.921875 C 30.660156 52.921875 29.816406 52.527344 28.976562 51.742188 C 28.222656 51.039062 27.707031 50.015625 27.480469 48.785156 C 27.285156 47.730469 27.320312 46.667969 27.351562 45.640625 C 27.359375 45.367188 27.597656 45.15625 27.867188 45.160156 C 28.140625 45.167969 28.355469 45.398438 28.347656 45.671875 C 28.316406 46.644531 28.28125 47.65625 28.457031 48.609375 C 28.589844 49.320312 28.902344 50.316406 29.660156 51.023438 C 30.414062 51.726562 31.121094 52.027344 31.769531 51.90625 C 32.488281 51.777344 33.183594 51.097656 33.71875 50 C 33.839844 49.753906 34.136719 49.652344 34.382812 49.769531 C 34.628906 49.890625 34.734375 50.183594 34.613281 50.429688 C 33.925781 51.839844 33.003906 52.6875 31.949219 52.878906 C 31.792969 52.90625 31.636719 52.921875 31.484375 52.921875 Z M 31.484375 52.921875 " fill-opacity="1" fill-rule="nonzero"/><path fill="#703627" d="M 24.710938 52.53125 C 24.222656 52.53125 23.734375 52.480469 23.269531 52.363281 C 22.542969 52.183594 22.003906 51.9375 21.574219 51.597656 C 20.980469 51.132812 20.625 50.488281 20.597656 49.832031 C 20.558594 49.011719 21.007812 48.320312 21.433594 47.734375 C 22.605469 46.113281 24.046875 44.628906 25.175781 43.515625 C 25.367188 43.320312 25.683594 43.324219 25.878906 43.515625 C 26.070312 43.707031 26.070312 44.019531 25.875 44.214844 C 24.777344 45.300781 23.367188 46.75 22.238281 48.308594 C 21.898438 48.78125 21.566406 49.285156 21.589844 49.785156 C 21.605469 50.152344 21.832031 50.542969 22.191406 50.824219 C 22.511719 51.074219 22.929688 51.261719 23.515625 51.40625 C 25.09375 51.804688 27.289062 51.25 28.8125 50.601562 C 29.066406 50.492188 29.359375 50.609375 29.464844 50.859375 C 29.574219 51.109375 29.457031 51.398438 29.207031 51.507812 C 28.558594 51.785156 26.628906 52.53125 24.710938 52.53125 Z M 24.710938 52.53125 " fill-opacity="1" fill-rule="nonzero"/><path fill="#c58d72" d="M 55.792969 24.113281 C 55.648438 24.113281 55.503906 24.050781 55.40625 23.929688 C 54.5625 22.898438 53.460938 22.089844 52.21875 21.589844 C 51.964844 21.488281 51.839844 21.203125 51.941406 20.949219 C 52.046875 20.695312 52.335938 20.574219 52.589844 20.675781 C 53.988281 21.234375 55.230469 22.144531 56.179688 23.308594 C 56.351562 23.519531 56.316406 23.832031 56.105469 24.003906 C 56.011719 24.078125 55.902344 24.113281 55.792969 24.113281 Z M 55.792969 24.113281 " fill-opacity="1" fill-rule="nonzero"/><path fill="#c58d72" d="M 60.769531 31.074219 C 60.539062 31.074219 60.332031 30.914062 60.28125 30.683594 C 60.007812 29.367188 59.402344 28.128906 58.53125 27.101562 C 58.355469 26.890625 58.382812 26.578125 58.59375 26.40625 C 58.804688 26.230469 59.117188 26.257812 59.292969 26.464844 C 60.269531 27.617188 60.945312 29.007812 61.253906 30.480469 C 61.3125 30.746094 61.136719 31.007812 60.871094 31.066406 C 60.835938 31.070312 60.800781 31.074219 60.769531 31.074219 Z M 60.769531 31.074219 " fill-opacity="1" fill-rule="nonzero"/><path fill="#c58d72" d="M 57.15625 29.148438 C 56.96875 29.148438 56.789062 29.042969 56.707031 28.867188 C 56.007812 27.410156 54.820312 26.21875 53.359375 25.519531 C 53.113281 25.398438 53.011719 25.105469 53.128906 24.859375 C 53.25 24.613281 53.546875 24.511719 53.792969 24.628906 C 55.457031 25.429688 56.8125 26.785156 57.605469 28.441406 C 57.722656 28.6875 57.617188 28.984375 57.367188 29.101562 C 57.296875 29.132812 57.226562 29.148438 57.15625 29.148438 Z M 57.15625 29.148438 " fill-opacity="1" fill-rule="nonzero"/><path fill="#c58d72" d="M 61.421875 41.136719 C 61.378906 41.136719 61.335938 41.132812 61.292969 41.121094 C 61.027344 41.050781 60.867188 40.78125 60.9375 40.515625 C 61.492188 38.453125 61.648438 36.242188 61.390625 34.125 C 61.355469 33.855469 61.550781 33.609375 61.824219 33.574219 C 62.09375 33.542969 62.34375 33.738281 62.378906 34.007812 C 62.648438 36.25 62.484375 38.585938 61.902344 40.769531 C 61.839844 40.992188 61.640625 41.136719 61.421875 41.136719 Z M 61.421875 41.136719 " fill-opacity="1" fill-rule="nonzero"/><path fill="#c58d72" d="M 58.660156 37.300781 C 58.652344 37.300781 58.644531 37.300781 58.636719 37.300781 C 58.363281 37.289062 58.152344 37.058594 58.164062 36.785156 C 58.234375 35.292969 58.007812 33.757812 57.507812 32.347656 C 57.417969 32.089844 57.554688 31.808594 57.8125 31.71875 C 58.074219 31.628906 58.355469 31.761719 58.445312 32.019531 C 58.988281 33.546875 59.234375 35.210938 59.15625 36.832031 C 59.144531 37.097656 58.925781 37.300781 58.660156 37.300781 Z M 58.660156 37.300781 " fill-opacity="1" fill-rule="nonzero"/></svg>