<svg xmlns="http://www.w3.org/2000/svg" xmlns:xlink="http://www.w3.org/1999/xlink" width="100" zoomAndPan="magnify" viewBox="0 0 75 50.249999" height="67" preserveAspectRatio="xMidYMid meet" version="1.0"><defs><clipPath id="82963f4f75"><path d="M 34 9 L 74.449219 9 L 74.449219 44 L 34 44 Z M 34 9 " clip-rule="nonzero"/></clipPath><clipPath id="83fee12006"><path d="M 0.550781 11 L 10 11 L 10 20 L 0.550781 20 Z M 0.550781 11 " clip-rule="nonzero"/></clipPath><clipPath id="d2d251f4b9"><path d="M 13 36 L 26 36 L 26 49.511719 L 13 49.511719 Z M 13 36 " clip-rule="nonzero"/></clipPath><clipPath id="05d792ec1c"><path d="M 13 36 L 26 36 L 26 49.511719 L 13 49.511719 Z M 13 36 " clip-rule="nonzero"/></clipPath></defs><path fill="#e58314" d="M 38.890625 44.914062 L 38.890625 41.832031 L 42.082031 41.832031 L 42.082031 44.914062 C 42.082031 44.964844 42.039062 45.007812 41.984375 45.007812 L 38.988281 45.007812 C 38.933594 45.007812 38.890625 44.964844 38.890625 44.914062 Z M 38.890625 44.914062 " fill-opacity="1" fill-rule="nonzero"/><path fill="#e58314" d="M 64.898438 44.914062 L 64.898438 41.832031 L 68.085938 41.832031 L 68.085938 44.914062 C 68.085938 44.964844 68.042969 45.007812 67.992188 45.007812 L 64.992188 45.007812 C 64.941406 45.007812 64.898438 44.964844 64.898438 44.914062 Z M 64.898438 44.914062 " fill-opacity="1" fill-rule="nonzero"/><path fill="#e48214" d="M 34.980469 42.15625 L 34.980469 10.523438 C 34.980469 10.226562 35.226562 9.984375 35.523438 9.984375 L 73.414062 9.984375 C 73.714844 9.984375 73.957031 10.226562 73.957031 10.523438 L 73.957031 42.15625 C 73.957031 42.453125 73.714844 42.695312 73.414062 42.695312 L 35.523438 42.695312 C 35.226562 42.695312 34.980469 42.453125 34.980469 42.15625 Z M 34.980469 42.15625 " fill-opacity="1" fill-rule="nonzero"/><path fill="#f0b943" d="M 37.699219 24.929688 L 37.699219 13.1875 C 37.699219 13.042969 37.816406 12.925781 37.960938 12.925781 L 70.976562 12.925781 C 71.121094 12.925781 71.238281 13.042969 71.238281 13.1875 L 71.238281 24.929688 Z M 37.699219 24.929688 " fill-opacity="1" fill-rule="nonzero"/><path fill="#f0b943" d="M 37.699219 39.492188 L 37.699219 27.75 L 71.238281 27.75 L 71.238281 39.492188 C 71.238281 39.636719 71.121094 39.753906 70.976562 39.753906 L 37.960938 39.753906 C 37.816406 39.753906 37.699219 39.636719 37.699219 39.492188 Z M 37.699219 39.492188 " fill-opacity="1" fill-rule="nonzero"/><path fill="#a1b2de" d="M 55 24.722656 L 55 21.488281 C 55 21.375 55.09375 21.28125 55.207031 21.28125 L 68.550781 21.28125 C 68.664062 21.28125 68.757812 21.375 68.757812 21.488281 L 68.757812 24.722656 C 68.757812 24.835938 68.664062 24.929688 68.550781 24.929688 L 55.207031 24.929688 C 55.09375 24.929688 55 24.835938 55 24.722656 Z M 55 24.722656 " fill-opacity="1" fill-rule="nonzero"/><path fill="#b7c5e8" d="M 55 23.792969 L 55 21.429688 C 55 21.347656 55.070312 21.28125 55.152344 21.28125 L 67.21875 21.28125 C 67.304688 21.28125 67.371094 21.347656 67.371094 21.429688 L 67.371094 23.792969 C 67.371094 23.875 67.304688 23.941406 67.21875 23.941406 L 55.152344 23.941406 C 55.070312 23.941406 55 23.875 55 23.792969 Z M 55 23.792969 " fill-opacity="1" fill-rule="nonzero"/><path fill="#ced8f2" d="M 55.714844 22.292969 L 55.714844 21.503906 C 55.714844 21.476562 55.734375 21.453125 55.761719 21.453125 L 64.679688 21.453125 C 64.707031 21.453125 64.730469 21.476562 64.730469 21.503906 L 64.730469 22.292969 C 64.730469 22.320312 64.707031 22.34375 64.679688 22.34375 L 55.761719 22.34375 C 55.734375 22.34375 55.714844 22.320312 55.714844 22.292969 Z M 55.714844 22.292969 " fill-opacity="1" fill-rule="nonzero"/><path fill="#a1b2de" d="M 55 21.074219 L 55 17.839844 C 55 17.726562 55.09375 17.632812 55.207031 17.632812 L 68.550781 17.632812 C 68.664062 17.632812 68.757812 17.726562 68.757812 17.839844 L 68.757812 21.074219 C 68.757812 21.1875 68.664062 21.28125 68.550781 21.28125 L 55.207031 21.28125 C 55.09375 21.28125 55 21.1875 55 21.074219 Z M 55 21.074219 " fill-opacity="1" fill-rule="nonzero"/><path fill="#b7c5e8" d="M 55 20.144531 L 55 17.785156 C 55 17.699219 55.070312 17.632812 55.152344 17.632812 L 67.21875 17.632812 C 67.304688 17.632812 67.371094 17.699219 67.371094 17.785156 L 67.371094 20.144531 C 67.371094 20.226562 67.304688 20.292969 67.21875 20.292969 L 55.152344 20.292969 C 55.070312 20.292969 55 20.226562 55 20.144531 Z M 55 20.144531 " fill-opacity="1" fill-rule="nonzero"/><path fill="#ced8f2" d="M 55.714844 18.644531 L 55.714844 17.859375 C 55.714844 17.828125 55.734375 17.808594 55.761719 17.808594 L 64.679688 17.808594 C 64.707031 17.808594 64.730469 17.828125 64.730469 17.859375 L 64.730469 18.644531 C 64.730469 18.671875 64.707031 18.695312 64.679688 18.695312 L 55.761719 18.695312 C 55.734375 18.695312 55.714844 18.671875 55.714844 18.644531 Z M 55.714844 18.644531 " fill-opacity="1" fill-rule="nonzero"/><path fill="#fce2bf" d="M 39.648438 39.539062 L 39.648438 36.199219 C 39.648438 36.082031 39.742188 35.988281 39.863281 35.988281 L 53.261719 35.988281 C 53.378906 35.988281 53.476562 36.082031 53.476562 36.199219 L 53.476562 39.539062 C 53.476562 39.65625 53.378906 39.753906 53.261719 39.753906 L 39.863281 39.753906 C 39.742188 39.753906 39.648438 39.65625 39.648438 39.539062 Z M 39.648438 39.539062 " fill-opacity="1" fill-rule="nonzero"/><path fill="#faead4" d="M 39.648438 38.578125 L 39.648438 36.144531 C 39.648438 36.058594 39.71875 35.988281 39.804688 35.988281 L 51.925781 35.988281 C 52.011719 35.988281 52.082031 36.058594 52.082031 36.144531 L 52.082031 38.578125 C 52.082031 38.664062 52.011719 38.734375 51.925781 38.734375 L 39.804688 38.734375 C 39.71875 38.734375 39.648438 38.664062 39.648438 38.578125 Z M 39.648438 38.578125 " fill-opacity="1" fill-rule="nonzero"/><path fill="#fff4e6" d="M 40.363281 37.03125 L 40.363281 36.21875 C 40.363281 36.191406 40.386719 36.167969 40.414062 36.167969 L 49.375 36.167969 C 49.40625 36.167969 49.429688 36.191406 49.429688 36.21875 L 49.429688 37.03125 C 49.429688 37.058594 49.40625 37.082031 49.375 37.082031 L 40.414062 37.082031 C 40.386719 37.082031 40.363281 37.058594 40.363281 37.03125 Z M 40.363281 37.03125 " fill-opacity="1" fill-rule="nonzero"/><path fill="#a1b2de" d="M 41.171875 35.773438 L 41.171875 32.4375 C 41.171875 32.316406 41.269531 32.222656 41.386719 32.222656 L 54.785156 32.222656 C 54.90625 32.222656 55 32.316406 55 32.4375 L 55 35.773438 C 55 35.890625 54.90625 35.988281 54.785156 35.988281 L 41.386719 35.988281 C 41.269531 35.988281 41.171875 35.890625 41.171875 35.773438 Z M 41.171875 35.773438 " fill-opacity="1" fill-rule="nonzero"/><path fill="#b7c5e8" d="M 41.171875 34.8125 L 41.171875 32.378906 C 41.171875 32.292969 41.242188 32.222656 41.328125 32.222656 L 53.449219 32.222656 C 53.535156 32.222656 53.605469 32.292969 53.605469 32.378906 L 53.605469 34.8125 C 53.605469 34.898438 53.535156 34.96875 53.449219 34.96875 L 41.328125 34.96875 C 41.242188 34.96875 41.171875 34.898438 41.171875 34.8125 Z M 41.171875 34.8125 " fill-opacity="1" fill-rule="nonzero"/><path fill="#ced8f2" d="M 41.886719 33.265625 L 41.886719 32.453125 C 41.886719 32.425781 41.910156 32.402344 41.941406 32.402344 L 50.898438 32.402344 C 50.929688 32.402344 50.953125 32.425781 50.953125 32.453125 L 50.953125 33.265625 C 50.953125 33.296875 50.929688 33.316406 50.898438 33.316406 L 41.941406 33.316406 C 41.910156 33.316406 41.886719 33.296875 41.886719 33.265625 Z M 41.886719 33.265625 " fill-opacity="1" fill-rule="nonzero"/><path fill="#fce2bf" d="M 39.117188 24.722656 L 39.117188 21.488281 C 39.117188 21.375 39.207031 21.28125 39.324219 21.28125 L 52.667969 21.28125 C 52.78125 21.28125 52.875 21.375 52.875 21.488281 L 52.875 24.722656 C 52.875 24.835938 52.78125 24.929688 52.667969 24.929688 L 39.324219 24.929688 C 39.207031 24.929688 39.117188 24.835938 39.117188 24.722656 Z M 39.117188 24.722656 " fill-opacity="1" fill-rule="nonzero"/><path fill="#faead4" d="M 39.117188 23.792969 L 39.117188 21.429688 C 39.117188 21.347656 39.183594 21.28125 39.265625 21.28125 L 51.335938 21.28125 C 51.417969 21.28125 51.488281 21.347656 51.488281 21.429688 L 51.488281 23.792969 C 51.488281 23.875 51.417969 23.941406 51.335938 23.941406 L 39.265625 23.941406 C 39.183594 23.941406 39.117188 23.875 39.117188 23.792969 Z M 39.117188 23.792969 " fill-opacity="1" fill-rule="nonzero"/><path fill="#fff4e6" d="M 39.828125 22.292969 L 39.828125 21.503906 C 39.828125 21.476562 39.851562 21.453125 39.878906 21.453125 L 48.796875 21.453125 C 48.824219 21.453125 48.847656 21.476562 48.847656 21.503906 L 48.847656 22.292969 C 48.847656 22.320312 48.824219 22.34375 48.796875 22.34375 L 39.878906 22.34375 C 39.851562 22.34375 39.828125 22.320312 39.828125 22.292969 Z M 39.828125 22.292969 " fill-opacity="1" fill-rule="nonzero"/><path fill="#fce2bf" d="M 39.550781 21.074219 L 39.550781 17.839844 C 39.550781 17.726562 39.640625 17.632812 39.757812 17.632812 L 53.097656 17.632812 C 53.214844 17.632812 53.308594 17.726562 53.308594 17.839844 L 53.308594 21.074219 C 53.308594 21.1875 53.214844 21.28125 53.097656 21.28125 L 39.757812 21.28125 C 39.640625 21.28125 39.550781 21.1875 39.550781 21.074219 Z M 39.550781 21.074219 " fill-opacity="1" fill-rule="nonzero"/><path fill="#faead4" d="M 39.550781 20.144531 L 39.550781 17.785156 C 39.550781 17.699219 39.617188 17.632812 39.699219 17.632812 L 51.769531 17.632812 C 51.851562 17.632812 51.917969 17.699219 51.917969 17.785156 L 51.917969 20.144531 C 51.917969 20.226562 51.851562 20.292969 51.769531 20.292969 L 39.699219 20.292969 C 39.617188 20.292969 39.550781 20.226562 39.550781 20.144531 Z M 39.550781 20.144531 " fill-opacity="1" fill-rule="nonzero"/><path fill="#fff4e6" d="M 40.261719 18.644531 L 40.261719 17.859375 C 40.261719 17.828125 40.285156 17.808594 40.3125 17.808594 L 49.230469 17.808594 C 49.257812 17.808594 49.28125 17.828125 49.28125 17.859375 L 49.28125 18.644531 C 49.28125 18.671875 49.257812 18.695312 49.230469 18.695312 L 40.3125 18.695312 C 40.285156 18.695312 40.261719 18.671875 40.261719 18.644531 Z M 40.261719 18.644531 " fill-opacity="1" fill-rule="nonzero"/><path fill="#fce2bf" d="M 57.402344 29.632812 L 60.824219 29.632812 C 60.945312 29.632812 61.042969 29.730469 61.042969 29.851562 L 61.042969 39.535156 C 61.042969 39.65625 60.945312 39.753906 60.824219 39.753906 L 57.402344 39.753906 C 57.28125 39.753906 57.183594 39.65625 57.183594 39.535156 L 57.183594 29.851562 C 57.183594 29.730469 57.28125 29.632812 57.402344 29.632812 Z M 57.402344 29.632812 " fill-opacity="1" fill-rule="nonzero"/><path fill="#faead4" d="M 58.386719 29.632812 L 60.882812 29.632812 C 60.972656 29.632812 61.042969 29.707031 61.042969 29.792969 L 61.042969 38.574219 C 61.042969 38.660156 60.972656 38.730469 60.882812 38.730469 L 58.386719 38.730469 C 58.300781 38.730469 58.226562 38.660156 58.226562 38.574219 L 58.226562 29.792969 C 58.226562 29.707031 58.300781 29.632812 58.386719 29.632812 Z M 58.386719 29.632812 " fill-opacity="1" fill-rule="nonzero"/><path fill="#fff4e6" d="M 59.972656 30.160156 L 60.804688 30.160156 C 60.835938 30.160156 60.859375 30.183594 60.859375 30.210938 L 60.859375 36.738281 C 60.859375 36.765625 60.835938 36.789062 60.804688 36.789062 L 59.972656 36.789062 C 59.945312 36.789062 59.921875 36.765625 59.921875 36.738281 L 59.921875 30.210938 C 59.921875 30.183594 59.945312 30.160156 59.972656 30.160156 Z M 59.972656 30.160156 " fill-opacity="1" fill-rule="nonzero"/><path fill="#a1b2de" d="M 61.261719 29.632812 L 64.683594 29.632812 C 64.804688 29.632812 64.902344 29.730469 64.902344 29.851562 L 64.902344 39.535156 C 64.902344 39.65625 64.804688 39.753906 64.683594 39.753906 L 61.261719 39.753906 C 61.140625 39.753906 61.042969 39.65625 61.042969 39.535156 L 61.042969 29.851562 C 61.042969 29.730469 61.140625 29.632812 61.261719 29.632812 Z M 61.261719 29.632812 " fill-opacity="1" fill-rule="nonzero"/><path fill="#b7c5e8" d="M 62.246094 29.632812 L 64.742188 29.632812 C 64.828125 29.632812 64.902344 29.707031 64.902344 29.792969 L 64.902344 38.574219 C 64.902344 38.660156 64.828125 38.730469 64.742188 38.730469 L 62.246094 38.730469 C 62.15625 38.730469 62.085938 38.660156 62.085938 38.574219 L 62.085938 29.792969 C 62.085938 29.707031 62.15625 29.632812 62.246094 29.632812 Z M 62.246094 29.632812 " fill-opacity="1" fill-rule="nonzero"/><path fill="#ced8f2" d="M 63.832031 30.160156 L 64.664062 30.160156 C 64.691406 30.160156 64.714844 30.183594 64.714844 30.210938 L 64.714844 36.738281 C 64.714844 36.765625 64.691406 36.789062 64.664062 36.789062 L 63.832031 36.789062 C 63.800781 36.789062 63.777344 36.765625 63.777344 36.738281 L 63.777344 30.210938 C 63.777344 30.183594 63.800781 30.160156 63.832031 30.160156 Z M 63.832031 30.160156 " fill-opacity="1" fill-rule="nonzero"/><path fill="#a1b2de" d="M 65.121094 29.632812 L 68.539062 29.632812 C 68.660156 29.632812 68.757812 29.730469 68.757812 29.851562 L 68.757812 39.535156 C 68.757812 39.65625 68.660156 39.753906 68.539062 39.753906 L 65.121094 39.753906 C 65 39.753906 64.902344 39.65625 64.902344 39.535156 L 64.902344 29.851562 C 64.902344 29.730469 65 29.632812 65.121094 29.632812 Z M 65.121094 29.632812 " fill-opacity="1" fill-rule="nonzero"/><path fill="#b7c5e8" d="M 66.101562 29.632812 L 68.597656 29.632812 C 68.6875 29.632812 68.757812 29.707031 68.757812 29.792969 L 68.757812 38.574219 C 68.757812 38.660156 68.6875 38.730469 68.597656 38.730469 L 66.101562 38.730469 C 66.015625 38.730469 65.945312 38.660156 65.945312 38.574219 L 65.945312 29.792969 C 65.945312 29.707031 66.015625 29.632812 66.101562 29.632812 Z M 66.101562 29.632812 " fill-opacity="1" fill-rule="nonzero"/><path fill="#ced8f2" d="M 67.6875 30.160156 L 68.519531 30.160156 C 68.550781 30.160156 68.574219 30.183594 68.574219 30.210938 L 68.574219 36.738281 C 68.574219 36.765625 68.550781 36.789062 68.519531 36.789062 L 67.6875 36.789062 C 67.660156 36.789062 67.636719 36.765625 67.636719 36.738281 L 67.636719 30.210938 C 67.636719 30.183594 67.660156 30.160156 67.6875 30.160156 Z M 67.6875 30.160156 " fill-opacity="1" fill-rule="nonzero"/><path fill="#703627" d="M 41.34375 45.503906 L 39.628906 45.503906 C 38.949219 45.503906 38.394531 44.953125 38.394531 44.273438 L 38.394531 42.695312 L 39.390625 42.695312 L 39.390625 44.273438 C 39.390625 44.40625 39.496094 44.511719 39.628906 44.511719 L 41.34375 44.511719 C 41.476562 44.511719 41.582031 44.40625 41.582031 44.273438 L 41.582031 42.734375 L 42.578125 42.734375 L 42.578125 44.273438 C 42.578125 44.953125 42.023438 45.503906 41.34375 45.503906 Z M 41.34375 45.503906 " fill-opacity="1" fill-rule="nonzero"/><path fill="#703627" d="M 67.347656 45.503906 L 65.632812 45.503906 C 64.953125 45.503906 64.398438 44.953125 64.398438 44.273438 L 64.398438 42.773438 L 65.394531 42.773438 L 65.394531 44.273438 C 65.394531 44.40625 65.503906 44.511719 65.632812 44.511719 L 67.347656 44.511719 C 67.480469 44.511719 67.589844 44.40625 67.589844 44.273438 L 67.589844 42.710938 L 68.585938 42.710938 L 68.585938 44.273438 C 68.585938 44.953125 68.03125 45.503906 67.347656 45.503906 Z M 67.347656 45.503906 " fill-opacity="1" fill-rule="nonzero"/><g clip-path="url(#82963f4f75)"><path fill="#703627" d="M 70.535156 43.191406 L 38.402344 43.191406 C 36.242188 43.191406 34.484375 41.4375 34.484375 39.289062 L 34.484375 13.390625 C 34.484375 11.238281 36.242188 9.488281 38.402344 9.488281 L 70.535156 9.488281 C 72.695312 9.488281 74.453125 11.238281 74.453125 13.390625 L 74.453125 39.289062 C 74.453125 41.4375 72.695312 43.191406 70.535156 43.191406 Z M 38.402344 10.480469 C 36.789062 10.480469 35.480469 11.785156 35.480469 13.390625 L 35.480469 39.289062 C 35.480469 40.890625 36.789062 42.199219 38.402344 42.199219 L 70.535156 42.199219 C 72.148438 42.199219 73.457031 40.890625 73.457031 39.289062 L 73.457031 13.390625 C 73.457031 11.785156 72.148438 10.480469 70.535156 10.480469 Z M 38.402344 10.480469 " fill-opacity="1" fill-rule="nonzero"/></g><path fill="#703627" d="M 70.773438 25.425781 L 37.808594 25.425781 C 37.472656 25.425781 37.199219 25.152344 37.199219 24.816406 L 37.199219 14.582031 C 37.199219 13.394531 38.167969 12.429688 39.359375 12.429688 L 69.578125 12.429688 C 70.769531 12.429688 71.738281 13.394531 71.738281 14.582031 L 71.738281 24.460938 C 71.738281 24.992188 71.304688 25.425781 70.773438 25.425781 Z M 38.195312 24.429688 L 70.773438 24.429688 L 70.742188 14.582031 C 70.742188 13.941406 70.21875 13.421875 69.578125 13.421875 L 39.359375 13.421875 C 38.71875 13.421875 38.195312 13.941406 38.195312 14.582031 Z M 38.195312 24.429688 " fill-opacity="1" fill-rule="nonzero"/><path fill="#703627" d="M 69.578125 40.25 L 39.359375 40.25 C 38.167969 40.25 37.199219 39.285156 37.199219 38.097656 L 37.199219 27.863281 C 37.199219 27.527344 37.472656 27.253906 37.808594 27.253906 L 70.773438 27.253906 C 71.304688 27.253906 71.738281 27.6875 71.738281 28.21875 L 71.738281 38.097656 C 71.738281 39.285156 70.769531 40.25 69.578125 40.25 Z M 38.195312 28.246094 L 38.195312 38.097656 C 38.195312 38.738281 38.71875 39.257812 39.359375 39.257812 L 69.578125 39.257812 C 70.21875 39.257812 70.742188 38.738281 70.742188 38.097656 L 70.742188 28.21875 Z M 38.195312 28.246094 " fill-opacity="1" fill-rule="nonzero"/><path fill="#703627" d="M 67.445312 25.425781 L 56.3125 25.425781 C 55.316406 25.425781 54.503906 24.613281 54.503906 23.621094 L 54.503906 22.585938 C 54.503906 21.59375 55.316406 20.785156 56.3125 20.785156 L 67.445312 20.785156 C 68.445312 20.785156 69.257812 21.59375 69.257812 22.585938 L 69.257812 23.621094 C 69.257812 24.613281 68.445312 25.425781 67.445312 25.425781 Z M 56.3125 21.777344 C 55.863281 21.777344 55.5 22.140625 55.5 22.585938 L 55.5 23.621094 C 55.5 24.066406 55.863281 24.429688 56.3125 24.429688 L 67.445312 24.429688 C 67.894531 24.429688 68.261719 24.066406 68.261719 23.621094 L 68.261719 22.585938 C 68.261719 22.140625 67.894531 21.777344 67.445312 21.777344 Z M 56.3125 21.777344 " fill-opacity="1" fill-rule="nonzero"/><path fill="#703627" d="M 67.445312 21.777344 L 56.3125 21.777344 C 55.316406 21.777344 54.503906 20.96875 54.503906 19.972656 L 54.503906 18.941406 C 54.503906 17.945312 55.316406 17.136719 56.3125 17.136719 L 67.445312 17.136719 C 68.445312 17.136719 69.257812 17.945312 69.257812 18.941406 L 69.257812 19.972656 C 69.257812 20.96875 68.445312 21.777344 67.445312 21.777344 Z M 56.3125 18.128906 C 55.863281 18.128906 55.5 18.492188 55.5 18.941406 L 55.5 19.972656 C 55.5 20.421875 55.863281 20.785156 56.3125 20.785156 L 67.445312 20.785156 C 67.894531 20.785156 68.261719 20.421875 68.261719 19.972656 L 68.261719 18.941406 C 68.261719 18.492188 67.894531 18.128906 67.445312 18.128906 Z M 56.3125 18.128906 " fill-opacity="1" fill-rule="nonzero"/><path fill="#703627" d="M 52.121094 40.25 L 41 40.25 C 39.980469 40.25 39.148438 39.421875 39.148438 38.402344 L 39.148438 37.335938 C 39.148438 36.320312 39.980469 35.492188 41 35.492188 L 52.121094 35.492188 C 53.144531 35.492188 53.972656 36.320312 53.972656 37.335938 L 53.972656 38.402344 C 53.972656 39.421875 53.144531 40.25 52.121094 40.25 Z M 41 36.484375 C 40.53125 36.484375 40.144531 36.867188 40.144531 37.335938 L 40.144531 38.402344 C 40.144531 38.875 40.53125 39.257812 41 39.257812 L 52.121094 39.257812 C 52.59375 39.257812 52.976562 38.875 52.976562 38.402344 L 52.976562 37.335938 C 52.976562 36.867188 52.59375 36.484375 52.121094 36.484375 Z M 41 36.484375 " fill-opacity="1" fill-rule="nonzero"/><path fill="#703627" d="M 53.644531 36.484375 L 42.527344 36.484375 C 41.503906 36.484375 40.671875 35.65625 40.671875 34.636719 L 40.671875 33.570312 C 40.671875 32.554688 41.503906 31.726562 42.527344 31.726562 L 53.644531 31.726562 C 54.667969 31.726562 55.5 32.554688 55.5 33.570312 L 55.5 34.636719 C 55.5 35.65625 54.667969 36.484375 53.644531 36.484375 Z M 42.527344 32.71875 C 42.054688 32.71875 41.667969 33.101562 41.667969 33.570312 L 41.667969 34.636719 C 41.667969 35.109375 42.054688 35.492188 42.527344 35.492188 L 53.644531 35.492188 C 54.117188 35.492188 54.503906 35.109375 54.503906 34.636719 L 54.503906 33.570312 C 54.503906 33.101562 54.117188 32.71875 53.644531 32.71875 Z M 42.527344 32.71875 " fill-opacity="1" fill-rule="nonzero"/><path fill="#703627" d="M 51.5625 25.425781 L 40.425781 25.425781 C 39.429688 25.425781 38.617188 24.613281 38.617188 23.621094 L 38.617188 22.585938 C 38.617188 21.59375 39.429688 20.785156 40.425781 20.785156 L 51.5625 20.785156 C 52.558594 20.785156 53.371094 21.59375 53.371094 22.585938 L 53.371094 23.621094 C 53.371094 24.613281 52.558594 25.425781 51.5625 25.425781 Z M 40.425781 21.777344 C 39.980469 21.777344 39.613281 22.140625 39.613281 22.585938 L 39.613281 23.621094 C 39.613281 24.066406 39.980469 24.429688 40.425781 24.429688 L 51.5625 24.429688 C 52.011719 24.429688 52.375 24.066406 52.375 23.621094 L 52.375 22.585938 C 52.375 22.140625 52.011719 21.777344 51.5625 21.777344 Z M 40.425781 21.777344 " fill-opacity="1" fill-rule="nonzero"/><path fill="#703627" d="M 51.996094 21.777344 L 40.859375 21.777344 C 39.863281 21.777344 39.050781 20.96875 39.050781 19.972656 L 39.050781 18.941406 C 39.050781 17.945312 39.863281 17.136719 40.859375 17.136719 L 51.996094 17.136719 C 52.992188 17.136719 53.804688 17.945312 53.804688 18.941406 L 53.804688 19.972656 C 53.804688 20.96875 52.992188 21.777344 51.996094 21.777344 Z M 40.859375 18.128906 C 40.414062 18.128906 40.046875 18.492188 40.046875 18.941406 L 40.046875 19.972656 C 40.046875 20.421875 40.414062 20.785156 40.859375 20.785156 L 51.996094 20.785156 C 52.445312 20.785156 52.808594 20.421875 52.808594 19.972656 L 52.808594 18.941406 C 52.808594 18.492188 52.445312 18.128906 51.996094 18.128906 Z M 40.859375 18.128906 " fill-opacity="1" fill-rule="nonzero"/><path fill="#703627" d="M 59.660156 40.25 L 58.566406 40.25 C 57.53125 40.25 56.6875 39.410156 56.6875 38.375 L 56.6875 31.011719 C 56.6875 29.980469 57.53125 29.136719 58.566406 29.136719 L 59.660156 29.136719 C 60.699219 29.136719 61.539062 29.980469 61.539062 31.011719 L 61.539062 38.375 C 61.539062 39.410156 60.699219 40.25 59.660156 40.25 Z M 58.566406 30.128906 C 58.078125 30.128906 57.683594 30.527344 57.683594 31.011719 L 57.683594 38.375 C 57.683594 38.859375 58.078125 39.257812 58.566406 39.257812 L 59.660156 39.257812 C 60.148438 39.257812 60.546875 38.859375 60.546875 38.375 L 60.546875 31.011719 C 60.546875 30.527344 60.148438 30.128906 59.660156 30.128906 Z M 58.566406 30.128906 " fill-opacity="1" fill-rule="nonzero"/><path fill="#703627" d="M 63.519531 40.25 L 62.425781 40.25 C 61.390625 40.25 60.546875 39.410156 60.546875 38.375 L 60.546875 31.011719 C 60.546875 29.980469 61.390625 29.136719 62.425781 29.136719 L 63.519531 29.136719 C 64.554688 29.136719 65.398438 29.980469 65.398438 31.011719 L 65.398438 38.375 C 65.398438 39.410156 64.554688 40.25 63.519531 40.25 Z M 62.425781 30.128906 C 61.9375 30.128906 61.542969 30.527344 61.542969 31.011719 L 61.542969 38.375 C 61.542969 38.859375 61.9375 39.257812 62.425781 39.257812 L 63.519531 39.257812 C 64.007812 39.257812 64.402344 38.859375 64.402344 38.375 L 64.402344 31.011719 C 64.402344 30.527344 64.007812 30.128906 63.519531 30.128906 Z M 62.425781 30.128906 " fill-opacity="1" fill-rule="nonzero"/><path fill="#703627" d="M 67.375 40.25 L 66.285156 40.25 C 65.246094 40.25 64.402344 39.410156 64.402344 38.375 L 64.402344 31.011719 C 64.402344 29.980469 65.246094 29.136719 66.285156 29.136719 L 67.375 29.136719 C 68.414062 29.136719 69.257812 29.980469 69.257812 31.011719 L 69.257812 38.375 C 69.257812 39.410156 68.414062 40.25 67.375 40.25 Z M 66.285156 30.128906 C 65.796875 30.128906 65.398438 30.527344 65.398438 31.011719 L 65.398438 38.375 C 65.398438 38.859375 65.796875 39.257812 66.285156 39.257812 L 67.375 39.257812 C 67.863281 39.257812 68.261719 38.859375 68.261719 38.375 L 68.261719 31.011719 C 68.261719 30.527344 67.863281 30.128906 67.375 30.128906 Z M 66.285156 30.128906 " fill-opacity="1" fill-rule="nonzero"/><path fill="#dda783" d="M 11.644531 26.226562 C 9.632812 28.238281 7.707031 30.367188 6.257812 32.796875 C 4.808594 35.230469 3.84375 37.992188 3.875 40.808594 C 3.890625 42.390625 4.234375 43.992188 5.058594 45.355469 C 5.878906 46.71875 7.214844 47.820312 8.789062 48.199219 C 9.917969 48.46875 10.957031 48.105469 11.65625 47.199219 C 12.21875 46.46875 12.535156 45.652344 12.5625 44.710938 C 12.46875 44.363281 12.5 43.984375 12.644531 43.65625 C 12.957031 44.6875 13.28125 45.75 13.964844 46.59375 C 14.648438 47.4375 15.785156 48.023438 16.851562 47.753906 C 17.875 47.496094 18.546875 46.566406 19.203125 45.71875 C 21.671875 46.34375 24.28125 46.433594 26.925781 46.125 C 27.652344 46.792969 28.511719 47.507812 29.507812 47.433594 C 29.996094 47.398438 30.445312 47.171875 30.855469 46.910156 C 31.808594 46.289062 32.605469 45.433594 33.082031 44.425781 C 34.46875 44.140625 35.660156 43.199219 36.4375 42.039062 C 37.214844 40.878906 37.621094 39.511719 37.851562 38.144531 C 38.433594 34.695312 37.886719 30.921875 35.636719 28.210938 C 33.828125 26.027344 31.097656 24.726562 28.296875 24.105469 C 25.496094 23.480469 22.59375 23.476562 19.722656 23.480469 C 18.398438 23.480469 17.058594 23.484375 15.765625 23.773438 C 14.472656 24.0625 13.210938 24.660156 11.644531 26.226562 Z M 11.644531 26.226562 " fill-opacity="1" fill-rule="nonzero"/><path fill="#b27966" d="M 33.464844 43.523438 C 31.46875 42.894531 29.242188 43.035156 27.34375 43.917969 C 26.964844 44.09375 26.550781 44.363281 26.503906 44.777344 C 26.46875 45.085938 26.644531 45.371094 26.8125 45.628906 C 27.148438 46.140625 27.496094 46.667969 28.007812 47.003906 C 29.113281 47.726562 30.667969 47.324219 31.640625 46.429688 C 32.613281 45.539062 33.132812 44.273438 33.464844 43.523438 Z M 33.464844 43.523438 " fill-opacity="1" fill-rule="nonzero"/><path fill="#ffdcc4" d="M 25.878906 42.796875 C 24.023438 42.078125 21.957031 41.917969 20.011719 42.335938 C 19.855469 43.480469 19.539062 44.601562 19.082031 45.660156 C 21.632812 46.179688 24.289062 46.203125 26.847656 45.722656 C 26.3125 44.769531 25.90625 43.746094 25.878906 42.796875 Z M 25.878906 42.796875 " fill-opacity="1" fill-rule="nonzero"/><path fill="#b27966" d="M 19.210938 44.78125 C 17.292969 43.5 14.882812 42.964844 12.597656 43.3125 C 12.890625 44.371094 13.359375 45.378906 13.976562 46.285156 C 14.371094 46.863281 14.867188 47.429688 15.542969 47.628906 C 16.335938 47.863281 17.210938 47.527344 17.824219 46.976562 C 18.441406 46.425781 18.847656 45.6875 19.210938 44.78125 Z M 19.210938 44.78125 " fill-opacity="1" fill-rule="nonzero"/><path fill="#b27966" d="M 12.410156 44.289062 C 10.171875 42.699219 6.96875 42.59375 4.628906 44.035156 C 5.296875 45.304688 6.269531 46.417969 7.441406 47.25 C 8.378906 47.917969 9.605469 48.417969 10.664062 47.964844 C 11.3125 47.691406 11.78125 47.097656 12.054688 46.449219 C 12.328125 45.804688 12.433594 45.101562 12.410156 44.289062 Z M 12.410156 44.289062 " fill-opacity="1" fill-rule="nonzero"/><path fill="#703627" d="M 16.089844 48.296875 C 15.960938 48.296875 15.824219 48.289062 15.691406 48.265625 C 14.621094 48.101562 13.648438 47.273438 12.949219 45.929688 C 11.535156 43.195312 11.664062 39.867188 11.765625 37.191406 C 11.777344 36.917969 12.007812 36.707031 12.28125 36.714844 C 12.558594 36.726562 12.769531 36.957031 12.761719 37.230469 C 12.65625 39.921875 12.539062 42.972656 13.835938 45.472656 C 14.152344 46.085938 14.832031 47.132812 15.84375 47.285156 C 16.953125 47.457031 18.011719 46.421875 18.527344 45.390625 C 18.839844 44.757812 19.046875 44.078125 19.265625 43.359375 C 19.460938 42.722656 19.660156 42.0625 19.945312 41.433594 C 20.058594 41.183594 20.351562 41.070312 20.601562 41.1875 C 20.855469 41.296875 20.964844 41.589844 20.855469 41.839844 C 20.597656 42.410156 20.414062 43.011719 20.21875 43.648438 C 20 44.375 19.769531 45.125 19.417969 45.832031 C 18.785156 47.105469 17.539062 48.296875 16.089844 48.296875 Z M 16.089844 48.296875 " fill-opacity="1" fill-rule="nonzero"/><path fill="#703627" d="M 29.382812 47.859375 C 29.214844 47.859375 29.046875 47.847656 28.886719 47.820312 C 27.8125 47.632812 26.820312 46.804688 26.230469 45.605469 C 25.726562 44.582031 25.542969 43.421875 25.378906 42.398438 C 25.335938 42.128906 25.523438 41.875 25.796875 41.832031 C 26.066406 41.789062 26.320312 41.972656 26.363281 42.242188 C 26.523438 43.246094 26.683594 44.28125 27.121094 45.167969 C 27.574219 46.085938 28.296875 46.710938 29.054688 46.839844 C 29.730469 46.957031 30.492188 46.703125 31.148438 46.140625 C 31.816406 45.570312 32.296875 44.777344 32.675781 44.070312 C 33.5625 42.433594 34.238281 40.675781 34.679688 38.851562 C 34.746094 38.585938 35.015625 38.421875 35.28125 38.488281 C 35.550781 38.550781 35.714844 38.820312 35.648438 39.085938 C 35.183594 40.992188 34.480469 42.828125 33.554688 44.542969 C 33.128906 45.328125 32.589844 46.21875 31.796875 46.894531 C 31.0625 47.523438 30.207031 47.859375 29.382812 47.859375 Z M 29.382812 47.859375 " fill-opacity="1" fill-rule="nonzero"/><path fill="#703627" d="M 32.929688 45.128906 C 32.71875 45.128906 32.519531 44.988281 32.453125 44.777344 C 32.375 44.511719 32.523438 44.238281 32.785156 44.15625 C 35.898438 43.21875 37.992188 38.535156 37.710938 35.128906 C 37.457031 32 36.429688 29.460938 31.953125 25.75 C 31.742188 25.574219 31.710938 25.261719 31.886719 25.050781 C 32.0625 24.839844 32.378906 24.8125 32.589844 24.988281 C 36.78125 28.460938 38.382812 31.09375 38.703125 35.050781 C 39.019531 38.902344 36.679688 44.019531 33.074219 45.105469 C 33.027344 45.121094 32.976562 45.128906 32.929688 45.128906 Z M 32.929688 45.128906 " fill-opacity="1" fill-rule="nonzero"/><path fill="#703627" d="M 23.257812 46.785156 C 21.617188 46.785156 19.96875 46.574219 18.777344 46.066406 C 18.523438 45.960938 18.40625 45.667969 18.515625 45.414062 C 18.621094 45.164062 18.914062 45.046875 19.167969 45.152344 C 21.09375 45.972656 24.597656 45.933594 26.871094 45.425781 C 27.140625 45.363281 27.40625 45.53125 27.464844 45.800781 C 27.527344 46.066406 27.359375 46.332031 27.089844 46.390625 C 26 46.636719 24.632812 46.785156 23.257812 46.785156 Z M 23.257812 46.785156 " fill-opacity="1" fill-rule="nonzero"/><path fill="#703627" d="M 9.480469 48.679688 C 8.820312 48.679688 8.160156 48.523438 7.589844 48.265625 C 5.019531 47.117188 3.304688 43.980469 3.414062 40.632812 C 3.601562 34.863281 7.011719 30.597656 10.796875 26.378906 C 10.976562 26.175781 11.292969 26.15625 11.5 26.339844 C 11.703125 26.523438 11.722656 26.835938 11.539062 27.039062 C 7.742188 31.273438 4.585938 35.222656 4.410156 40.664062 C 4.3125 43.621094 5.789062 46.375 7.996094 47.363281 C 8.976562 47.800781 10.382812 47.878906 11.160156 47.019531 C 11.609375 46.519531 11.839844 45.726562 11.859375 44.597656 C 11.910156 41.855469 10.96875 39.078125 9.273438 36.976562 C 9.101562 36.761719 9.136719 36.449219 9.351562 36.277344 C 9.566406 36.105469 9.878906 36.140625 10.050781 36.355469 C 11.886719 38.632812 12.910156 41.644531 12.855469 44.613281 C 12.832031 45.992188 12.519531 46.996094 11.898438 47.683594 C 11.257812 48.394531 10.371094 48.679688 9.480469 48.679688 Z M 9.480469 48.679688 " fill-opacity="1" fill-rule="nonzero"/><path fill="#dda783" d="M 9.71875 26.097656 C 7.277344 24.609375 5.671875 21.847656 5.59375 18.996094 C 4.078125 19.414062 2.316406 18.632812 1.613281 17.234375 C 0.910156 15.832031 1.339844 13.960938 2.582031 13.003906 C 3.585938 12.234375 4.917969 12.074219 6.179688 12.003906 C 6.328125 10.738281 6.976562 9.535156 7.953125 8.710938 C 6.980469 7.628906 6.597656 6.175781 6.988281 4.933594 C 7.378906 3.6875 8.527344 2.710938 9.820312 2.523438 C 11.117188 2.335938 12.496094 2.945312 13.34375 3.957031 C 16.34375 2.332031 19.601562 1.132812 22.984375 0.714844 C 26.371094 0.292969 29.890625 0.679688 32.996094 2.085938 C 36.101562 3.496094 38.765625 5.964844 40.164062 9.257812 C 41.632812 13.027344 41.011719 17.527344 38.578125 20.761719 C 36.179688 23.949219 32.296875 25.765625 28.363281 26.472656 C 24.429688 27.183594 20.394531 26.90625 16.40625 26.625 C 14.496094 26.488281 12.171875 27.59375 9.71875 26.097656 Z M 9.71875 26.097656 " fill-opacity="1" fill-rule="nonzero"/><path fill="#703627" d="M 20.457031 14.644531 C 20.230469 15.226562 20 15.855469 20.140625 16.460938 C 20.1875 16.675781 20.296875 16.890625 20.496094 16.984375 C 20.703125 17.082031 20.957031 17.015625 21.140625 16.878906 C 21.320312 16.738281 21.445312 16.539062 21.558594 16.34375 C 21.8125 15.914062 22.050781 15.472656 22.234375 15.011719 C 22.34375 14.742188 22.433594 14.460938 22.417969 14.175781 C 22.398438 13.886719 22.253906 13.59375 21.992188 13.46875 C 21.707031 13.332031 21.355469 13.433594 21.109375 13.628906 C 20.863281 13.828125 20.671875 14.097656 20.457031 14.644531 Z M 20.457031 14.644531 " fill-opacity="1" fill-rule="nonzero"/><g clip-path="url(#83fee12006)"><path fill="#703627" d="M 4.980469 19.652344 C 4.96875 19.652344 4.960938 19.652344 4.953125 19.652344 C 3.347656 19.644531 1.878906 18.839844 1.207031 17.601562 C 0.554688 16.398438 0.679688 14.796875 1.511719 13.609375 C 2.269531 12.535156 3.570312 11.8125 4.992188 11.671875 C 6.234375 11.550781 7.59375 11.871094 8.8125 12.566406 C 9.054688 12.699219 9.136719 13.003906 9 13.242188 C 8.863281 13.480469 8.558594 13.5625 8.320312 13.425781 C 7.277344 12.832031 6.128906 12.5625 5.089844 12.660156 C 3.953125 12.769531 2.921875 13.339844 2.328125 14.179688 C 1.703125 15.066406 1.605469 16.25 2.082031 17.128906 C 2.585938 18.050781 3.710938 18.652344 4.957031 18.660156 C 6.023438 18.679688 7.167969 18.277344 8.390625 17.511719 C 8.621094 17.367188 8.929688 17.4375 9.074219 17.667969 C 9.222656 17.898438 9.152344 18.207031 8.917969 18.351562 C 7.542969 19.214844 6.21875 19.652344 4.980469 19.652344 Z M 4.980469 19.652344 " fill-opacity="1" fill-rule="nonzero"/></g><path fill="#703627" d="M 3.289062 15.761719 C 3.152344 15.761719 3.015625 15.707031 2.917969 15.597656 C 2.734375 15.390625 2.753906 15.078125 2.957031 14.894531 C 4.339844 13.664062 6.519531 13.417969 8.144531 14.308594 C 8.386719 14.441406 8.472656 14.742188 8.339844 14.980469 C 8.207031 15.222656 7.90625 15.308594 7.664062 15.179688 C 6.398438 14.484375 4.699219 14.675781 3.621094 15.636719 C 3.527344 15.71875 3.40625 15.761719 3.289062 15.761719 Z M 3.289062 15.761719 " fill-opacity="1" fill-rule="nonzero"/><path fill="#703627" d="M 8.089844 8.730469 C 7.960938 8.730469 7.828125 8.679688 7.730469 8.578125 C 6.613281 7.433594 6.199219 6.117188 6.539062 4.777344 C 6.921875 3.25 8.34375 2.039062 9.921875 1.902344 C 11.480469 1.761719 12.703125 2.5 13.367188 3.976562 C 13.480469 4.226562 13.371094 4.519531 13.117188 4.632812 C 12.867188 4.746094 12.574219 4.632812 12.460938 4.382812 C 11.96875 3.292969 11.144531 2.789062 10.007812 2.890625 C 8.84375 2.992188 7.789062 3.886719 7.503906 5.019531 C 7.25 6.023438 7.570312 6.988281 8.445312 7.886719 C 8.636719 8.085938 8.632812 8.398438 8.4375 8.589844 C 8.339844 8.683594 8.214844 8.730469 8.089844 8.730469 Z M 8.089844 8.730469 " fill-opacity="1" fill-rule="nonzero"/><path fill="#703627" d="M 13.878906 28.066406 C 11.003906 28.066406 8.9375 26.503906 7.703125 25.179688 C 5.976562 23.328125 4.839844 20.761719 5.003906 19.078125 C 5.03125 18.808594 5.277344 18.605469 5.546875 18.632812 C 5.824219 18.660156 6.023438 18.902344 5.996094 19.175781 C 5.878906 20.367188 6.695312 22.640625 8.433594 24.503906 C 9.554688 25.707031 11.4375 27.117188 14.039062 27.070312 C 14.3125 27.054688 14.542969 27.28125 14.546875 27.554688 C 14.554688 27.832031 14.335938 28.058594 14.0625 28.0625 C 14 28.066406 13.9375 28.066406 13.878906 28.066406 Z M 13.878906 28.066406 " fill-opacity="1" fill-rule="nonzero"/><path fill="#fac4af" d="M 23.152344 19.605469 C 23.152344 19.785156 23.117188 19.953125 23.050781 20.117188 C 22.980469 20.28125 22.882812 20.425781 22.757812 20.550781 C 22.632812 20.675781 22.488281 20.769531 22.324219 20.839844 C 22.160156 20.90625 21.988281 20.941406 21.8125 20.941406 C 21.636719 20.941406 21.464844 20.90625 21.300781 20.839844 C 21.136719 20.769531 20.992188 20.675781 20.867188 20.550781 C 20.742188 20.425781 20.644531 20.28125 20.574219 20.117188 C 20.507812 19.953125 20.472656 19.785156 20.472656 19.605469 C 20.472656 19.429688 20.507812 19.257812 20.574219 19.097656 C 20.644531 18.933594 20.742188 18.789062 20.867188 18.664062 C 20.992188 18.539062 21.136719 18.441406 21.300781 18.375 C 21.464844 18.308594 21.636719 18.273438 21.8125 18.273438 C 21.988281 18.273438 22.160156 18.308594 22.324219 18.375 C 22.488281 18.441406 22.632812 18.539062 22.757812 18.664062 C 22.882812 18.789062 22.980469 18.933594 23.050781 19.097656 C 23.117188 19.257812 23.152344 19.429688 23.152344 19.605469 Z M 23.152344 19.605469 " fill-opacity="1" fill-rule="nonzero"/><path fill="#b27966" d="M 28.523438 6.238281 C 29.308594 5.433594 30.15625 4.671875 31.148438 4.140625 C 32.140625 3.613281 33.292969 3.324219 34.40625 3.503906 C 35.691406 3.710938 36.230469 4.265625 37.210938 5.121094 C 38.269531 6.042969 38.523438 6.785156 39.324219 7.9375 C 39.789062 8.601562 40.632812 10.976562 40.6875 11.785156 C 40.785156 13.128906 40.761719 13.207031 39.925781 14.261719 C 39.121094 15.269531 38.308594 16.289062 37.273438 17.058594 C 36.242188 17.832031 34.953125 18.347656 33.671875 18.191406 C 32.785156 18.085938 31.96875 17.671875 31.234375 17.167969 C 29.671875 16.097656 28.441406 14.609375 27.40625 13.027344 C 26.886719 12.230469 26.398438 11.359375 26.367188 10.40625 C 26.320312 9.011719 27.125 7.679688 28.523438 6.238281 Z M 28.523438 6.238281 " fill-opacity="1" fill-rule="nonzero"/><path fill="#703627" d="M 29.339844 9.617188 C 29.703125 9.664062 30.042969 9.835938 30.296875 10.09375 C 30.402344 10.199219 30.5 10.355469 30.441406 10.492188 C 30.386719 10.625 30.222656 10.667969 30.078125 10.695312 C 29.769531 10.75 29.457031 10.808594 29.148438 10.773438 C 28.859375 10.742188 28.542969 10.601562 28.460938 10.324219 C 28.398438 10.113281 28.496094 9.871094 28.671875 9.738281 C 28.847656 9.601562 29.078125 9.582031 29.339844 9.617188 Z M 29.339844 9.617188 " fill-opacity="1" fill-rule="nonzero"/><path fill="#703627" d="M 32.578125 6.503906 C 32.617188 6.863281 32.773438 7.210938 33.023438 7.472656 C 33.128906 7.582031 33.277344 7.683594 33.417969 7.628906 C 33.554688 7.582031 33.605469 7.417969 33.636719 7.277344 C 33.703125 6.972656 33.769531 6.664062 33.75 6.351562 C 33.726562 6.0625 33.597656 5.746094 33.320312 5.652344 C 33.109375 5.582031 32.867188 5.671875 32.726562 5.839844 C 32.582031 6.011719 32.554688 6.242188 32.578125 6.503906 Z M 32.578125 6.503906 " fill-opacity="1" fill-rule="nonzero"/><path fill="#703627" d="M 34.238281 15.511719 C 33.871094 15.511719 33.484375 15.425781 33.117188 15.242188 C 32.933594 15.152344 32.855469 14.929688 32.949219 14.742188 C 33.039062 14.558594 33.265625 14.484375 33.449219 14.574219 C 34 14.847656 34.609375 14.832031 34.972656 14.535156 C 35.316406 14.253906 35.453125 13.707031 35.328125 13.15625 L 34.988281 12.800781 C 34.214844 11.992188 33.445312 11.191406 32.769531 10.46875 C 32.628906 10.320312 32.636719 10.085938 32.785156 9.945312 C 32.9375 9.804688 33.175781 9.8125 33.316406 9.960938 C 33.988281 10.679688 34.757812 11.480469 35.527344 12.289062 L 36 12.777344 L 36.023438 12.867188 C 36.269531 13.746094 36.042969 14.625 35.445312 15.109375 C 35.117188 15.378906 34.691406 15.511719 34.238281 15.511719 Z M 34.238281 15.511719 " fill-opacity="1" fill-rule="nonzero"/><path fill="#703627" d="M 36.273438 13.371094 C 36.054688 13.371094 35.832031 13.339844 35.605469 13.273438 C 35.410156 13.214844 35.296875 13.007812 35.355469 12.8125 C 35.414062 12.613281 35.621094 12.5 35.820312 12.558594 C 36.371094 12.722656 36.910156 12.585938 37.1875 12.207031 C 37.476562 11.816406 37.488281 11.160156 37.21875 10.578125 C 37.128906 10.390625 37.210938 10.167969 37.398438 10.082031 C 37.585938 9.996094 37.808594 10.078125 37.894531 10.265625 C 38.285156 11.101562 38.242188 12.035156 37.789062 12.648438 C 37.445312 13.117188 36.886719 13.371094 36.273438 13.371094 Z M 36.273438 13.371094 " fill-opacity="1" fill-rule="nonzero"/><path fill="#703627" d="M 27.722656 27.121094 C 27.476562 27.121094 27.265625 26.941406 27.230469 26.691406 C 27.195312 26.417969 27.386719 26.167969 27.65625 26.132812 C 31.195312 25.65625 34.402344 24.148438 36.683594 21.886719 C 39.152344 19.4375 40.503906 16.0625 40.300781 12.859375 C 40.101562 9.699219 38.371094 6.535156 35.667969 4.398438 C 33.183594 2.433594 29.863281 1.273438 26.324219 1.125 C 23.1875 1 19.851562 1.625 16.40625 2.996094 C 12.59375 4.511719 7.792969 8.078125 6.261719 12.320312 C 6.167969 12.578125 5.882812 12.710938 5.625 12.617188 C 5.363281 12.527344 5.230469 12.242188 5.324219 11.984375 C 6.96875 7.429688 11.890625 3.722656 16.039062 2.074219 C 19.613281 0.652344 23.089844 0 26.367188 0.136719 C 30.113281 0.289062 33.636719 1.527344 36.285156 3.621094 C 39.207031 5.929688 41.078125 9.359375 41.296875 12.796875 C 41.515625 16.28125 40.054688 19.941406 37.386719 22.589844 C 34.953125 25.003906 31.542969 26.613281 27.789062 27.117188 C 27.769531 27.121094 27.746094 27.121094 27.722656 27.121094 Z M 27.722656 27.121094 " fill-opacity="1" fill-rule="nonzero"/><path fill="#c48c71" d="M 29.035156 3.558594 C 29.019531 3.558594 29.003906 3.558594 28.984375 3.554688 L 26.199219 3.273438 C 25.925781 3.246094 25.726562 3 25.753906 2.730469 C 25.785156 2.457031 26.027344 2.253906 26.300781 2.285156 L 29.085938 2.570312 C 29.359375 2.597656 29.558594 2.839844 29.53125 3.113281 C 29.503906 3.367188 29.289062 3.558594 29.035156 3.558594 Z M 29.035156 3.558594 " fill-opacity="1" fill-rule="nonzero"/><path fill="#c48c71" d="M 19.757812 3.832031 C 19.53125 3.832031 19.324219 3.671875 19.273438 3.4375 C 19.214844 3.171875 19.386719 2.90625 19.65625 2.851562 L 22.609375 2.222656 C 22.878906 2.167969 23.140625 2.335938 23.199219 2.605469 C 23.257812 2.875 23.085938 3.136719 22.816406 3.195312 L 19.863281 3.820312 C 19.828125 3.828125 19.792969 3.832031 19.757812 3.832031 Z M 19.757812 3.832031 " fill-opacity="1" fill-rule="nonzero"/><path fill="#c48c71" d="M 25.890625 6.3125 C 25.886719 6.3125 25.882812 6.3125 25.878906 6.3125 L 23.097656 6.253906 C 22.824219 6.246094 22.605469 6.019531 22.613281 5.746094 C 22.617188 5.472656 22.847656 5.261719 23.121094 5.261719 L 25.902344 5.320312 C 26.175781 5.328125 26.394531 5.554688 26.386719 5.828125 C 26.382812 6.097656 26.160156 6.3125 25.890625 6.3125 Z M 25.890625 6.3125 " fill-opacity="1" fill-rule="nonzero"/><path fill="#c48c71" d="M 16.695312 7.4375 C 16.484375 7.4375 16.289062 7.300781 16.21875 7.09375 C 16.136719 6.832031 16.28125 6.550781 16.542969 6.46875 L 19.316406 5.574219 C 19.578125 5.492188 19.859375 5.632812 19.941406 5.894531 C 20.027344 6.15625 19.882812 6.433594 19.621094 6.519531 L 16.847656 7.410156 C 16.796875 7.429688 16.746094 7.4375 16.695312 7.4375 Z M 16.695312 7.4375 " fill-opacity="1" fill-rule="nonzero"/><path fill="#c48c71" d="M 13.113281 7.09375 C 12.945312 7.09375 12.785156 7.011719 12.691406 6.863281 C 12.542969 6.632812 12.613281 6.324219 12.84375 6.175781 L 15.507812 4.488281 C 15.742188 4.34375 16.046875 4.410156 16.195312 4.640625 C 16.34375 4.871094 16.273438 5.179688 16.042969 5.328125 L 13.378906 7.015625 C 13.296875 7.066406 13.203125 7.09375 13.113281 7.09375 Z M 13.113281 7.09375 " fill-opacity="1" fill-rule="nonzero"/><path fill="#c58d72" d="M 8.453125 32.503906 C 8.328125 32.503906 8.203125 32.457031 8.105469 32.363281 C 7.910156 32.171875 7.902344 31.859375 8.097656 31.664062 L 10.902344 28.78125 C 11.09375 28.585938 11.40625 28.582031 11.605469 28.773438 C 11.800781 28.964844 11.808594 29.277344 11.617188 29.472656 L 8.8125 32.355469 C 8.714844 32.453125 8.582031 32.503906 8.453125 32.503906 Z M 8.453125 32.503906 " fill-opacity="1" fill-rule="nonzero"/><path fill="#c58d72" d="M 5.671875 40.039062 C 5.667969 40.039062 5.664062 40.039062 5.660156 40.039062 C 5.382812 40.03125 5.167969 39.800781 5.175781 39.527344 C 5.214844 38.082031 5.496094 36.664062 6.011719 35.3125 C 6.109375 35.058594 6.394531 34.925781 6.652344 35.023438 C 6.910156 35.121094 7.039062 35.40625 6.941406 35.664062 C 6.46875 36.914062 6.207031 38.222656 6.171875 39.558594 C 6.164062 39.824219 5.941406 40.039062 5.671875 40.039062 Z M 5.671875 40.039062 " fill-opacity="1" fill-rule="nonzero"/><path fill="#c58d72" d="M 8.007812 36.929688 C 7.941406 36.929688 7.875 36.914062 7.8125 36.886719 C 7.558594 36.78125 7.441406 36.492188 7.546875 36.238281 C 8.132812 34.859375 8.929688 33.589844 9.914062 32.460938 C 10.09375 32.253906 10.410156 32.230469 10.617188 32.410156 C 10.824219 32.589844 10.847656 32.902344 10.667969 33.109375 C 9.75 34.160156 9.011719 35.34375 8.464844 36.625 C 8.386719 36.816406 8.199219 36.929688 8.007812 36.929688 Z M 8.007812 36.929688 " fill-opacity="1" fill-rule="nonzero"/><g clip-path="url(#d2d251f4b9)"><path fill="#a1b2de" d="M 14.042969 38.539062 L 16.621094 36.570312 C 16.710938 36.5 16.84375 36.515625 16.910156 36.609375 L 25.03125 47.15625 C 25.097656 47.25 25.082031 47.378906 24.992188 47.449219 L 22.414062 49.414062 C 22.324219 49.484375 22.195312 49.46875 22.125 49.375 L 14.007812 38.828125 C 13.9375 38.738281 13.953125 38.605469 14.042969 38.539062 Z M 14.042969 38.539062 " fill-opacity="1" fill-rule="nonzero"/></g><path fill="#b7c5e8" d="M 14.785156 37.972656 L 16.664062 36.535156 C 16.730469 36.484375 16.828125 36.496094 16.878906 36.5625 L 24.21875 46.105469 C 24.269531 46.171875 24.257812 46.265625 24.191406 46.316406 L 22.3125 47.753906 C 22.246094 47.804688 22.148438 47.789062 22.097656 47.722656 L 14.757812 38.183594 C 14.707031 38.117188 14.71875 38.023438 14.785156 37.972656 Z M 14.785156 37.972656 " fill-opacity="1" fill-rule="nonzero"/><path fill="#ced8f2" d="M 16.414062 37.621094 L 17.039062 37.144531 C 17.0625 37.128906 17.09375 37.132812 17.109375 37.152344 L 22.535156 44.203125 C 22.554688 44.226562 22.546875 44.257812 22.527344 44.273438 L 21.898438 44.753906 C 21.878906 44.769531 21.847656 44.765625 21.828125 44.742188 L 16.402344 37.691406 C 16.386719 37.671875 16.390625 37.640625 16.414062 37.621094 Z M 16.414062 37.621094 " fill-opacity="1" fill-rule="nonzero"/><path fill="#a1b2de" d="M 16.949219 36.316406 L 19.527344 34.351562 C 19.617188 34.28125 19.746094 34.296875 19.816406 34.390625 L 27.933594 44.9375 C 28.003906 45.03125 27.988281 45.160156 27.898438 45.230469 L 25.320312 47.195312 C 25.230469 47.265625 25.097656 47.25 25.03125 47.15625 L 16.910156 36.609375 C 16.84375 36.515625 16.859375 36.386719 16.949219 36.316406 Z M 16.949219 36.316406 " fill-opacity="1" fill-rule="nonzero"/><path fill="#b7c5e8" d="M 17.691406 35.753906 L 19.570312 34.316406 C 19.636719 34.265625 19.730469 34.277344 19.78125 34.34375 L 27.125 43.886719 C 27.175781 43.953125 27.164062 44.046875 27.097656 44.097656 L 25.21875 45.535156 C 25.152344 45.585938 25.054688 45.570312 25.003906 45.503906 L 17.664062 35.964844 C 17.613281 35.898438 17.625 35.804688 17.691406 35.753906 Z M 17.691406 35.753906 " fill-opacity="1" fill-rule="nonzero"/><path fill="#ced8f2" d="M 19.320312 35.402344 L 19.945312 34.925781 C 19.96875 34.90625 20 34.914062 20.015625 34.933594 L 25.441406 41.984375 C 25.457031 42.007812 25.453125 42.039062 25.433594 42.054688 L 24.804688 42.535156 C 24.785156 42.550781 24.75 42.546875 24.734375 42.523438 L 19.308594 35.472656 C 19.292969 35.453125 19.296875 35.421875 19.320312 35.402344 Z M 19.320312 35.402344 " fill-opacity="1" fill-rule="nonzero"/><g clip-path="url(#05d792ec1c)"><path fill="#703627" d="M 22.496094 49.511719 C 21.949219 49.511719 21.414062 49.269531 21.058594 48.804688 L 14.28125 40.003906 C 13.675781 39.214844 13.824219 38.078125 14.617188 37.472656 L 15.441406 36.847656 C 15.824219 36.550781 16.300781 36.425781 16.78125 36.488281 C 17.257812 36.550781 17.683594 36.796875 17.980469 37.179688 L 24.753906 45.984375 C 25.046875 46.363281 25.175781 46.839844 25.109375 47.316406 C 25.046875 47.792969 24.800781 48.21875 24.417969 48.511719 L 23.59375 49.140625 C 23.265625 49.390625 22.878906 49.511719 22.496094 49.511719 Z M 15.222656 38.261719 C 14.867188 38.535156 14.800781 39.042969 15.074219 39.398438 L 21.847656 48.203125 C 21.980469 48.375 22.171875 48.484375 22.386719 48.511719 C 22.601562 48.542969 22.816406 48.484375 22.988281 48.351562 L 23.8125 47.722656 C 23.984375 47.589844 24.09375 47.402344 24.125 47.1875 C 24.152344 46.972656 24.09375 46.757812 23.960938 46.585938 L 17.1875 37.785156 C 17.054688 37.609375 16.863281 37.5 16.648438 37.472656 C 16.433594 37.445312 16.21875 37.5 16.046875 37.632812 Z M 15.222656 38.261719 " fill-opacity="1" fill-rule="nonzero"/></g><path fill="#703627" d="M 25.402344 47.292969 C 25.324219 47.292969 25.242188 47.289062 25.160156 47.277344 C 24.683594 47.214844 24.257812 46.96875 23.960938 46.585938 L 17.1875 37.785156 C 16.894531 37.402344 16.765625 36.925781 16.832031 36.449219 C 16.894531 35.972656 17.140625 35.546875 17.523438 35.253906 L 18.347656 34.625 C 18.730469 34.332031 19.207031 34.207031 19.683594 34.269531 C 20.164062 34.332031 20.589844 34.578125 20.882812 34.960938 L 27.660156 43.765625 C 27.953125 44.144531 28.078125 44.621094 28.015625 45.097656 C 27.953125 45.574219 27.707031 46 27.324219 46.292969 L 26.5 46.921875 C 26.179688 47.164062 25.796875 47.292969 25.402344 47.292969 Z M 19.445312 35.246094 C 19.269531 35.246094 19.097656 35.304688 18.953125 35.414062 L 18.128906 36.042969 C 17.957031 36.175781 17.847656 36.363281 17.816406 36.578125 C 17.789062 36.792969 17.847656 37.007812 17.980469 37.179688 L 24.753906 45.984375 C 24.886719 46.15625 25.078125 46.265625 25.292969 46.292969 C 25.507812 46.320312 25.722656 46.265625 25.894531 46.132812 L 26.71875 45.503906 C 26.890625 45.371094 27 45.183594 27.027344 44.96875 C 27.058594 44.753906 27 44.539062 26.867188 44.367188 L 20.09375 35.5625 C 19.960938 35.390625 19.769531 35.28125 19.554688 35.253906 C 19.519531 35.25 19.480469 35.246094 19.445312 35.246094 Z M 19.445312 35.246094 " fill-opacity="1" fill-rule="nonzero"/></svg>