<svg xmlns="http://www.w3.org/2000/svg" xmlns:xlink="http://www.w3.org/1999/xlink" width="40" zoomAndPan="magnify" viewBox="0 0 30 30.000001" height="40" preserveAspectRatio="xMidYMid meet" version="1.0"><defs><clipPath id="4cec3123ce"><path d="M 0.484375 8 L 9 8 L 9 21 L 0.484375 21 Z M 0.484375 8 " clip-rule="nonzero"/></clipPath><clipPath id="8eaf85382e"><path d="M 9 1.453125 L 29.515625 1.453125 L 29.515625 27.582031 L 9 27.582031 Z M 9 1.453125 " clip-rule="nonzero"/></clipPath></defs><path fill="#c7f9cc" d="M 2.074219 13.070312 L 19.40625 13.070312 L 19.40625 15.960938 L 2.074219 15.960938 Z M 2.074219 13.070312 " fill-opacity="1" fill-rule="evenodd"/><g clip-path="url(#4cec3123ce)"><path fill="#c7f9cc" d="M 6.105469 8.4375 L 1.050781 13.496094 C 0.488281 14.058594 0.488281 14.972656 1.050781 15.539062 L 6.105469 20.59375 L 8.148438 18.550781 L 4.117188 14.515625 L 8.148438 10.480469 Z M 6.105469 8.4375 " fill-opacity="1" fill-rule="evenodd"/></g><g clip-path="url(#8eaf85382e)"><path fill="#c7f9cc" d="M 9.292969 2.960938 C 9.292969 2.164062 9.941406 1.515625 10.738281 1.515625 L 28.070312 1.515625 C 28.871094 1.515625 29.515625 2.164062 29.515625 2.960938 L 29.515625 26.070312 C 29.515625 26.867188 28.871094 27.515625 28.070312 27.515625 L 10.738281 27.515625 C 9.941406 27.515625 9.292969 26.867188 9.292969 26.070312 L 9.292969 21.738281 L 12.183594 21.738281 L 12.183594 24.625 L 26.628906 24.625 L 26.628906 4.40625 L 12.183594 4.40625 L 12.183594 7.292969 L 9.292969 7.292969 Z M 9.292969 2.960938 " fill-opacity="1" fill-rule="evenodd"/></g></svg>