<svg xmlns="http://www.w3.org/2000/svg" xmlns:xlink="http://www.w3.org/1999/xlink" width="40" zoomAndPan="magnify" viewBox="0 0 30 30.000001" height="40" preserveAspectRatio="xMidYMid meet" version="1.0"><defs><clipPath id="9574e80f97"><path d="M 0.484375 4.617188 L 29.515625 4.617188 L 29.515625 24.214844 L 0.484375 24.214844 Z M 0.484375 4.617188 " clip-rule="nonzero"/></clipPath></defs><g clip-path="url(#9574e80f97)"><path fill="#4ac8cb" d="M 27.382812 12.375 L 7.792969 12.375 C 7.792969 12.375 11.917969 8.277344 12.027344 8.136719 C 12.3125 7.773438 12.480469 7.320312 12.480469 6.824219 C 12.480469 6.277344 12.273438 5.777344 11.9375 5.398438 L 11.761719 5.226562 C 11.382812 4.886719 10.886719 4.679688 10.339844 4.679688 C 9.773438 4.679688 9.261719 4.898438 8.882812 5.253906 C 8.882812 5.253906 0.976562 13.148438 0.9375 13.199219 C 0.65625 13.5625 0.488281 14.015625 0.488281 14.507812 C 0.488281 15 0.65625 15.453125 0.933594 15.8125 C 1.046875 15.960938 8.980469 23.859375 8.980469 23.859375 C 9.347656 24.15625 9.816406 24.335938 10.328125 24.335938 C 11.511719 24.335938 12.46875 23.375 12.46875 22.191406 C 12.46875 21.675781 12.285156 21.199219 11.980469 20.828125 L 7.792969 16.640625 L 27.382812 16.640625 C 28.5625 16.640625 29.515625 15.683594 29.515625 14.507812 C 29.515625 13.332031 28.5625 12.375 27.382812 12.375 " fill-opacity="1" fill-rule="nonzero"/></g></svg>